<svg width="73" height="72" viewBox="0 0 73 72" fill="none" xmlns="http://www.w3.org/2000/svg">
<path d="M36.4484 0.000525787C36.5894 0.000824277 36.7303 0.00112277 36.8756 0.0014303C38.899 0.00830973 40.884 0.0430591 42.8713 0.45931C43.0064 0.486827 43.1414 0.514344 43.2805 0.542694C49.9814 1.94441 56.0738 4.97986 61.0149 9.73886C61.1519 9.87019 61.1519 9.87019 61.2916 10.0042C62.6058 11.2707 63.8162 12.5584 64.8929 14.0324C65.0118 14.1918 65.1306 14.3512 65.2494 14.5106C66.0857 15.6451 66.8279 16.8243 67.5244 18.0489C67.5749 18.1364 67.6254 18.2239 67.6774 18.3141C70.6698 23.5422 72.0225 29.4655 71.9997 35.4481C71.9994 35.5891 71.9991 35.73 71.9988 35.8753C71.9919 37.8987 71.9572 39.8837 71.5409 41.8711C71.4997 42.0736 71.4997 42.0736 71.4576 42.2802C69.7318 50.5301 65.315 58.3351 58.5219 63.4772C58.4473 63.5347 58.3726 63.5922 58.2957 63.6515C53.8818 67.0448 48.8191 69.329 43.3647 70.4455C43.2652 70.4659 43.1656 70.4863 43.063 70.5073C40.9193 70.9148 38.7986 71.0078 36.6215 70.9995C36.4839 70.9993 36.3463 70.999 36.2045 70.9987C34.1971 70.9925 32.2426 70.9287 30.2678 70.5407C30.1438 70.5184 30.0197 70.4961 29.8919 70.4732C23.8524 69.3805 18.1547 66.6535 13.5092 62.6462C13.4061 62.5583 13.3029 62.4705 13.1965 62.38C11.3261 60.7441 9.5711 58.9782 8.10773 56.9676C7.9891 56.8084 7.87044 56.6491 7.75174 56.4899C6.91511 55.3554 6.17287 54.176 5.47622 52.9511C5.42574 52.8636 5.37526 52.7761 5.32325 52.6859C3.25525 49.0729 1.94318 45.0102 1.3212 40.9015C1.29665 40.7466 1.27209 40.5916 1.24678 40.432C1.01391 38.8085 0.994712 37.1987 1.00092 35.5606C1.00137 35.3486 1.00137 35.3486 1.00183 35.1323C1.0087 33.1064 1.04293 31.1189 1.45971 29.129C1.48722 28.994 1.51474 28.8589 1.54309 28.7198C2.9448 22.0189 5.98025 15.9265 10.7392 10.9854C10.8268 10.8941 10.9143 10.8027 11.0045 10.7086C12.271 9.39451 13.5587 8.18403 15.0327 7.10735C15.1922 6.98851 15.3516 6.86966 15.511 6.75082C16.6453 5.91461 17.8229 5.16909 19.0493 4.47583C19.1472 4.42013 19.2452 4.36443 19.3461 4.30704C22.5503 2.503 26.0366 1.29128 29.6359 0.554529C29.7355 0.53412 29.835 0.513711 29.9376 0.492684C32.1046 0.0808021 34.2477 -0.00785401 36.4484 0.000525787Z" fill="#EF3A30"/>
<path d="M41.5274 4.60797C41.6391 4.62827 41.7508 4.64857 41.8658 4.66948C47.1526 5.67012 52.1738 7.87766 56.3302 11.3111C56.4106 11.3773 56.491 11.4436 56.5739 11.5118C58.191 12.8523 59.6298 14.2716 60.9386 15.9195C61.0736 16.0799 61.0736 16.0799 61.2113 16.2435C66.4388 22.5122 68.4459 30.7296 67.8877 38.7419C67.8029 39.6149 67.6645 40.474 67.5021 41.3355C67.4826 41.4468 67.4632 41.5581 67.4431 41.6727C66.9466 44.4998 65.9623 47.1397 64.7091 49.7144C64.6583 49.8188 64.6076 49.9232 64.5553 50.0308C63.8044 51.5542 62.9225 52.9558 61.9161 54.3228C61.8546 54.4065 61.793 54.4901 61.7296 54.5763C56.8678 61.1129 49.628 65.4723 41.6147 66.8563C41.522 66.8724 41.4293 66.8886 41.3338 66.9052C39.6448 67.175 37.9278 67.2039 36.2208 67.2054C36.1206 67.2055 36.0203 67.2056 35.917 67.2057C28.5281 67.1947 21.1777 64.2952 15.6925 59.3502C15.5797 59.25 15.5797 59.25 15.4647 59.1479C11.3449 55.4845 8.40347 50.8783 6.61534 45.6646C6.58066 45.5652 6.54598 45.4657 6.51026 45.3633C3.96003 37.9742 4.63605 29.4249 7.96818 22.4044C9.10463 20.0751 10.3884 17.9014 12.0616 15.9195C12.1301 15.8371 12.1985 15.7547 12.269 15.6698C13.6094 14.0557 15.0237 12.6186 16.67 11.3111C16.8304 11.1761 16.8304 11.1761 16.9941 11.0383C19.0068 9.35995 21.3115 8.13519 23.6524 6.982C23.7454 6.93609 23.8384 6.89019 23.9343 6.84289C26.275 5.71004 28.9155 5.03548 31.4728 4.60797C31.5695 4.59161 31.6663 4.57526 31.766 4.5584C34.8562 4.06836 38.447 4.03773 41.5274 4.60797ZM24.9093 11.1714C24.7996 11.2238 24.6898 11.2762 24.5768 11.3301C20.625 13.2477 17.1657 16.1426 14.5753 19.69C14.5174 19.7689 14.4595 19.8478 14.3998 19.9291C12.61 22.4021 11.3045 25.1651 10.3858 28.0689C10.3549 28.1646 10.3241 28.2603 10.2922 28.3588C8.2199 34.9592 9.42163 42.5685 12.5329 48.606C14.3141 51.9404 16.8727 54.9649 19.8819 57.2554C19.9618 57.3173 20.0417 57.3791 20.1241 57.4428C22.6008 59.3428 25.422 60.7932 28.4005 61.7242C28.5028 61.7572 28.6051 61.7902 28.7105 61.8243C32.5344 63.0357 37.1736 63.3592 41.1085 62.5621C41.2154 62.5425 41.3222 62.523 41.4323 62.5028C48.1936 61.2533 54.3826 57.3721 58.4249 51.8091C58.4833 51.729 58.5418 51.6488 58.602 51.5662C60.9668 48.2769 62.6648 44.4174 63.2602 40.4016C63.2772 40.2932 63.2941 40.1847 63.3115 40.0729C63.3611 39.7493 63.4076 39.4255 63.4522 39.1011C63.466 39.0021 63.4798 38.903 63.494 38.801C64.3521 31.9761 62.3808 24.854 58.2171 19.4018C56.5687 17.2907 54.7289 15.4011 52.5597 13.8248C52.4795 13.7663 52.3993 13.7079 52.3167 13.6477C44.4251 7.97412 33.6866 6.97579 24.9093 11.1714Z" fill="#FDFEFE"/>
<path d="M43.9548 61.5696C44.0666 61.6463 44.0666 61.6463 44.1807 61.7245C44.1807 61.7706 44.1807 61.8167 44.1807 61.8642C43.8929 61.9349 43.6048 62.0045 43.3166 62.0736C43.076 62.132 43.076 62.132 42.8305 62.1915C42.4255 62.2712 42.0774 62.3017 41.667 62.2831C42.0113 61.9388 42.3077 61.849 42.7667 61.6896C42.9865 61.6108 42.9865 61.6108 43.2108 61.5303C43.6221 61.4452 43.6221 61.4452 43.9548 61.5696Z" fill="#EF3A30"/>
<path d="M38.571 19.7874C39.252 20.3282 39.7714 20.9386 40.0036 21.7845C40.0575 21.7843 40.1114 21.784 40.1669 21.7838C41.4797 21.7779 42.7925 21.7735 44.1053 21.7707C44.7402 21.7694 45.3751 21.7675 46.0099 21.7644C46.5635 21.7618 47.1171 21.7601 47.6707 21.7595C47.9636 21.7591 48.2565 21.7583 48.5494 21.7564C48.8256 21.7546 49.1017 21.754 49.3779 21.7544C49.4788 21.7543 49.5797 21.7538 49.6806 21.7528C50.4478 21.7454 51.0928 21.8404 51.7183 22.317C51.8007 22.3726 51.8007 22.3726 51.8847 22.4293C52.4509 22.9531 52.72 23.688 52.75 24.4511C52.7213 25.1539 52.4579 25.7905 51.9846 26.3107C51.4336 26.7801 50.8636 27.0558 50.1333 27.047C50.0359 27.0461 50.0359 27.0461 49.9365 27.0452C49.8875 27.0444 49.8385 27.0436 49.7881 27.0428C49.7834 27.1645 49.7834 27.1645 49.7786 27.2886C49.7352 28.3526 49.6628 29.4143 49.5873 30.4764C49.5688 30.7366 49.5506 30.9968 49.5323 31.257C49.4883 31.8818 49.444 32.5066 49.3997 33.1313C49.3787 33.4266 49.3578 33.722 49.3369 34.0173C49.2673 35.0002 49.1975 35.9831 49.1276 36.966C49.1095 37.2197 49.0914 37.4734 49.0734 37.7271C49.0689 37.7901 49.0644 37.8531 49.0598 37.9181C48.9869 38.9418 48.9146 39.9655 48.8426 40.9892C48.7684 42.0434 48.6937 43.0976 48.6185 44.1518C48.5764 44.7424 48.5345 45.333 48.4932 45.9237C48.4581 46.426 48.4224 46.9282 48.3862 47.4304C48.3678 47.6862 48.3496 47.942 48.332 48.1979C48.3128 48.4759 48.2926 48.7539 48.2723 49.0318C48.2643 49.1516 48.2643 49.1516 48.2561 49.2739C48.167 50.4563 47.837 51.5235 46.9259 52.3359C46.6908 52.5087 46.4481 52.6588 46.1938 52.8018C46.1455 52.8292 46.0972 52.8567 46.0474 52.885C45.5094 53.1725 44.9964 53.2208 44.3959 53.2189C44.3235 53.2192 44.2511 53.2195 44.1765 53.2199C43.9345 53.2207 43.6926 53.2206 43.4507 53.2205C43.2769 53.2209 43.1032 53.2213 42.9294 53.2218C42.5068 53.2229 42.0842 53.2233 41.6616 53.2234C41.3178 53.2234 40.974 53.2237 40.6303 53.2241C39.6544 53.2253 38.6785 53.2259 37.7025 53.2258C37.65 53.2258 37.5974 53.2258 37.5433 53.2258C37.4907 53.2258 37.438 53.2258 37.3838 53.2258C36.5316 53.2257 35.6793 53.227 34.8271 53.2289C33.9507 53.2308 33.0744 53.2317 32.198 53.2316C31.7066 53.2316 31.2151 53.2319 30.7236 53.2334C30.2611 53.2347 29.7987 53.2347 29.3362 53.2337C29.1669 53.2336 28.9975 53.2339 28.8282 53.2347C27.4266 53.2409 26.3819 53.1028 25.3197 52.1058C24.1014 50.8098 24.2008 49.0029 24.0839 47.337C24.0654 47.0745 24.0466 46.812 24.0278 46.5494C23.9912 46.0367 23.9549 45.5239 23.9187 45.0111C23.8893 44.5942 23.8597 44.1773 23.8301 43.7605C23.8258 43.701 23.8216 43.6414 23.8173 43.5801C23.8087 43.4592 23.8001 43.3383 23.7915 43.2173C23.711 42.086 23.631 40.9547 23.551 39.8234C23.4825 38.8536 23.4137 37.8838 23.3446 36.914C23.2643 35.7859 23.1842 34.6577 23.1043 33.5296C23.0958 33.4093 23.0873 33.2889 23.0788 33.1686C23.0746 33.1094 23.0704 33.0502 23.0661 32.9892C23.0366 32.5728 23.007 32.1565 22.9773 31.7401C22.9412 31.2328 22.9053 30.7254 22.8695 30.218C22.8513 29.9594 22.833 29.7007 22.8145 29.4421C22.7976 29.2051 22.7809 28.968 22.7643 28.731C22.7555 28.6052 22.7464 28.4795 22.7373 28.3538C22.707 27.9159 22.6901 27.4818 22.6979 27.0428C22.6485 27.0449 22.5992 27.047 22.5483 27.0491C21.7685 27.0767 21.0862 26.8524 20.5009 26.3229C19.8943 25.673 19.7355 24.9989 19.751 24.1368C19.7825 23.4168 20.1277 22.8734 20.6389 22.3854C21.3195 21.8119 22.0348 21.7456 22.8933 21.7543C22.9983 21.7544 23.1034 21.7543 23.2084 21.7542C23.4914 21.7541 23.7743 21.7557 24.0573 21.7575C24.3538 21.7592 24.6504 21.7594 24.9469 21.7597C25.5074 21.7605 26.068 21.7627 26.6285 21.7654C27.2671 21.7683 27.9056 21.7698 28.5442 21.7711C29.8569 21.7739 31.1696 21.7786 32.4823 21.7845C32.4959 21.708 32.4959 21.708 32.5098 21.6299C32.6653 20.92 33.2693 20.2358 33.8512 19.8218C35.3091 18.9161 37.1153 18.7754 38.571 19.7874Z" fill="white"/>
<path d="M38.571 19.7874C39.252 20.3282 39.7714 20.9386 40.0036 21.7845C40.0575 21.7843 40.1114 21.784 40.1669 21.7838C41.4797 21.7779 42.7925 21.7735 44.1053 21.7707C44.7402 21.7694 45.3751 21.7675 46.0099 21.7644C46.5635 21.7618 47.1171 21.7601 47.6707 21.7595C47.9636 21.7591 48.2565 21.7583 48.5494 21.7564C48.8256 21.7546 49.1017 21.754 49.3779 21.7544C49.4788 21.7543 49.5797 21.7538 49.6806 21.7528C50.4478 21.7454 51.0928 21.8404 51.7183 22.317C51.8007 22.3726 51.8007 22.3726 51.8847 22.4293C52.4509 22.9531 52.72 23.688 52.75 24.4511C52.7213 25.1539 52.4579 25.7905 51.9846 26.3107C51.4336 26.7801 50.8636 27.0558 50.1333 27.047C50.0359 27.0461 50.0359 27.0461 49.9365 27.0452C49.8875 27.0444 49.8385 27.0436 49.7881 27.0428C49.7864 27.0868 49.7847 27.1308 49.783 27.1762C49.7753 27.3744 49.7671 27.5726 49.7589 27.7708C49.755 27.8748 49.755 27.8748 49.751 27.9808C49.7482 28.0466 49.7454 28.1125 49.7426 28.1803C49.7401 28.2413 49.7377 28.3023 49.7352 28.3652C49.7215 28.5072 49.7215 28.5072 49.6549 28.5737C49.5386 28.5802 49.4219 28.582 49.3054 28.582C49.191 28.5823 49.191 28.5823 49.0742 28.5825C48.9894 28.5823 48.9045 28.5822 48.8171 28.582C48.7269 28.5821 48.6366 28.5822 48.5464 28.5823C48.3494 28.5825 48.1525 28.5825 47.9555 28.5823C47.6351 28.582 47.3147 28.5822 46.9942 28.5825C46.5894 28.5827 46.1845 28.5829 45.7796 28.5829C44.9837 28.5829 44.1878 28.5837 43.3919 28.5849C43.2666 28.585 43.1414 28.5852 43.0162 28.5854C42.8264 28.5857 42.6367 28.5859 42.4469 28.5862C41.7307 28.5872 41.0145 28.5881 40.2984 28.5889C40.2329 28.589 40.1674 28.589 40.0999 28.5891C39.0393 28.5903 37.9788 28.5905 36.9182 28.5904C35.8298 28.5903 34.7413 28.5915 33.6529 28.5938C32.9814 28.5951 32.3099 28.5955 31.6383 28.5945C31.1778 28.594 30.7174 28.5946 30.2569 28.5962C29.9913 28.5971 29.7256 28.5975 29.46 28.5963C29.2166 28.5953 28.9732 28.5959 28.7298 28.5976C28.6005 28.5982 28.4711 28.5971 28.3418 28.5959C27.7787 28.6021 27.3774 28.7022 26.9621 29.0948C26.6918 29.393 26.6658 29.7018 26.6723 30.089C26.6728 30.143 26.6733 30.197 26.6738 30.2526C26.689 31.132 26.7624 32.01 26.8259 32.887C26.8449 33.1504 26.8634 33.4138 26.8819 33.6772C26.9169 34.1738 26.9523 34.6705 26.988 35.1671C27.0286 35.7334 27.0686 36.2997 27.1087 36.866C27.1909 38.029 27.2738 39.192 27.3571 40.3549C27.3572 40.3062 27.3572 40.2574 27.3572 40.2071C27.3582 39.0182 27.3611 37.8293 27.3659 36.6403C27.3682 36.0654 27.3699 35.4904 27.3701 34.9155C27.3703 34.4141 27.3717 33.9128 27.3745 33.4114C27.3759 33.1462 27.3767 32.8809 27.3762 32.6156C27.3757 32.3655 27.3767 32.1154 27.379 31.8653C27.3798 31.7306 27.3789 31.596 27.378 31.4613C27.3856 30.8599 27.4894 30.3854 27.913 29.94C27.9629 29.9051 28.0129 29.8702 28.0643 29.8342C28.1146 29.7977 28.1649 29.7613 28.2167 29.7237C28.5979 29.4902 29.0561 29.5377 29.4871 29.5721C29.9002 29.6898 30.2113 29.9454 30.4387 30.3095C30.6742 30.743 30.7328 31.0873 30.727 31.5765C30.7274 31.648 30.7279 31.7195 30.7284 31.7932C30.7296 32.0314 30.7284 32.2695 30.7272 32.5077C30.7275 32.679 30.728 32.8504 30.7286 33.0218C30.7298 33.438 30.7293 33.8543 30.7281 34.2705C30.7271 34.609 30.7269 34.9475 30.7271 35.286C30.7271 35.3343 30.7272 35.3825 30.7272 35.4323C30.7273 35.5304 30.7273 35.6285 30.7274 35.7266C30.728 36.593 30.7269 37.4595 30.7249 38.3259C30.723 39.1654 30.7225 40.0049 30.7235 40.8444C30.7246 41.7599 30.7249 42.6754 30.7237 43.5909C30.7236 43.6886 30.7235 43.7864 30.7234 43.8841C30.7233 43.9322 30.7232 43.9803 30.7232 44.0298C30.7228 44.3676 30.723 44.7054 30.7235 45.0432C30.724 45.4985 30.7232 45.9537 30.7214 46.409C30.7209 46.5758 30.7209 46.7426 30.7214 46.9094C30.722 47.1377 30.7209 47.3658 30.7194 47.5941C30.72 47.6596 30.7205 47.7251 30.7211 47.7926C30.7147 48.3313 30.6052 48.8439 30.2608 49.2699C29.6959 49.7138 29.2715 49.8129 28.5552 49.74C28.3335 49.6552 28.1466 49.5483 27.9562 49.4072C28.1537 50.6727 28.5479 51.7477 29.6202 52.5355C30.1243 52.8388 30.6274 53.0679 31.2176 53.1346C31.2176 53.1565 31.2176 53.1785 31.2176 53.2011C30.7292 53.2074 30.2409 53.2121 29.7524 53.2149C29.5255 53.2163 29.2987 53.2182 29.0718 53.2212C28.8099 53.2247 28.548 53.226 28.2861 53.2271C28.1661 53.2292 28.1661 53.2292 28.0438 53.2313C26.9646 53.2316 26.1 52.8382 25.3197 52.1058C24.1014 50.8098 24.2008 49.0029 24.0839 47.337C24.0654 47.0745 24.0466 46.812 24.0278 46.5494C23.9912 46.0367 23.9549 45.5239 23.9187 45.0111C23.8893 44.5942 23.8597 44.1773 23.8301 43.7605C23.8258 43.701 23.8216 43.6414 23.8173 43.5801C23.8087 43.4592 23.8001 43.3383 23.7915 43.2173C23.711 42.086 23.631 40.9547 23.551 39.8234C23.4825 38.8536 23.4137 37.8838 23.3446 36.914C23.2643 35.7859 23.1842 34.6577 23.1043 33.5296C23.0958 33.4093 23.0873 33.2889 23.0788 33.1686C23.0746 33.1094 23.0704 33.0502 23.0661 32.9892C23.0366 32.5728 23.007 32.1565 22.9773 31.7401C22.9412 31.2328 22.9053 30.7254 22.8695 30.218C22.8513 29.9594 22.833 29.7007 22.8145 29.4421C22.7976 29.2051 22.7809 28.968 22.7643 28.731C22.7555 28.6052 22.7464 28.4795 22.7373 28.3538C22.707 27.9159 22.6901 27.4818 22.6979 27.0428C22.6485 27.0449 22.5992 27.047 22.5483 27.0491C21.7685 27.0767 21.0862 26.8524 20.5009 26.3229C19.8943 25.673 19.7355 24.9989 19.751 24.1368C19.7825 23.4168 20.1277 22.8734 20.6389 22.3854C21.3195 21.8119 22.0348 21.7456 22.8933 21.7543C22.9983 21.7544 23.1034 21.7543 23.2084 21.7542C23.4914 21.7541 23.7743 21.7557 24.0573 21.7575C24.3538 21.7592 24.6504 21.7594 24.9469 21.7597C25.5074 21.7605 26.068 21.7627 26.6285 21.7654C27.2671 21.7683 27.9056 21.7698 28.5442 21.7711C29.8569 21.7739 31.1696 21.7786 32.4823 21.7845C32.4959 21.708 32.4959 21.708 32.5098 21.6299C32.6653 20.92 33.2693 20.2358 33.8512 19.8218C35.3091 18.9161 37.1153 18.7754 38.571 19.7874Z" fill="white"/>
<path d="M38.5713 19.7869C39.2522 20.3277 39.7716 20.9381 40.0039 21.784C40.0578 21.7838 40.1116 21.7835 40.1671 21.7833C41.4799 21.7774 42.7927 21.773 44.1056 21.7702C44.7404 21.7688 45.3753 21.767 46.0102 21.7639C46.5638 21.7613 47.1173 21.7595 47.6709 21.7589C47.9639 21.7586 48.2568 21.7578 48.5497 21.7558C48.8258 21.754 49.102 21.7535 49.3782 21.7539C49.4791 21.7538 49.58 21.7533 49.6809 21.7523C50.448 21.7448 51.093 21.8399 51.7186 22.3165C51.8009 22.3721 51.8009 22.3721 51.885 22.4288C52.4512 22.9525 52.7203 23.6875 52.7503 24.4506C52.7379 24.7456 52.6791 24.9914 52.5818 25.2699C52.5574 25.3404 52.5329 25.411 52.5078 25.4837C52.489 25.5368 52.4701 25.5898 52.4507 25.6445C49.3185 25.6521 46.1862 25.658 43.0539 25.6615C42.684 25.6619 42.3141 25.6624 41.9442 25.6628C41.8337 25.6629 41.8337 25.6629 41.721 25.6631C40.5291 25.6645 39.3372 25.6671 38.1453 25.6702C36.922 25.6733 35.6987 25.6752 34.4754 25.6758C33.7207 25.6763 32.9661 25.6777 32.2114 25.6804C31.6937 25.6822 31.176 25.6827 30.6583 25.6823C30.3598 25.6821 30.0612 25.6824 29.7627 25.6842C29.4889 25.6858 29.2152 25.6859 28.9415 25.6848C28.8429 25.6846 28.7442 25.685 28.6456 25.6861C27.7579 25.695 27.0842 25.5006 26.4385 24.8767C25.9629 24.3427 25.7335 23.7752 25.7391 23.057C25.7392 23.0105 25.7394 22.964 25.7395 22.9161C25.7477 22.4918 25.8367 22.1629 26.0262 21.784C28.1568 21.784 30.2874 21.784 32.4825 21.784C32.5045 21.6742 32.5265 21.5643 32.5491 21.4512C33.0822 20.3593 33.8406 19.7246 34.9453 19.2547C36.1485 18.8806 37.5358 19.067 38.5713 19.7869Z" fill="white"/>
<path d="M29.817 29.6759C30.2744 29.9572 30.5221 30.3331 30.7114 30.8283C30.7549 31.0761 30.7562 31.3168 30.7532 31.5679C30.7537 31.6395 30.7541 31.711 30.7546 31.7847C30.7558 32.0229 30.7546 32.261 30.7534 32.4991C30.7537 32.6705 30.7542 32.8419 30.7548 33.0133C30.756 33.4295 30.7555 33.8457 30.7543 34.262C30.7533 34.6005 30.7531 34.939 30.7533 35.2775C30.7533 35.3257 30.7534 35.374 30.7534 35.4238C30.7535 35.5219 30.7535 35.62 30.7536 35.7181C30.7542 36.5845 30.7531 37.4509 30.7511 38.3174C30.7492 39.1569 30.7487 39.9964 30.7497 40.8359C30.7509 41.7514 30.7511 42.6669 30.75 43.5823C30.7498 43.6801 30.7497 43.7778 30.7496 43.8756C30.7495 43.9237 30.7495 43.9718 30.7494 44.0213C30.749 44.3591 30.7492 44.6969 30.7497 45.0347C30.7503 45.49 30.7494 45.9452 30.7476 46.4005C30.7471 46.5673 30.7471 46.7341 30.7476 46.9009C30.7482 47.1291 30.7471 47.3573 30.7456 47.5856C30.7464 47.6839 30.7464 47.6839 30.7473 47.7841C30.7409 48.3228 30.6314 48.8354 30.287 49.2614C29.7171 49.7092 29.3015 49.7909 28.5814 49.7315C28.3844 49.6669 28.2843 49.5945 28.1155 49.4652C28.0578 49.4295 28.0002 49.3939 27.9408 49.3571C27.5582 48.9745 27.4127 48.5172 27.4054 47.9854C27.4061 47.9187 27.4069 47.8519 27.4076 47.7831C27.4071 47.7105 27.4066 47.6378 27.4061 47.5629C27.4047 47.3209 27.4058 47.079 27.4068 46.837C27.4064 46.6629 27.4058 46.4888 27.4051 46.3147C27.4036 45.8918 27.4039 45.4689 27.4049 45.046C27.4056 44.7022 27.4057 44.3583 27.4054 44.0145C27.4053 43.9654 27.4053 43.9164 27.4052 43.8658C27.4051 43.7662 27.405 43.6666 27.4049 43.5669C27.4039 42.6338 27.405 41.7006 27.4068 40.7675C27.4083 39.9677 27.408 39.168 27.4065 38.3682C27.4047 37.4383 27.404 36.5084 27.405 35.5784C27.4052 35.4792 27.4053 35.3799 27.4054 35.2806C27.4054 35.2318 27.4055 35.183 27.4055 35.1327C27.4058 34.7894 27.4053 34.4462 27.4045 34.103C27.4035 33.6406 27.4042 33.1782 27.4062 32.7157C27.4066 32.5462 27.4065 32.3767 27.4057 32.2072C27.4048 31.9754 27.406 31.7437 27.4076 31.5119C27.4065 31.4118 27.4065 31.4118 27.4054 31.3097C27.4128 30.7728 27.5646 30.3255 27.9392 29.9315C27.9892 29.8966 28.0391 29.8617 28.0905 29.8257C28.166 29.771 28.166 29.771 28.2429 29.7152C28.6723 29.4522 29.3669 29.4621 29.817 29.6759Z" fill="#EF3A30"/>
<path d="M36.5203 35.1787C36.6838 35.3046 36.7724 35.4727 36.84 35.6943C36.8556 35.8052 36.8561 35.9129 36.855 36.0252C36.8551 36.0573 36.8553 36.0893 36.8555 36.1222C36.8559 36.2288 36.8555 36.3353 36.855 36.4419C36.8552 36.5186 36.8553 36.5952 36.8556 36.6719C36.856 36.8582 36.8558 37.0444 36.8554 37.2306C36.855 37.3821 36.8549 37.5335 36.855 37.685C36.855 37.7066 36.855 37.7282 36.8551 37.7504C36.8551 37.7943 36.8551 37.8382 36.8551 37.8821C36.8553 38.2698 36.8549 38.6574 36.8542 39.0451C36.8535 39.4207 36.8534 39.7963 36.8537 40.1719C36.8541 40.5816 36.8542 40.9912 36.8538 41.4008C36.8538 41.4445 36.8537 41.4882 36.8537 41.532C36.8537 41.5535 36.8536 41.575 36.8536 41.5972C36.8535 41.7483 36.8536 41.8994 36.8537 42.0506C36.8539 42.2543 36.8536 42.458 36.853 42.6617C36.8528 42.7363 36.8528 42.8109 36.853 42.8856C36.8532 42.9877 36.8528 43.0898 36.8523 43.1919C36.8526 43.2359 36.8526 43.2359 36.8529 43.2807C36.8506 43.5217 36.8115 43.7511 36.6883 43.9417C36.4846 44.1421 36.336 44.1786 36.0786 44.152C36.0082 44.1232 35.9724 44.0908 35.912 44.0329C35.8914 44.0169 35.8708 44.001 35.8496 43.9845C35.7128 43.8133 35.6608 43.6087 35.6582 43.3708C35.6585 43.3409 35.6587 43.3111 35.659 43.2803C35.6588 43.2478 35.6586 43.2153 35.6584 43.1818C35.658 43.0735 35.6583 42.9653 35.6587 42.857C35.6585 42.7791 35.6583 42.7012 35.6581 42.6233C35.6575 42.4341 35.6577 42.2449 35.658 42.0557C35.6583 41.9018 35.6583 41.748 35.6582 41.5941C35.6582 41.5722 35.6581 41.5502 35.6581 41.5276C35.6581 41.483 35.6581 41.4384 35.658 41.3939C35.6577 40.9764 35.6581 40.5588 35.6587 40.1413C35.6592 39.7835 35.6591 39.4257 35.6586 39.0679C35.658 38.6518 35.6577 38.2357 35.6581 37.8196C35.6581 37.7752 35.6581 37.7308 35.6582 37.6864C35.6582 37.6645 35.6582 37.6427 35.6582 37.6202C35.6583 37.4666 35.6582 37.313 35.6579 37.1595C35.6575 36.9526 35.6578 36.7457 35.6585 36.5388C35.6586 36.4629 35.6586 36.3871 35.6583 36.3112C35.658 36.2075 35.6584 36.1039 35.659 36.0002C35.6586 35.9554 35.6586 35.9554 35.6582 35.9097C35.6608 35.6695 35.7151 35.4693 35.849 35.2931C35.8669 35.2774 35.8847 35.2618 35.9031 35.2457C35.9301 35.2212 35.9301 35.2212 35.9576 35.1963C36.1111 35.0786 36.3594 35.083 36.5203 35.1787Z" fill="#F2F2F2"/>
<path d="M36.9795 29.6837C37.4369 29.965 37.6846 30.3409 37.8739 30.8361C37.9174 31.0839 37.9187 31.3246 37.9157 31.5758C37.9162 31.6473 37.9167 31.7188 37.9171 31.7925C37.9183 32.0307 37.9171 32.2688 37.9159 32.507C37.9162 32.6783 37.9167 32.8497 37.9173 33.0211C37.9186 33.4373 37.918 33.8536 37.9168 34.2698C37.9159 34.6083 37.9156 34.9468 37.9158 35.2853C37.9159 35.3336 37.9159 35.3818 37.9159 35.4316C37.916 35.5297 37.9161 35.6278 37.9161 35.7259C37.9167 36.5923 37.9156 37.4588 37.9136 38.3252C37.9117 39.1647 37.9112 40.0042 37.9123 40.8437C37.9134 41.7592 37.9136 42.6747 37.9125 43.5902C37.9124 43.6879 37.9122 43.7857 37.9121 43.8834C37.9121 43.9315 37.912 43.9796 37.9119 44.0291C37.9116 44.3669 37.9118 44.7047 37.9122 45.0425C37.9128 45.4978 37.9119 45.953 37.9101 46.4083C37.9096 46.5751 37.9096 46.7419 37.9101 46.9087C37.9107 47.137 37.9096 47.3651 37.9082 47.5934C37.909 47.6917 37.909 47.6917 37.9098 47.7919C37.9034 48.3306 37.794 48.8432 37.4496 49.2692C36.8861 49.7119 36.4592 49.8188 35.744 49.7393C35.2195 49.5461 34.9321 49.2189 34.6718 48.7377C34.581 48.4372 34.5934 48.1432 34.5942 47.831C34.5938 47.7586 34.5935 47.6862 34.5931 47.6116C34.5921 47.3686 34.5921 47.1256 34.592 46.8826C34.5915 46.7085 34.591 46.5345 34.5904 46.3604C34.5888 45.8872 34.5883 45.414 34.588 44.9408C34.5878 44.6451 34.5873 44.3495 34.5868 44.0538C34.5855 43.2349 34.5844 42.4159 34.5843 41.5969C34.5842 41.5445 34.5842 41.4921 34.5842 41.4382C34.5842 41.332 34.5842 41.2257 34.5841 41.1195C34.5841 41.0668 34.5841 41.0141 34.5841 40.9598C34.5841 40.907 34.5841 40.8542 34.5841 40.7998C34.5838 39.9448 34.582 39.0899 34.5795 38.2349C34.577 37.3565 34.5757 36.4781 34.5757 35.5998C34.5757 35.1068 34.5751 34.6139 34.5732 34.121C34.5714 33.6572 34.5713 33.1934 34.5723 32.7296C34.5725 32.5596 34.572 32.3895 34.571 32.2195C34.5696 31.9869 34.5703 31.7545 34.5715 31.522C34.5706 31.455 34.5698 31.388 34.5688 31.319C34.5752 30.7812 34.7264 30.334 35.1018 29.9393C35.1517 29.9044 35.2016 29.8695 35.2531 29.8335C35.3285 29.7788 35.3285 29.7788 35.4054 29.723C35.8349 29.46 36.5295 29.4699 36.9795 29.6837Z" fill="#EF3A30"/>
<path d="M44.2298 29.7051C44.6456 29.9458 44.9196 30.3136 45.0618 30.77C45.0819 31.0041 45.0804 31.2375 45.0796 31.4722C45.0799 31.5438 45.0802 31.6153 45.0806 31.689C45.0814 31.9291 45.0813 32.1692 45.0812 32.4093C45.0816 32.5812 45.082 32.7532 45.0825 32.9252C45.0836 33.3442 45.084 33.7632 45.0841 34.1822C45.0841 34.523 45.0844 34.8637 45.0848 35.2045C45.086 36.1712 45.0866 37.1379 45.0865 38.1046C45.0865 38.1567 45.0865 38.2088 45.0865 38.2625C45.0865 38.3147 45.0865 38.3668 45.0865 38.4206C45.0864 39.2654 45.0877 40.1102 45.0896 40.9551C45.0915 41.8231 45.0924 42.6912 45.0923 43.5593C45.0923 44.0464 45.0926 44.5334 45.0941 45.0205C45.0954 45.4789 45.0954 45.9373 45.0944 46.3956C45.0942 46.5636 45.0946 46.7316 45.0954 46.8996C45.0964 47.1295 45.0958 47.3593 45.0948 47.5891C45.0954 47.6552 45.0961 47.7212 45.0968 47.7892C45.0915 48.3294 44.983 48.8424 44.6375 49.2697C44.074 49.7125 43.6471 49.8193 42.9319 49.7398C42.5371 49.5944 42.2359 49.3586 41.9959 49.0144C41.792 48.5573 41.781 48.1062 41.7826 47.6145C41.7823 47.5427 41.782 47.4708 41.7817 47.3968C41.7808 47.1569 41.7809 46.9169 41.781 46.677C41.7806 46.5047 41.7802 46.3323 41.7797 46.16C41.7786 45.741 41.7782 45.3219 41.7781 44.9029C41.7781 44.5622 41.7778 44.2216 41.7774 43.8809C41.7762 42.9144 41.7756 41.9478 41.7757 40.9813C41.7757 40.9292 41.7757 40.8772 41.7757 40.8236C41.7757 40.7454 41.7757 40.7454 41.7757 40.6657C41.7758 39.8207 41.7745 38.9758 41.7726 38.1308C41.7707 37.2625 41.7698 36.3942 41.7699 35.5259C41.7699 35.0387 41.7696 34.5515 41.7681 34.0643C41.7668 33.6063 41.7668 33.1483 41.7678 32.6902C41.768 32.5221 41.7676 32.3541 41.7668 32.186C41.7658 31.9565 41.7664 31.7271 41.7675 31.4976C41.7668 31.4311 41.7661 31.3647 41.7654 31.2962C41.7695 30.8802 41.8451 30.5903 42.0666 30.2376C42.1037 30.1785 42.1407 30.1195 42.1789 30.0587C42.7402 29.4974 43.4985 29.3808 44.2298 29.7051Z" fill="#EF3A30"/>
<path d="M38.5715 19.7205C39.2583 20.2659 39.7615 20.8683 40.0041 21.7176C43.4965 21.7176 46.989 21.7176 50.5872 21.7176C50.5872 21.7396 50.5872 21.7615 50.5872 21.7842C42.4822 21.7842 34.3771 21.7842 26.0264 21.7842C26.0264 21.7622 26.0264 21.7402 26.0264 21.7176C28.157 21.7176 30.2876 21.7176 32.4827 21.7176C32.5047 21.6078 32.5267 21.4979 32.5493 21.3848C33.0824 20.2929 33.8409 19.6582 34.9455 19.1883C36.1487 18.8141 37.536 19.0006 38.5715 19.7205Z" fill="white"/>
<path d="M36.2096 19.1051C36.2726 19.1046 36.3355 19.104 36.4004 19.1035C36.7812 19.1046 37.1091 19.1463 37.4742 19.2548C37.2884 19.3787 37.1106 19.4651 36.9085 19.5585C35.8942 20.0657 35.377 20.7869 34.8784 21.7841C34.0876 21.7841 33.2969 21.7841 32.4822 21.7841C32.6394 20.9979 33.2024 20.283 33.8511 19.8214C34.6172 19.3455 35.3081 19.0977 36.2096 19.1051Z" fill="white"/>
</svg>
