<svg width="382" height="106" viewBox="0 0 382 106" fill="none" xmlns="http://www.w3.org/2000/svg">
<g clip-path="url(#clip0_446_39128)">
<path d="M32.0824 59.455C31.4542 59.455 30.9272 59.645 30.4915 60.025C30.0558 60.405 29.8328 60.905 29.8328 61.525C29.8328 62.195 30.0558 62.695 30.5118 63.045C30.9678 63.395 31.4846 63.565 32.0824 63.565C32.6803 63.565 33.1971 63.395 33.6531 63.045C34.1091 62.695 34.3321 62.185 34.3321 61.525C34.3321 60.905 34.1193 60.405 33.6937 60.025C33.2681 59.645 32.731 59.455 32.0926 59.455H32.0824Z" fill="#123F37"/>
<path d="M26.7219 59.455C26.0936 59.455 25.5666 59.645 25.1309 60.025C24.6952 60.405 24.4722 60.905 24.4722 61.525C24.4722 62.195 24.6952 62.695 25.1512 63.045C25.6072 63.395 26.124 63.565 26.7219 63.565C27.3197 63.565 27.8365 63.395 28.2925 63.045C28.7485 62.695 28.9715 62.185 28.9715 61.525C28.9715 60.905 28.7485 60.405 28.3128 60.025C27.8771 59.645 27.3501 59.455 26.7219 59.455Z" fill="#123F37"/>
<path d="M61.4491 41.595C61.9254 41.965 62.4726 42.145 63.0806 42.145C63.6886 42.145 64.2358 41.965 64.7121 41.595C65.1884 41.225 65.4316 40.695 65.4316 39.995C65.4316 39.365 65.2086 38.845 64.7526 38.455C64.2966 38.065 63.7393 37.865 63.0806 37.865C62.4219 37.865 61.8646 38.065 61.4187 38.455C60.9627 38.845 60.7398 39.355 60.7398 39.995C60.7398 40.695 60.983 41.225 61.4593 41.595H61.4491Z" fill="#123F37"/>
<path d="M81.9491 42.585C82.5571 42.585 83.084 42.405 83.5299 42.045C83.9758 41.685 84.1987 41.175 84.1987 40.505C84.1987 39.885 83.9859 39.395 83.5603 39.015C83.1347 38.645 82.5976 38.455 81.9592 38.455C81.3208 38.455 80.804 38.645 80.3683 39.015C79.9325 39.385 79.7096 39.885 79.7096 40.505C79.7096 41.175 79.9325 41.685 80.3784 42.045C80.8243 42.405 81.3512 42.585 81.9592 42.585H81.9491Z" fill="#123F37"/>
<path d="M76.5885 42.585C77.1965 42.585 77.7234 42.405 78.1693 42.045C78.6152 41.685 78.8381 41.175 78.8381 40.505C78.8381 39.885 78.6152 39.395 78.1794 39.015C77.7437 38.645 77.2168 38.455 76.5885 38.455C75.9602 38.455 75.4333 38.645 74.9975 39.015C74.5618 39.385 74.3389 39.885 74.3389 40.505C74.3389 41.175 74.5618 41.685 75.0077 42.045C75.4535 42.405 75.9805 42.585 76.5885 42.585Z" fill="#123F37"/>
<path d="M87.3097 54.335H81.4829V44.025H77.3789V54.335H70.7314C70.782 54.055 70.8327 53.645 70.8935 53.105C70.9543 52.565 70.9847 52.005 70.9847 51.435C70.9847 50.155 70.7719 49.015 70.3463 48.035C69.9207 47.055 69.3633 46.215 68.6641 45.535C68.0359 44.905 67.286 44.415 66.4145 44.075C65.543 43.735 64.5804 43.565 63.5265 43.565C62.4726 43.565 61.4694 43.705 60.5473 43.995C59.6352 44.275 58.6726 44.705 57.6694 45.275L59.4022 48.835C60.2129 48.315 60.8715 47.985 61.3883 47.835C61.9051 47.685 62.4827 47.615 63.1009 47.615C64.2561 47.615 65.1478 47.895 65.7964 48.465C66.1916 48.795 66.4753 49.205 66.6476 49.705C66.8198 50.205 66.9111 50.695 66.9111 51.165C66.9111 51.665 66.8705 52.235 66.7996 52.855C66.7287 53.485 66.6476 53.975 66.5665 54.325H55.6731V52.275C55.6731 51.235 55.5616 50.275 55.3387 49.385C55.1157 48.495 54.7205 47.755 54.1429 47.155C53.4843 46.475 52.7141 45.985 51.8325 45.685C50.9509 45.385 49.9375 45.235 48.7823 45.235H41.5673V37.975H37.4633V54.325H31.6366V44.015H27.5325V54.325H20.8141V52.275C20.8141 51.235 20.7026 50.275 20.4797 49.385C20.2567 48.495 19.8615 47.755 19.2839 47.155C18.6252 46.475 17.8551 45.985 16.9735 45.685C16.0919 45.385 15.0785 45.235 13.9233 45.235H6.70833V37.975H2.61442V54.325H0.202667V58.375H91.4137V42.025H93.0148V37.975H87.3097V54.325V54.335ZM16.7202 54.335H6.71846V49.265H14.278C14.6732 49.265 15.038 49.345 15.3623 49.495C15.6967 49.645 15.95 49.845 16.1324 50.095C16.3351 50.335 16.477 50.625 16.5783 50.965C16.6796 51.295 16.7303 51.695 16.7303 52.145V54.335H16.7202ZM51.569 54.335H41.5673V49.265H49.1269C49.5221 49.265 49.8869 49.345 50.2112 49.495C50.5354 49.645 50.7989 49.845 50.9813 50.095C51.184 50.335 51.3258 50.625 51.4272 50.965C51.5285 51.295 51.5792 51.695 51.5792 52.145V54.335H51.569Z" fill="#123F37"/>
<path d="M100.676 37.985H96.5716V58.385H100.676V37.985Z" fill="#123F37"/>
<path d="M115.937 41.635C116.545 41.635 117.072 41.455 117.517 41.095C117.963 40.735 118.186 40.225 118.186 39.555C118.186 38.935 117.963 38.445 117.528 38.065C117.092 37.695 116.565 37.505 115.937 37.505C115.308 37.505 114.781 37.695 114.346 38.065C113.91 38.435 113.687 38.935 113.687 39.555C113.687 40.225 113.91 40.735 114.356 41.095C114.802 41.455 115.329 41.635 115.937 41.635Z" fill="#123F37"/>
<path d="M121.297 41.635C121.905 41.635 122.432 41.455 122.878 41.095C123.324 40.735 123.547 40.225 123.547 39.555C123.547 38.935 123.334 38.445 122.908 38.065C122.483 37.695 121.946 37.505 121.307 37.505C120.669 37.505 120.152 37.695 119.716 38.065C119.281 38.435 119.058 38.935 119.058 39.555C119.058 40.225 119.281 40.735 119.726 41.095C120.172 41.455 120.699 41.635 121.307 41.635H121.297Z" fill="#123F37"/>
<path d="M127.276 54.335H123.689V42.805H119.585V44.025H119.412C118.044 44.025 116.818 44.205 115.734 44.565C114.65 44.925 113.728 45.425 112.968 46.065C112.207 46.705 111.63 47.465 111.235 48.345C110.839 49.225 110.637 50.185 110.637 51.225C110.637 52.425 110.86 53.475 111.306 54.385C111.751 55.285 112.359 56.035 113.15 56.635C113.93 57.235 114.852 57.675 115.916 57.965C116.98 58.245 118.146 58.395 119.412 58.395H131.37V42.045H132.971V37.995H127.266V54.345L127.276 54.335ZM119.595 54.335H118.409C117.933 54.335 117.467 54.265 117.031 54.125C116.585 53.985 116.2 53.785 115.856 53.525C115.521 53.265 115.248 52.945 115.055 52.565C114.852 52.185 114.761 51.735 114.761 51.215C114.761 50.695 114.873 50.265 115.085 49.885C115.298 49.505 115.592 49.175 115.947 48.905C116.312 48.635 116.717 48.425 117.183 48.285C117.649 48.135 118.115 48.065 118.592 48.065H119.605V54.325L119.595 54.335Z" fill="#123F37"/>
<path d="M217.443 47.075C216.785 46.395 216.014 45.905 215.133 45.605C214.251 45.305 213.238 45.155 212.083 45.155H205.344L209.174 37.985H204.726L200.601 45.395C200.632 46.225 200.774 46.935 201.007 47.515C201.25 48.095 201.564 48.655 201.959 49.175H212.427C212.822 49.175 213.187 49.255 213.511 49.405C213.846 49.555 214.099 49.755 214.282 50.005C214.484 50.245 214.626 50.535 214.727 50.875C214.829 51.205 214.879 51.605 214.879 52.055V54.345H140.632V37.995H136.528V58.395H218.973V52.205C218.973 51.165 218.862 50.205 218.639 49.315C218.416 48.425 218.021 47.685 217.443 47.085V47.075Z" fill="#123F37"/>
<path d="M229.796 44.025C228.529 44.025 227.364 44.185 226.29 44.515C225.216 44.835 224.293 45.315 223.513 45.925C222.733 46.545 222.115 47.295 221.669 48.175C221.223 49.065 221 50.065 221 51.185C221 52.455 221.233 53.545 221.689 54.465C222.155 55.385 222.784 56.135 223.574 56.705C224.374 57.285 225.307 57.705 226.361 57.975C227.425 58.245 228.56 58.375 229.786 58.375H229.806C229.786 58.525 229.715 58.705 229.593 58.915C229.472 59.125 229.299 59.285 229.087 59.405C228.874 59.515 228.6 59.595 228.256 59.635C227.921 59.675 227.516 59.695 227.06 59.695C226.502 59.695 225.935 59.645 225.378 59.545C224.82 59.445 224.06 59.255 223.108 58.955L223.402 63.075L224.638 63.415C224.932 63.485 225.226 63.535 225.499 63.585C225.783 63.635 226.067 63.675 226.35 63.695C226.634 63.715 226.958 63.735 227.303 63.735C228.56 63.735 229.613 63.575 230.475 63.245C231.336 62.915 232.035 62.465 232.552 61.865C233.069 61.275 233.434 60.575 233.647 59.765C233.859 58.965 233.971 58.075 233.971 57.125L233.991 44.015H229.765L229.796 44.025ZM229.917 54.335H228.783C228.256 54.335 227.769 54.265 227.313 54.125C226.857 53.985 226.472 53.785 226.148 53.525C225.824 53.265 225.57 52.935 225.378 52.555C225.185 52.165 225.094 51.705 225.094 51.185C225.094 50.715 225.195 50.285 225.388 49.905C225.58 49.525 225.854 49.195 226.188 48.925C226.523 48.655 226.918 48.445 227.374 48.295C227.83 48.145 228.296 48.065 228.772 48.065H229.907V54.325L229.917 54.335Z" fill="#123F37"/>
<path d="M4.1039 81.995C4.1039 81.055 4.32684 80.325 4.77271 79.825C5.21858 79.325 5.80632 79.065 6.52579 79.065H9.78876V75.015H7.24527C4.97538 75.015 3.20203 75.645 1.92521 76.915C0.648401 78.185 0.00999451 80.095 0.00999451 82.645V87.615H10.873V83.565H4.1039V81.985V81.995Z" fill="#2B8D79"/>
<path d="M18.9191 67.225H14.8151V87.625H18.9191V67.225Z" fill="#2B8D79"/>
<path d="M32.1838 75.195C31.5251 74.515 30.755 74.025 29.8733 73.725C28.9917 73.425 27.9784 73.275 26.8232 73.275H25.364V77.325H27.1677C27.5629 77.325 27.9277 77.395 28.252 77.545C28.5763 77.695 28.8397 77.885 29.0221 78.135C29.2147 78.375 29.3667 78.665 29.468 79.005C29.5693 79.345 29.62 79.735 29.62 80.185V83.595H20.9965V87.645H33.7139V80.335C33.7139 79.295 33.6024 78.335 33.3795 77.445C33.1566 76.555 32.7614 75.815 32.1838 75.215V75.195Z" fill="#2B8D79"/>
<path d="M43.3001 69.515H39.1961V82.995H43.3001V69.515Z" fill="#2B8D79"/>
<path d="M43.5434 65.695H40.3817C40.3817 65.595 40.4527 65.475 40.5945 65.325C40.7364 65.175 40.9999 65.105 41.3951 65.105H42.753V63.375H41.1924C40.1385 63.375 39.3076 63.635 38.6894 64.145C38.0713 64.655 37.7673 65.515 37.7673 66.715V68.155H43.5434V65.695Z" fill="#2B8D79"/>
<path d="M46.553 80.535C46.553 81.085 46.4719 81.545 46.3098 81.915C46.1477 82.285 45.9247 82.585 45.641 82.825C45.3268 83.065 44.9519 83.255 44.506 83.385C44.0602 83.515 43.5738 83.575 43.0468 83.575H35.6393L36.1358 87.625H42.3375C43.7055 87.625 44.9215 87.485 45.9754 87.215C47.0394 86.935 47.9514 86.465 48.7013 85.805C49.36 85.185 49.8464 84.395 50.1706 83.425C50.4949 82.455 50.657 81.455 50.657 80.415V69.475H52.2581V65.425H46.553V80.535Z" fill="#2B8D79"/>
<path d="M60.071 67.225H55.9669V87.625H60.071V67.225Z" fill="#2B8D79"/>
<path d="M67.9244 73.765C66.8502 74.085 65.9281 74.565 65.1478 75.175C64.3676 75.795 63.7494 76.545 63.3035 77.425C62.8577 78.315 62.6347 79.315 62.6347 80.435C62.6347 81.705 62.8678 82.795 63.3238 83.715C63.7899 84.635 64.4182 85.385 65.2086 85.955C66.0092 86.535 66.9414 86.955 67.9953 87.225C69.0593 87.495 70.1943 87.625 71.4204 87.625H71.4407C71.4204 87.775 71.3495 87.955 71.2279 88.165C71.1063 88.375 70.934 88.535 70.7212 88.655C70.5084 88.775 70.2348 88.845 69.8903 88.885C69.5559 88.925 69.1505 88.945 68.6945 88.945C68.1372 88.945 67.5697 88.895 67.0124 88.795C66.455 88.695 65.695 88.505 64.7425 88.205L65.0364 92.325L66.2726 92.665C66.5665 92.735 66.8604 92.785 67.134 92.835C67.4177 92.885 67.7014 92.925 67.9852 92.945C68.2689 92.965 68.5932 92.985 68.9377 92.985C70.1943 92.985 71.2482 92.825 72.1095 92.495C72.9708 92.165 73.67 91.715 74.1868 91.115C74.7037 90.525 75.0685 89.825 75.2813 89.015C75.4941 88.215 75.6055 87.325 75.6055 86.375L75.6258 73.265H71.4002C70.1335 73.265 68.9681 73.425 67.894 73.755L67.9244 73.765ZM71.5522 83.585H70.4172C69.8903 83.585 69.4039 83.515 68.9479 83.375C68.4919 83.235 68.1068 83.035 67.7825 82.775C67.4582 82.515 67.2049 82.185 67.0124 81.805C66.8198 81.415 66.7286 80.955 66.7286 80.435C66.7286 79.965 66.83 79.535 67.0225 79.155C67.215 78.775 67.4886 78.445 67.8231 78.175C68.1575 77.905 68.5527 77.695 69.0087 77.545C69.4647 77.395 69.9308 77.315 70.4071 77.315H71.542V83.575L71.5522 83.585Z" fill="#2B8D79"/>
<path d="M89.6809 79.645C90.1571 80.015 90.7043 80.195 91.3123 80.195C91.9204 80.195 92.4676 80.015 92.9438 79.645C93.4201 79.275 93.6633 78.745 93.6633 78.045C93.6633 77.415 93.4404 76.895 92.9844 76.505C92.5284 76.115 91.971 75.915 91.3225 75.915C90.6739 75.915 90.1065 76.115 89.6505 76.505C89.1945 76.895 88.9715 77.405 88.9715 78.045C88.9715 78.745 89.2147 79.275 89.691 79.645H89.6809Z" fill="#2B8D79"/>
<path d="M89.6809 84.815C90.1571 85.185 90.7043 85.365 91.3123 85.365C91.9204 85.365 92.4676 85.185 92.9438 84.815C93.4201 84.445 93.6633 83.915 93.6633 83.215C93.6633 82.585 93.4404 82.065 92.9844 81.675C92.5284 81.285 91.971 81.085 91.3225 81.085C90.6739 81.085 90.1065 81.285 89.6505 81.675C89.1945 82.065 88.9715 82.575 88.9715 83.215C88.9715 83.915 89.2147 84.445 89.691 84.815H89.6809Z" fill="#2B8D79"/>
<path d="M115.987 88.555C115.329 88.555 114.771 88.755 114.315 89.145C113.859 89.535 113.636 90.045 113.636 90.685C113.636 91.385 113.879 91.915 114.356 92.285C114.832 92.655 115.379 92.835 115.987 92.835C116.595 92.835 117.142 92.655 117.619 92.285C118.095 91.915 118.338 91.385 118.338 90.685C118.338 90.055 118.115 89.535 117.659 89.145C117.203 88.755 116.646 88.555 115.997 88.555H115.987Z" fill="#2B8D79"/>
<path d="M129.222 88.705C128.593 88.705 128.066 88.895 127.631 89.275C127.195 89.655 126.972 90.155 126.972 90.775C126.972 91.445 127.195 91.945 127.651 92.295C128.107 92.645 128.624 92.815 129.222 92.815C129.819 92.815 130.336 92.645 130.792 92.295C131.248 91.945 131.471 91.435 131.471 90.775C131.471 90.155 131.248 89.655 130.812 89.275C130.377 88.895 129.85 88.705 129.222 88.705Z" fill="#2B8D79"/>
<path d="M134.582 88.705C133.954 88.705 133.427 88.895 132.991 89.275C132.555 89.655 132.332 90.155 132.332 90.775C132.332 91.445 132.555 91.945 133.011 92.295C133.467 92.645 133.984 92.815 134.582 92.815C135.18 92.815 135.697 92.645 136.153 92.295C136.609 91.945 136.832 91.435 136.832 90.775C136.832 90.155 136.619 89.655 136.193 89.275C135.768 88.895 135.231 88.705 134.592 88.705H134.582Z" fill="#2B8D79"/>
<path d="M141.939 71.835C142.547 71.835 143.074 71.655 143.52 71.295C143.966 70.935 144.189 70.425 144.189 69.755C144.189 69.135 143.966 68.645 143.53 68.265C143.094 67.885 142.567 67.705 141.939 67.705C141.311 67.705 140.784 67.895 140.348 68.265C139.912 68.635 139.689 69.135 139.689 69.755C139.689 70.425 139.912 70.935 140.358 71.295C140.804 71.655 141.331 71.835 141.939 71.835Z" fill="#2B8D79"/>
<path d="M147.3 67.715C146.671 67.715 146.144 67.905 145.709 68.275C145.273 68.645 145.05 69.145 145.05 69.765C145.05 70.435 145.273 70.945 145.719 71.305C146.165 71.665 146.692 71.845 147.3 71.845C147.908 71.845 148.435 71.665 148.88 71.305C149.326 70.945 149.549 70.435 149.549 69.765C149.549 69.145 149.336 68.655 148.911 68.275C148.485 67.895 147.948 67.715 147.31 67.715H147.3Z" fill="#2B8D79"/>
<path d="M142.709 83.585H134.136V73.275H130.032V83.585H123.385C123.435 83.305 123.486 82.895 123.547 82.355C123.608 81.815 123.638 81.255 123.638 80.685C123.638 79.405 123.425 78.265 123 77.285C122.574 76.305 122.017 75.465 121.317 74.785C120.689 74.155 119.939 73.665 119.068 73.325C118.196 72.985 117.234 72.815 116.18 72.815C115.126 72.815 114.113 72.955 113.201 73.245C112.289 73.525 111.326 73.955 110.323 74.525L112.055 78.085C112.866 77.565 113.525 77.235 114.042 77.085C114.558 76.935 115.136 76.865 115.754 76.865C116.909 76.865 117.801 77.145 118.45 77.715C118.845 78.045 119.129 78.455 119.301 78.955C119.473 79.455 119.564 79.945 119.564 80.415C119.564 80.915 119.524 81.485 119.453 82.105C119.382 82.735 119.301 83.225 119.22 83.575H107.364V73.265H102.378C101.385 73.265 100.473 73.375 99.6319 73.595C98.7908 73.815 98.0713 74.155 97.4633 74.635C96.6729 75.255 96.1055 76.015 95.7508 76.915C95.3961 77.815 95.2239 78.865 95.2239 80.075V86.635H90.7246C89.9545 86.635 89.2147 86.545 88.5257 86.375C87.8366 86.205 86.9955 85.845 86.0024 85.295L84.3507 88.875C85.0904 89.285 85.7086 89.595 86.2051 89.805C86.7016 90.015 87.2184 90.185 87.7758 90.315C88.323 90.445 88.9209 90.535 89.5694 90.595C90.2078 90.655 90.9678 90.685 91.8393 90.685H99.3178V79.865C99.3178 79.475 99.3887 79.095 99.5407 78.715C99.6927 78.345 99.8852 78.055 100.118 77.865C100.362 77.665 100.635 77.535 100.949 77.455C101.263 77.375 101.618 77.335 102.013 77.335H103.27V87.645H146.813V73.295H142.709V83.605V83.585Z" fill="#2B8D79"/>
<path d="M155.335 67.225H151.231V87.625H155.335V67.225Z" fill="#2B8D79"/>
<path d="M176.129 71.835C176.737 71.835 177.264 71.655 177.71 71.295C178.156 70.935 178.379 70.425 178.379 69.755C178.379 69.135 178.166 68.645 177.74 68.265C177.315 67.885 176.778 67.705 176.139 67.705C175.501 67.705 174.984 67.895 174.548 68.265C174.113 68.635 173.89 69.135 173.89 69.755C173.89 70.425 174.113 70.935 174.559 71.295C175.004 71.655 175.531 71.835 176.139 71.835H176.129Z" fill="#2B8D79"/>
<path d="M170.769 71.835C171.377 71.835 171.904 71.655 172.349 71.295C172.795 70.935 173.018 70.425 173.018 69.755C173.018 69.135 172.795 68.645 172.36 68.265C171.924 67.885 171.397 67.705 170.769 67.705C170.14 67.705 169.613 67.895 169.178 68.265C168.742 68.635 168.519 69.135 168.519 69.755C168.519 70.425 168.742 70.935 169.188 71.295C169.634 71.655 170.161 71.835 170.769 71.835Z" fill="#2B8D79"/>
<path d="M203.216 81.075C203.216 81.935 202.993 82.615 202.557 83.095C202.121 83.585 201.463 83.825 200.571 83.825C199.679 83.825 199.041 83.585 198.554 83.105C198.068 82.625 197.805 81.875 197.774 80.855V74.495H193.67V80.855C193.67 81.405 193.579 81.855 193.407 82.195C193.234 82.535 193.001 82.815 192.718 83.025C192.434 83.235 192.11 83.385 191.755 83.465C191.4 83.545 191.056 83.585 190.731 83.585H188.533V74.495H184.428V83.585H175.633V73.275H171.529V83.585H164.83V73.275H160.726V86.875C160.726 87.655 160.615 88.195 160.392 88.495C160.169 88.795 159.774 88.945 159.196 88.945C158.953 88.945 158.71 88.925 158.467 88.895C158.223 88.865 157.808 88.775 157.22 88.625L157.514 92.695C157.879 92.805 158.223 92.885 158.548 92.925C158.872 92.965 159.217 92.985 159.561 92.985C161.294 92.985 162.571 92.535 163.402 91.625C164.233 90.715 164.689 89.385 164.77 87.625H190.701C191.684 87.625 192.626 87.425 193.528 87.035C194.43 86.645 195.109 86.205 195.565 85.715C195.717 85.975 195.981 86.265 196.376 86.585C196.771 86.905 197.197 87.155 197.653 87.355C198.109 87.555 198.575 87.685 199.061 87.755C199.548 87.825 200.034 87.865 200.531 87.865C202.79 87.865 204.472 87.265 205.577 86.075C206.692 84.885 207.239 83.065 207.239 80.625V71.555H203.165V81.055L203.216 81.075Z" fill="#2B8D79"/>
<path d="M220.139 80.535C220.139 81.085 220.058 81.545 219.895 81.915C219.733 82.285 219.51 82.585 219.227 82.825C218.913 83.065 218.538 83.255 218.092 83.385C217.646 83.515 217.159 83.575 216.633 83.575H209.225L209.722 87.625H215.923C217.291 87.625 218.507 87.485 219.561 87.215C220.625 86.935 221.537 86.465 222.287 85.805C222.946 85.185 223.432 84.395 223.756 83.425C224.081 82.455 224.243 81.455 224.243 80.415V69.475H225.844V65.425H220.139V80.535Z" fill="#2B8D79"/>
<path d="M216.886 69.515H212.782V82.995H216.886V69.515Z" fill="#2B8D79"/>
<path d="M233.657 67.225H229.553V87.625H233.657V67.225Z" fill="#2B8D79"/>
<path d="M3.23256 103.785C2.75629 103.785 2.28002 103.755 1.81388 103.695C1.34775 103.635 0.871474 103.545 0.395203 103.415V102.415C1.02348 102.545 1.56055 102.645 1.99628 102.705C2.43202 102.765 2.82723 102.785 3.17176 102.785C3.5467 102.785 3.8507 102.725 4.09391 102.615C4.33711 102.505 4.51951 102.355 4.64111 102.175C4.76271 101.995 4.82351 101.805 4.82351 101.595C4.82351 101.365 4.75258 101.175 4.62084 101.015C4.48911 100.865 4.31684 100.735 4.09391 100.635C3.8811 100.535 3.59737 100.425 3.25283 100.315L2.94883 100.225C2.45229 100.065 2.04695 99.905 1.70242 99.745C1.35788 99.585 1.08428 99.355 0.861341 99.065C0.638405 98.775 0.516804 98.385 0.516804 97.915C0.516804 97.235 0.760006 96.725 1.24641 96.385C1.73282 96.045 2.39149 95.865 3.22243 95.865C3.6683 95.865 4.10404 95.895 4.52964 95.965C4.95525 96.025 5.41125 96.135 5.88752 96.275V97.295C5.29978 97.135 4.80325 97.035 4.39791 96.965C3.98244 96.905 3.59737 96.875 3.2427 96.875C2.74616 96.875 2.38136 96.965 2.12802 97.135C1.87468 97.305 1.74295 97.565 1.74295 97.915C1.74295 98.155 1.81388 98.355 1.95575 98.505C2.09762 98.655 2.28002 98.775 2.50296 98.865C2.72589 98.955 3.0299 99.055 3.43523 99.175L3.59737 99.225C4.10404 99.365 4.51951 99.515 4.85391 99.675C5.18832 99.835 5.47205 100.065 5.69499 100.355C5.92806 100.645 6.03952 101.025 6.03952 101.495C6.03952 102.225 5.78619 102.785 5.26938 103.185C4.75258 103.575 4.07364 103.775 3.2123 103.775L3.23256 103.785Z" fill="#2B8D79"/>
<path d="M8.51208 102.285C8.51208 102.505 8.57288 102.665 8.68434 102.775C8.79581 102.885 8.94781 102.935 9.15048 102.935C9.24168 102.935 9.34302 102.935 9.46462 102.915C9.58622 102.895 9.65716 102.885 9.68756 102.865V103.695C9.56595 103.725 9.40382 103.745 9.20115 103.765C8.99848 103.785 8.83635 103.785 8.71475 103.785C8.23847 103.785 7.89394 103.665 7.69127 103.435C7.4886 103.205 7.38727 102.855 7.38727 102.385V98.965H6.62726L6.79953 98.115H7.38727V96.725L8.52221 96.435V98.115H9.74836L9.57609 98.965H8.52221V102.285H8.51208Z" fill="#2B8D79"/>
<path d="M10.5185 103.635V98.005H11.6534V99.045C11.9068 98.675 12.2108 98.405 12.5654 98.235C12.9201 98.055 13.2951 97.975 13.6801 97.985V98.865C13.4167 98.845 13.1431 98.885 12.8593 98.985C12.5756 99.085 12.3324 99.215 12.1196 99.385C11.9068 99.555 11.7446 99.725 11.6433 99.905V103.635H10.5084H10.5185Z" fill="#2B8D79"/>
<path d="M17.7538 99.805C17.7538 99.115 17.4802 98.735 16.9228 98.645C16.3655 98.555 15.6764 98.675 14.8353 98.985L14.6428 98.235C15.3116 97.955 15.9804 97.805 16.629 97.775C17.2775 97.745 17.8146 97.885 18.2503 98.205C18.6759 98.525 18.8887 99.045 18.8887 99.775V103.635H17.7538V102.895C17.2066 103.445 16.5783 103.715 15.8487 103.715C15.3623 103.715 14.9873 103.575 14.7036 103.295C14.43 103.015 14.2881 102.655 14.2881 102.215C14.2881 101.795 14.43 101.425 14.7036 101.095C14.9873 100.765 15.3825 100.515 15.9095 100.355C16.4364 100.195 17.0444 100.125 17.7436 100.155V99.805H17.7538ZM17.7538 100.815C17.2572 100.765 16.8316 100.795 16.4668 100.915C16.102 101.035 15.8284 101.205 15.6359 101.415C15.4433 101.625 15.3623 101.855 15.3623 102.075C15.3623 102.325 15.4535 102.515 15.6257 102.645C15.798 102.775 16.0311 102.845 16.3148 102.845C16.5986 102.845 16.8722 102.795 17.0951 102.685C17.318 102.575 17.541 102.425 17.7538 102.225V100.815Z" fill="#2B8D79"/>
<path d="M21.5133 102.285C21.5133 102.505 21.5741 102.665 21.6855 102.775C21.797 102.885 21.949 102.935 22.1517 102.935C22.2429 102.935 22.3442 102.935 22.4658 102.915C22.5874 102.895 22.6583 102.885 22.6887 102.865V103.695C22.5671 103.725 22.405 103.745 22.2023 103.765C21.9997 103.785 21.8375 103.785 21.7159 103.785C21.2397 103.785 20.8951 103.665 20.6925 103.435C20.4898 103.205 20.3885 102.855 20.3885 102.385V98.965H19.6284L19.8007 98.115H20.3885V96.725L21.5234 96.435V98.115H22.7495L22.5773 98.965H21.5234V102.285H21.5133Z" fill="#2B8D79"/>
<path d="M24.6546 100.885C24.6749 101.515 24.8472 101.995 25.1512 102.325C25.4653 102.655 25.9416 102.815 26.6003 102.815C26.9043 102.815 27.1779 102.795 27.4109 102.755C27.6541 102.715 27.8973 102.655 28.1405 102.565L28.4243 103.345C28.0189 103.505 27.6744 103.605 27.3805 103.645C27.0867 103.685 26.7523 103.715 26.3976 103.715C25.4248 103.715 24.6952 103.455 24.1986 102.925C23.7021 102.395 23.4589 101.655 23.4589 100.705C23.4589 100.085 23.5602 99.545 23.773 99.085C23.9858 98.625 24.2898 98.275 24.6952 98.025C25.1005 97.775 25.5666 97.655 26.1139 97.655C26.6611 97.655 27.1171 97.795 27.4717 98.065C27.8365 98.335 28.0899 98.715 28.2419 99.205C28.3939 99.695 28.4344 100.255 28.3533 100.885H24.6445H24.6546ZM27.3805 100.195C27.3805 99.855 27.3299 99.555 27.2285 99.295C27.1272 99.025 26.9853 98.825 26.7928 98.675C26.6003 98.525 26.3773 98.455 26.1037 98.455C25.6781 98.455 25.3437 98.615 25.0904 98.925C24.837 99.235 24.6952 99.655 24.6648 100.195H27.3907H27.3805Z" fill="#2B8D79"/>
<path d="M30.2584 104.725C30.7854 104.935 31.3022 105.035 31.7987 105.035C32.2952 105.035 32.7006 104.925 33.0147 104.695C33.3289 104.475 33.4809 104.145 33.4809 103.725V103.045H33.491C33.2883 103.255 33.0451 103.415 32.7715 103.525C32.4979 103.635 32.2142 103.685 31.9304 103.685C31.4339 103.685 31.0184 103.565 30.684 103.315C30.3395 103.065 30.0862 102.725 29.9038 102.285C29.7214 101.845 29.6403 101.335 29.6403 100.755C29.6403 99.855 29.8328 99.145 30.2078 98.615C30.5827 98.085 31.14 97.815 31.8696 97.815C32.1736 97.815 32.4574 97.875 32.731 97.995C33.0046 98.115 33.2478 98.275 33.4707 98.485H33.491V97.925H34.6259V103.755C34.6259 104.415 34.403 104.935 33.9673 105.315C33.5315 105.685 32.9539 105.895 32.2547 105.935C31.5555 105.975 30.8259 105.845 30.0862 105.555L30.2686 104.735L30.2584 104.725ZM32.2547 102.765C32.5081 102.765 32.7411 102.715 32.9539 102.635C33.1667 102.545 33.339 102.445 33.4809 102.325V99.285C33.339 99.165 33.1566 99.065 32.9539 98.975C32.7411 98.885 32.5182 98.845 32.2547 98.845C31.7987 98.845 31.444 99.015 31.2008 99.355C30.9475 99.695 30.8259 100.165 30.8259 100.765C30.8259 101.405 30.9475 101.905 31.2008 102.255C31.4542 102.605 31.7987 102.785 32.2547 102.785V102.765Z" fill="#2B8D79"/>
<path d="M36.4196 97.435C36.2473 97.435 36.0953 97.375 35.9838 97.255C35.8622 97.135 35.8116 96.995 35.8116 96.825C35.8116 96.655 35.8724 96.515 35.9838 96.395C36.1054 96.275 36.2473 96.215 36.4196 96.215C36.5918 96.215 36.7337 96.275 36.8553 96.395C36.9769 96.515 37.0377 96.655 37.0377 96.825C37.0377 96.995 36.9769 97.135 36.8553 97.255C36.7337 97.375 36.5918 97.435 36.4196 97.435ZM36.9972 103.635H35.8622V98.115H36.9972V103.635Z" fill="#2B8D79"/>
<path d="M42.4793 103.405C42.1652 103.525 41.8815 103.605 41.6383 103.655C41.3951 103.695 41.1316 103.725 40.8479 103.725C40.2703 103.725 39.7737 103.605 39.3481 103.365C38.9225 103.125 38.5982 102.785 38.3652 102.325C38.1422 101.875 38.0206 101.335 38.0206 100.705C38.0206 100.075 38.1321 99.535 38.3652 99.085C38.5982 98.635 38.9225 98.285 39.3481 98.045C39.7737 97.805 40.2804 97.685 40.8479 97.685C41.1012 97.685 41.3748 97.715 41.6383 97.765C41.9119 97.815 42.1652 97.885 42.4084 97.955L42.1044 98.785H42.0841C41.8409 98.705 41.6383 98.655 41.4863 98.635C41.3241 98.605 41.1519 98.595 40.9796 98.595C40.4223 98.595 39.9764 98.775 39.6622 99.145C39.3481 99.515 39.186 100.035 39.186 100.705C39.186 101.375 39.3481 101.885 39.6622 102.255C39.9764 102.625 40.4223 102.805 40.9796 102.805C41.3444 102.805 41.7599 102.715 42.226 102.535L42.4895 103.395L42.4793 103.405Z" fill="#2B8D79"/>
<path d="M46.9583 103.675H45.722V95.995H48.9546C49.4512 95.995 49.8768 96.095 50.2618 96.285C50.6368 96.475 50.9306 96.755 51.1434 97.105C51.3562 97.455 51.4576 97.865 51.4576 98.335C51.4576 98.805 51.3562 99.235 51.1536 99.585C50.9509 99.935 50.657 100.205 50.2821 100.395C49.9072 100.585 49.4714 100.675 48.9647 100.675H46.9685V103.675H46.9583ZM48.8431 99.655C49.2789 99.655 49.6234 99.545 49.8565 99.325C50.0997 99.105 50.2112 98.775 50.2112 98.325C50.2112 97.875 50.0896 97.575 49.8464 97.355C49.6032 97.135 49.2687 97.015 48.8431 97.015H46.9583V99.645H48.8431V99.655Z" fill="#2B8D79"/>
<path d="M52.785 103.635V95.985H53.92V103.635H52.785Z" fill="#2B8D79"/>
<path d="M58.7942 99.805C58.7942 99.115 58.5206 98.735 57.9632 98.645C57.4059 98.555 56.7168 98.675 55.8758 98.985L55.6832 98.235C56.352 97.955 57.0208 97.805 57.6694 97.775C58.3179 97.745 58.855 97.885 59.2907 98.205C59.7163 98.525 59.9291 99.045 59.9291 99.775V103.635H58.7942V102.895C58.247 103.445 57.6187 103.715 56.8891 103.715C56.4027 103.715 56.0278 103.575 55.744 103.295C55.4704 103.015 55.3286 102.655 55.3286 102.215C55.3286 101.795 55.4704 101.425 55.744 101.095C56.0278 100.765 56.423 100.515 56.9499 100.355C57.4768 100.195 58.0848 100.125 58.7841 100.155V99.805H58.7942ZM58.7942 100.815C58.2976 100.765 57.872 100.795 57.5072 100.915C57.1424 101.035 56.8688 101.205 56.6763 101.415C56.4838 101.625 56.4027 101.855 56.4027 102.075C56.4027 102.325 56.4939 102.515 56.6662 102.645C56.8384 102.775 57.0715 102.845 57.3552 102.845C57.639 102.845 57.9126 102.795 58.1355 102.685C58.3584 102.575 58.5814 102.425 58.7942 102.225V100.815Z" fill="#2B8D79"/>
<path d="M61.1755 103.635V98.005H62.3105V98.595C62.6652 98.345 62.9894 98.165 63.2934 98.055C63.5873 97.945 63.9217 97.885 64.2764 97.885C64.8438 97.885 65.2694 98.045 65.5633 98.355C65.847 98.665 65.999 99.115 65.999 99.705V103.625H64.8641V100.075C64.8641 99.345 64.5196 98.975 63.8204 98.975C63.5366 98.975 63.2732 99.035 63.0198 99.155C62.7665 99.275 62.5334 99.425 62.3206 99.585V103.615H61.1857L61.1755 103.635Z" fill="#2B8D79"/>
<path d="M67.2353 103.635V98.005H68.3703V98.595C68.7249 98.345 69.0492 98.165 69.3532 98.055C69.6471 97.945 69.9815 97.885 70.3362 97.885C70.9036 97.885 71.3292 98.045 71.6231 98.355C71.9068 98.665 72.0588 99.115 72.0588 99.705V103.625H70.9239V100.075C70.9239 99.345 70.5794 98.975 69.8801 98.975C69.5964 98.975 69.3329 99.035 69.0796 99.155C68.8263 99.275 68.5932 99.425 68.3804 99.585V103.615H67.2455L67.2353 103.635Z" fill="#2B8D79"/>
<path d="M73.8525 97.435C73.6802 97.435 73.5282 97.375 73.4167 97.255C73.2951 97.135 73.2444 96.995 73.2444 96.825C73.2444 96.655 73.3052 96.515 73.4167 96.395C73.5383 96.275 73.6802 96.215 73.8525 96.215C74.0247 96.215 74.1666 96.275 74.2882 96.395C74.4098 96.515 74.4706 96.655 74.4706 96.825C74.4706 96.995 74.4098 97.135 74.2882 97.255C74.1666 97.375 74.0247 97.435 73.8525 97.435ZM74.4301 103.635H73.2951V98.115H74.4301V103.635Z" fill="#2B8D79"/>
<path d="M76.0007 103.635V98.005H77.1357V98.595C77.4903 98.345 77.8146 98.165 78.1186 98.055C78.4125 97.945 78.7469 97.885 79.1016 97.885C79.669 97.885 80.0946 98.045 80.3885 98.355C80.6722 98.665 80.8242 99.115 80.8242 99.705V103.625H79.6893V100.075C79.6893 99.345 79.3448 98.975 78.6456 98.975C78.3618 98.975 78.0984 99.035 77.845 99.155C77.5917 99.275 77.3586 99.425 77.1458 99.585V103.615H76.0109L76.0007 103.635Z" fill="#2B8D79"/>
<path d="M82.5672 104.725C83.0941 104.935 83.6109 105.035 84.1075 105.035C84.604 105.035 85.0094 104.925 85.3235 104.695C85.6376 104.475 85.7896 104.145 85.7896 103.725V103.045H85.7998C85.5971 103.255 85.3539 103.415 85.0803 103.525C84.8067 103.635 84.523 103.685 84.2392 103.685C83.7427 103.685 83.3272 103.565 82.9928 103.315C82.6483 103.065 82.3949 102.725 82.2125 102.285C82.0301 101.845 81.9491 101.335 81.9491 100.755C81.9491 99.855 82.1416 99.145 82.5165 98.615C82.8915 98.085 83.4488 97.815 84.1784 97.815C84.4824 97.815 84.7662 97.875 85.0398 97.995C85.3134 98.115 85.5566 98.275 85.7795 98.485H85.7998V97.925H86.9347V103.755C86.9347 104.415 86.7118 104.935 86.276 105.315C85.8403 105.685 85.2627 105.895 84.5635 105.935C83.8643 105.975 83.1347 105.845 82.3949 105.555L82.5773 104.735L82.5672 104.725ZM84.5635 102.765C84.8168 102.765 85.0499 102.715 85.2627 102.635C85.4755 102.545 85.6478 102.445 85.7896 102.325V99.285C85.6478 99.165 85.4654 99.065 85.2627 98.975C85.0499 98.885 84.827 98.845 84.5635 98.845C84.1075 98.845 83.7528 99.015 83.5096 99.355C83.2563 99.695 83.1347 100.165 83.1347 100.765C83.1347 101.405 83.2563 101.905 83.5096 102.255C83.763 102.605 84.1075 102.785 84.5635 102.785V102.765Z" fill="#2B8D79"/>
<path d="M93.6532 99.805C93.6532 99.115 93.3796 98.735 92.8223 98.645C92.2649 98.555 91.5758 98.675 90.7348 98.985L90.5422 98.235C91.211 97.955 91.8798 97.805 92.5284 97.775C93.1769 97.745 93.714 97.885 94.1497 98.205C94.5753 98.525 94.7881 99.045 94.7881 99.775V103.635H93.6532V102.895C93.106 103.445 92.4777 103.715 91.7481 103.715C91.2617 103.715 90.8868 103.575 90.603 103.295C90.3294 103.015 90.1876 102.655 90.1876 102.215C90.1876 101.795 90.3294 101.425 90.603 101.095C90.8868 100.765 91.282 100.515 91.8089 100.355C92.3358 100.195 92.9439 100.125 93.6431 100.155V99.805H93.6532ZM93.6532 100.815C93.1567 100.765 92.7311 100.795 92.3663 100.915C92.0014 101.035 91.7278 101.205 91.5353 101.415C91.3428 101.625 91.2617 101.855 91.2617 102.075C91.2617 102.325 91.3529 102.515 91.5252 102.645C91.6974 102.775 91.9305 102.845 92.2142 102.845C92.498 102.845 92.7716 102.795 92.9945 102.685C93.2175 102.575 93.4404 102.425 93.6532 102.225V100.815Z" fill="#2B8D79"/>
<path d="M96.0345 103.635V98.005H97.1695V98.595C97.5242 98.345 97.8484 98.165 98.1524 98.055C98.4463 97.945 98.7807 97.885 99.1354 97.885C99.7029 97.885 100.128 98.045 100.422 98.355C100.706 98.665 100.858 99.115 100.858 99.705V103.625H99.7231V100.075C99.7231 99.345 99.3786 98.975 98.6794 98.975C98.3956 98.975 98.1322 99.035 97.8788 99.155C97.6255 99.275 97.3924 99.425 97.1796 99.585V103.615H96.0447L96.0345 103.635Z" fill="#2B8D79"/>
<path d="M105.844 103.045C105.631 103.255 105.378 103.415 105.094 103.535C104.81 103.655 104.506 103.715 104.212 103.715C103.483 103.715 102.935 103.455 102.55 102.915C102.165 102.375 101.983 101.675 101.983 100.775C101.983 100.195 102.074 99.675 102.246 99.235C102.419 98.795 102.682 98.445 103.027 98.195C103.371 97.945 103.787 97.825 104.283 97.825C104.567 97.825 104.851 97.885 105.124 97.995C105.398 98.105 105.641 98.265 105.844 98.475H105.834V95.925H106.968V103.635H105.844V103.045ZM105.834 99.205C105.692 99.095 105.509 98.995 105.307 98.905C105.094 98.815 104.871 98.775 104.607 98.775C104.151 98.775 103.797 98.955 103.554 99.305C103.3 99.655 103.179 100.155 103.179 100.795C103.179 101.435 103.3 101.935 103.554 102.285C103.807 102.635 104.151 102.815 104.607 102.815C104.861 102.815 105.094 102.775 105.307 102.685C105.519 102.595 105.692 102.495 105.834 102.385V99.225V99.205Z" fill="#2B8D79"/>
<path d="M111.691 103.675H110.454V95.995H113.687C114.184 95.995 114.609 96.095 114.994 96.285C115.369 96.475 115.663 96.755 115.876 97.105C116.089 97.455 116.19 97.865 116.19 98.335C116.19 98.805 116.089 99.235 115.886 99.585C115.683 99.935 115.389 100.205 115.014 100.395C114.64 100.585 114.204 100.675 113.697 100.675H111.701V103.675H111.691ZM113.576 99.655C114.011 99.655 114.356 99.545 114.589 99.325C114.832 99.105 114.944 98.775 114.944 98.325C114.944 97.875 114.822 97.575 114.579 97.355C114.336 97.135 114.001 97.015 113.576 97.015H111.691V99.645H113.576V99.655Z" fill="#2B8D79"/>
<path d="M118.399 100.885C118.419 101.515 118.592 101.995 118.896 102.325C119.21 102.655 119.686 102.815 120.345 102.815C120.649 102.815 120.922 102.795 121.155 102.755C121.399 102.715 121.642 102.655 121.885 102.565L122.169 103.345C121.763 103.505 121.419 103.605 121.125 103.645C120.831 103.685 120.497 103.715 120.142 103.715C119.169 103.715 118.44 103.455 117.943 102.925C117.446 102.395 117.203 101.655 117.203 100.705C117.203 100.085 117.305 99.545 117.517 99.085C117.73 98.625 118.034 98.275 118.44 98.025C118.845 97.775 119.311 97.655 119.858 97.655C120.405 97.655 120.861 97.795 121.216 98.065C121.581 98.335 121.834 98.715 121.986 99.205C122.138 99.695 122.179 100.255 122.098 100.885H118.389H118.399ZM121.125 100.195C121.125 99.855 121.074 99.555 120.973 99.295C120.872 99.025 120.73 98.825 120.537 98.675C120.345 98.525 120.122 98.455 119.848 98.455C119.422 98.455 119.088 98.615 118.835 98.925C118.581 99.235 118.44 99.655 118.409 100.195H121.135H121.125Z" fill="#2B8D79"/>
<path d="M123.496 103.635V98.005H124.631V99.045C124.884 98.675 125.188 98.405 125.543 98.235C125.898 98.055 126.273 97.975 126.658 97.985V98.865C126.394 98.845 126.121 98.885 125.837 98.985C125.553 99.085 125.31 99.215 125.097 99.385C124.884 99.555 124.722 99.725 124.621 99.905V103.635H123.486H123.496Z" fill="#2B8D79"/>
<path d="M130.468 98.115L130.296 98.975H129.009V103.665H127.874V98.975H126.931L127.144 98.115H127.874V97.425C127.874 96.935 127.985 96.535 128.208 96.235C128.431 95.935 128.745 95.755 129.151 95.705C129.556 95.655 130.022 95.745 130.539 95.965L130.438 96.705C129.941 96.495 129.576 96.465 129.343 96.625C129.11 96.785 128.999 97.065 128.999 97.485V98.125H130.448L130.468 98.115Z" fill="#2B8D79"/>
<path d="M133.447 103.715C132.88 103.715 132.403 103.585 132.008 103.345C131.613 103.095 131.319 102.745 131.127 102.305C130.934 101.865 130.833 101.355 130.833 100.785C130.833 100.215 130.934 99.705 131.127 99.255C131.319 98.815 131.613 98.465 132.008 98.215C132.403 97.965 132.88 97.845 133.447 97.845C134.015 97.845 134.491 97.975 134.886 98.215C135.271 98.465 135.565 98.815 135.768 99.255C135.97 99.695 136.062 100.205 136.062 100.785C136.062 101.365 135.96 101.865 135.768 102.305C135.575 102.745 135.281 103.095 134.886 103.345C134.501 103.595 134.015 103.715 133.447 103.715ZM133.447 98.665C132.93 98.665 132.545 98.865 132.282 99.255C132.018 99.655 131.887 100.155 131.887 100.775C131.887 101.395 132.018 101.905 132.282 102.295C132.545 102.695 132.93 102.885 133.447 102.885C133.964 102.885 134.339 102.685 134.592 102.295C134.846 101.905 134.977 101.395 134.977 100.765C134.977 100.135 134.846 99.625 134.592 99.235C134.339 98.845 133.954 98.645 133.447 98.645V98.665Z" fill="#2B8D79"/>
<path d="M137.197 103.635V98.005H138.331V99.045C138.585 98.675 138.889 98.405 139.243 98.235C139.598 98.055 139.973 97.975 140.358 97.985V98.865C140.095 98.845 139.821 98.885 139.537 98.985C139.254 99.085 139.01 99.215 138.798 99.385C138.585 99.555 138.423 99.725 138.321 99.905V103.635H137.186H137.197Z" fill="#2B8D79"/>
<path d="M142.182 98.805C142.476 98.515 142.78 98.285 143.074 98.135C143.368 97.985 143.712 97.895 144.087 97.895C144.888 97.895 145.405 98.215 145.638 98.855C145.992 98.515 146.337 98.275 146.661 98.125C146.985 97.975 147.33 97.895 147.705 97.895C148.272 97.895 148.698 98.055 148.992 98.365C149.286 98.675 149.428 99.125 149.428 99.715V103.635H148.283V100.085C148.283 99.355 147.938 98.985 147.239 98.985C146.773 98.985 146.286 99.195 145.78 99.625C145.8 99.735 145.81 99.895 145.81 100.085V103.635H144.675V100.085C144.675 99.355 144.32 98.985 143.621 98.985C143.348 98.985 143.094 99.045 142.871 99.165C142.648 99.285 142.415 99.425 142.192 99.605V103.635H141.057V98.005H142.192V98.805H142.182Z" fill="#2B8D79"/>
<path d="M154.048 99.805C154.048 99.115 153.775 98.735 153.218 98.645C152.66 98.555 151.971 98.675 151.13 98.985L150.937 98.235C151.606 97.955 152.275 97.805 152.924 97.775C153.572 97.745 154.109 97.885 154.545 98.205C154.971 98.525 155.183 99.045 155.183 99.775V103.635H154.048V102.895C153.501 103.445 152.873 103.715 152.143 103.715C151.657 103.715 151.282 103.575 150.998 103.295C150.725 103.015 150.583 102.655 150.583 102.215C150.583 101.795 150.725 101.425 150.998 101.095C151.282 100.765 151.677 100.515 152.204 100.355C152.731 100.195 153.339 100.125 154.038 100.155V99.805H154.048ZM154.048 100.815C153.552 100.765 153.126 100.795 152.762 100.915C152.397 101.035 152.123 101.205 151.931 101.415C151.738 101.625 151.657 101.855 151.657 102.075C151.657 102.325 151.748 102.515 151.92 102.645C152.093 102.775 152.326 102.845 152.61 102.845C152.893 102.845 153.167 102.795 153.39 102.685C153.613 102.575 153.836 102.425 154.048 102.225V100.815Z" fill="#2B8D79"/>
<path d="M156.43 103.635V98.005H157.565V98.595C157.919 98.345 158.244 98.165 158.548 98.055C158.842 97.945 159.176 97.885 159.531 97.885C160.098 97.885 160.524 98.045 160.818 98.355C161.101 98.665 161.253 99.115 161.253 99.705V103.625H160.118V100.075C160.118 99.345 159.774 98.975 159.075 98.975C158.791 98.975 158.527 99.035 158.274 99.155C158.021 99.275 157.788 99.425 157.575 99.585V103.615H156.44L156.43 103.635Z" fill="#2B8D79"/>
<path d="M166.806 103.405C166.492 103.525 166.209 103.605 165.965 103.655C165.722 103.695 165.459 103.725 165.175 103.725C164.597 103.725 164.101 103.605 163.675 103.365C163.25 103.125 162.925 102.785 162.692 102.325C162.469 101.875 162.348 101.335 162.348 100.705C162.348 100.075 162.459 99.535 162.692 99.085C162.925 98.635 163.25 98.285 163.675 98.045C164.101 97.805 164.607 97.685 165.175 97.685C165.428 97.685 165.702 97.715 165.965 97.765C166.239 97.815 166.492 97.885 166.735 97.955L166.431 98.785H166.411C166.168 98.705 165.965 98.655 165.813 98.635C165.651 98.605 165.479 98.595 165.307 98.595C164.749 98.595 164.303 98.775 163.989 99.145C163.675 99.515 163.513 100.035 163.513 100.705C163.513 101.375 163.675 101.885 163.989 102.255C164.303 102.625 164.749 102.805 165.307 102.805C165.671 102.805 166.087 102.715 166.553 102.535L166.817 103.395L166.806 103.405Z" fill="#2B8D79"/>
<path d="M168.934 100.885C168.955 101.515 169.127 101.995 169.431 102.325C169.745 102.655 170.221 102.815 170.88 102.815C171.184 102.815 171.458 102.795 171.691 102.755C171.934 102.715 172.177 102.655 172.42 102.565L172.704 103.345C172.299 103.505 171.954 103.605 171.66 103.645C171.366 103.685 171.032 103.715 170.677 103.715C169.705 103.715 168.975 103.455 168.478 102.925C167.982 102.395 167.739 101.655 167.739 100.705C167.739 100.085 167.84 99.545 168.053 99.085C168.266 98.625 168.57 98.275 168.975 98.025C169.38 97.775 169.846 97.655 170.394 97.655C170.941 97.655 171.397 97.795 171.752 98.065C172.116 98.335 172.37 98.715 172.522 99.205C172.674 99.695 172.714 100.255 172.633 100.885H168.924H168.934ZM171.66 100.195C171.66 99.855 171.61 99.555 171.508 99.295C171.407 99.025 171.265 98.825 171.073 98.675C170.88 98.525 170.657 98.455 170.384 98.455C169.958 98.455 169.624 98.615 169.37 98.925C169.117 99.235 168.975 99.655 168.945 100.195H171.67H171.66Z" fill="#2B8D79"/>
<path d="M176.271 95.995H179.098C180.213 95.995 181.044 96.325 181.601 96.995C182.159 97.655 182.432 98.595 182.432 99.805C182.432 101.015 182.159 101.995 181.601 102.665C181.044 103.345 180.213 103.675 179.098 103.675H176.271V95.995ZM179.088 102.645C179.787 102.645 180.304 102.405 180.659 101.935C181.014 101.465 181.186 100.755 181.186 99.795C181.186 98.835 181.014 98.155 180.659 97.705C180.314 97.245 179.787 97.025 179.078 97.025H177.487V102.645H179.078H179.088Z" fill="#2B8D79"/>
<path d="M184.763 100.885C184.783 101.515 184.955 101.995 185.259 102.325C185.574 102.655 186.05 102.815 186.709 102.815C187.013 102.815 187.286 102.795 187.519 102.755C187.762 102.715 188.006 102.655 188.249 102.565L188.533 103.345C188.127 103.505 187.783 103.605 187.489 103.645C187.195 103.685 186.861 103.715 186.506 103.715C185.533 103.715 184.803 103.455 184.307 102.925C183.81 102.395 183.567 101.655 183.567 100.705C183.567 100.085 183.668 99.545 183.881 99.085C184.094 98.625 184.398 98.275 184.803 98.025C185.209 97.775 185.675 97.655 186.222 97.655C186.769 97.655 187.225 97.795 187.58 98.065C187.945 98.335 188.198 98.715 188.35 99.205C188.502 99.695 188.543 100.255 188.462 100.885H184.753H184.763ZM187.489 100.195C187.489 99.855 187.438 99.555 187.337 99.295C187.235 99.025 187.094 98.825 186.901 98.675C186.709 98.525 186.486 98.455 186.212 98.455C185.786 98.455 185.452 98.615 185.199 98.925C184.945 99.235 184.803 99.655 184.773 100.195H187.499H187.489Z" fill="#2B8D79"/>
<path d="M190.985 98.495C191.198 98.285 191.451 98.125 191.735 98.005C192.018 97.885 192.312 97.825 192.616 97.825C193.346 97.825 193.893 98.085 194.278 98.625C194.663 99.165 194.846 99.865 194.846 100.765C194.846 101.345 194.754 101.865 194.582 102.305C194.41 102.745 194.146 103.095 193.802 103.345C193.457 103.595 193.042 103.715 192.555 103.715C192.272 103.715 191.988 103.655 191.714 103.545C191.441 103.435 191.198 103.275 190.995 103.065H191.005V105.615H189.87V97.945H190.995V98.505L190.985 98.495ZM190.995 102.345C191.137 102.465 191.319 102.565 191.522 102.655C191.735 102.745 191.958 102.785 192.211 102.785C192.677 102.785 193.032 102.605 193.275 102.255C193.518 101.905 193.65 101.405 193.65 100.755C193.65 100.165 193.528 99.705 193.275 99.365C193.022 99.025 192.667 98.855 192.211 98.855C191.958 98.855 191.735 98.895 191.522 98.985C191.309 99.075 191.137 99.175 190.995 99.295V102.335V102.345Z" fill="#2B8D79"/>
<path d="M199.345 99.805C199.345 99.115 199.071 98.735 198.514 98.645C197.957 98.555 197.268 98.675 196.426 98.985L196.234 98.235C196.903 97.955 197.572 97.805 198.22 97.775C198.869 97.745 199.406 97.885 199.841 98.205C200.267 98.525 200.48 99.045 200.48 99.775V103.635H199.345V102.895C198.798 103.445 198.169 103.715 197.44 103.715C196.953 103.715 196.578 103.575 196.295 103.295C196.021 103.015 195.879 102.655 195.879 102.215C195.879 101.795 196.021 101.425 196.295 101.095C196.578 100.765 196.974 100.515 197.501 100.355C198.028 100.195 198.636 100.125 199.335 100.155V99.805H199.345ZM199.345 100.815C198.848 100.765 198.423 100.795 198.058 100.915C197.693 101.035 197.42 101.205 197.227 101.415C197.034 101.625 196.953 101.855 196.953 102.075C196.953 102.325 197.045 102.515 197.217 102.645C197.389 102.775 197.622 102.845 197.906 102.845C198.19 102.845 198.463 102.795 198.686 102.685C198.909 102.575 199.132 102.425 199.345 102.225V100.815Z" fill="#2B8D79"/>
<path d="M201.726 103.635V98.005H202.861V99.045C203.115 98.675 203.419 98.405 203.773 98.235C204.128 98.055 204.503 97.975 204.888 97.985V98.865C204.624 98.845 204.351 98.885 204.067 98.985C203.783 99.085 203.54 99.215 203.327 99.385C203.115 99.555 202.952 99.725 202.851 99.905V103.635H201.716H201.726Z" fill="#2B8D79"/>
<path d="M206.965 102.285C206.965 102.505 207.026 102.665 207.137 102.775C207.249 102.885 207.401 102.935 207.604 102.935C207.695 102.935 207.796 102.935 207.918 102.915C208.039 102.895 208.11 102.885 208.141 102.865V103.695C208.019 103.725 207.857 103.745 207.654 103.765C207.452 103.785 207.289 103.785 207.168 103.785C206.692 103.785 206.347 103.665 206.144 103.435C205.942 103.205 205.84 102.855 205.84 102.385V98.965H205.08L205.253 98.115H205.84V96.725L206.975 96.435V98.115H208.202L208.029 98.965H206.975V102.285H206.965Z" fill="#2B8D79"/>
<path d="M210.096 98.805C210.39 98.515 210.694 98.285 210.988 98.135C211.282 97.985 211.627 97.895 212.002 97.895C212.802 97.895 213.319 98.215 213.552 98.855C213.907 98.515 214.251 98.275 214.575 98.125C214.9 97.975 215.244 97.895 215.619 97.895C216.187 97.895 216.612 98.055 216.906 98.365C217.2 98.675 217.342 99.125 217.342 99.715V103.635H216.197V100.085C216.197 99.355 215.852 98.985 215.153 98.985C214.687 98.985 214.201 99.195 213.694 99.625C213.714 99.735 213.724 99.895 213.724 100.085V103.635H212.589V100.085C212.589 99.355 212.235 98.985 211.535 98.985C211.262 98.985 211.008 99.045 210.786 99.165C210.563 99.285 210.33 99.425 210.107 99.605V103.635H208.972V98.005H210.107V98.805H210.096Z" fill="#2B8D79"/>
<path d="M219.733 100.885C219.754 101.515 219.926 101.995 220.23 102.325C220.544 102.655 221.02 102.815 221.679 102.815C221.983 102.815 222.257 102.795 222.49 102.755C222.733 102.715 222.976 102.655 223.219 102.565L223.503 103.345C223.098 103.505 222.753 103.605 222.459 103.645C222.165 103.685 221.831 103.715 221.476 103.715C220.503 103.715 219.774 103.455 219.277 102.925C218.781 102.395 218.538 101.655 218.538 100.705C218.538 100.085 218.639 99.545 218.852 99.085C219.065 98.625 219.369 98.275 219.774 98.025C220.179 97.775 220.645 97.655 221.193 97.655C221.74 97.655 222.196 97.795 222.55 98.065C222.915 98.335 223.169 98.715 223.321 99.205C223.473 99.695 223.513 100.255 223.432 100.885H219.723H219.733ZM222.459 100.195C222.459 99.855 222.409 99.555 222.307 99.295C222.206 99.025 222.064 98.825 221.871 98.675C221.679 98.525 221.456 98.455 221.182 98.455C220.757 98.455 220.422 98.615 220.169 98.925C219.916 99.235 219.774 99.655 219.743 100.195H222.469H222.459Z" fill="#2B8D79"/>
<path d="M224.83 103.635V98.005H225.965V98.595C226.32 98.345 226.644 98.165 226.948 98.055C227.242 97.945 227.577 97.885 227.931 97.885C228.499 97.885 228.924 98.045 229.218 98.355C229.502 98.665 229.654 99.115 229.654 99.705V103.625H228.519V100.075C228.519 99.345 228.174 98.975 227.475 98.975C227.192 98.975 226.928 99.035 226.675 99.155C226.421 99.275 226.188 99.425 225.976 99.585V103.615H224.841L224.83 103.635Z" fill="#2B8D79"/>
<path d="M232.268 102.285C232.268 102.505 232.329 102.665 232.441 102.775C232.552 102.885 232.704 102.935 232.907 102.935C232.998 102.935 233.099 102.935 233.221 102.915C233.343 102.895 233.413 102.885 233.444 102.865V103.695C233.322 103.725 233.16 103.745 232.957 103.765C232.755 103.785 232.593 103.785 232.471 103.785C231.995 103.785 231.65 103.665 231.448 103.435C231.245 103.205 231.144 102.855 231.144 102.385V98.965H230.384L230.556 98.115H231.144V96.725L232.279 96.435V98.115H233.505L233.332 98.965H232.279V102.285H232.268Z" fill="#2B8D79"/>
<path d="M267.229 57.585L244.195 103.985V65.685C244.195 61.215 248.127 57.585 252.971 57.585H267.229Z" fill="#125655"/>
<path d="M285.398 19.245V72.055L269.266 101.895C269.266 101.895 269.255 101.925 269.245 101.935C268.678 103.145 267.371 103.985 265.861 103.985H244.195L267.229 57.585L285.398 19.245Z" fill="#17968C"/>
<path d="M286.259 19.245L285.398 20.975V19.245H286.259Z" fill="#125655"/>
<path d="M310.762 20.975V38.535L285.398 103.985V20.975L286.259 19.245H308.887C309.921 19.245 310.762 20.025 310.762 20.975Z" fill="#125655"/>
<path d="M326.611 0.0650024V63.075L310.63 101.855C310.6 101.925 310.569 101.995 310.539 102.075C310.073 103.185 308.887 103.985 307.519 103.985H285.398L310.762 38.535L326.611 0.0650024Z" fill="#17968C"/>
<path d="M351.964 42.415L342.865 50.245L351.701 53.435L327.644 101.885C327.553 102.065 327.502 102.245 327.502 102.415L326.611 63.075V0.0650024H351.012C351.539 0.0650024 351.964 0.455002 351.964 0.945002V42.415Z" fill="#125655"/>
<path d="M351.701 53.435L327.502 102.415C327.502 102.235 327.553 102.055 327.644 101.885L351.701 53.435Z" fill="#125655"/>
<path d="M382 64.375L373.204 61.195L352.704 102.595C352.289 103.435 351.377 103.985 350.384 103.985H329.103C328.151 103.985 327.452 103.235 327.502 102.425C327.502 102.245 327.553 102.065 327.644 101.895L351.701 53.445L351.964 53.535V52.895L351.701 53.435L342.865 50.245L351.964 42.415L378.97 19.155L380.105 36.135L380.764 45.965L382 64.385V64.375Z" fill="#17968C"/>
<path d="M351.701 53.435L351.964 53.535V52.895L351.701 53.435Z" fill="#17968C"/>
</g>
<defs>
<clipPath id="clip0_446_39128">
<rect width="382" height="105.87" fill="white" transform="translate(0 0.0650024)"/>
</clipPath>
</defs>
</svg>
