<svg width="215" height="64" viewBox="0 0 215 64" fill="none" xmlns="http://www.w3.org/2000/svg">
<g clip-path="url(#clip0_180_1222)">
<path d="M18.0569 35.9021C17.7032 35.9021 17.4067 36.017 17.1614 36.2467C16.9162 36.4764 16.7907 36.7786 16.7907 37.1534C16.7907 37.5585 16.9162 37.8607 17.1728 38.0723C17.4295 38.2839 17.7204 38.3867 18.0569 38.3867C18.3934 38.3867 18.6842 38.2839 18.9409 38.0723C19.1975 37.8607 19.323 37.5524 19.323 37.1534C19.323 36.7786 19.2032 36.4764 18.9637 36.2467C18.7242 36.017 18.4219 35.9021 18.0626 35.9021H18.0569Z" fill="white"/>
<path d="M15.0398 35.9021C14.6862 35.9021 14.3896 36.017 14.1443 36.2467C13.8991 36.4764 13.7736 36.7786 13.7736 37.1534C13.7736 37.5585 13.8991 37.8607 14.1557 38.0723C14.4124 38.2839 14.7033 38.3867 15.0398 38.3867C15.3763 38.3867 15.6671 38.2839 15.9238 38.0723C16.1804 37.8607 16.3059 37.5524 16.3059 37.1534C16.3059 36.7786 16.1804 36.4764 15.9352 36.2467C15.69 36.017 15.3934 35.9021 15.0398 35.9021Z" fill="white"/>
<path d="M34.5853 25.1055C34.8533 25.3292 35.1613 25.438 35.5035 25.438C35.8457 25.438 36.1537 25.3292 36.4218 25.1055C36.6898 24.8819 36.8267 24.5615 36.8267 24.1383C36.8267 23.7575 36.7012 23.4431 36.4446 23.2074C36.1879 22.9716 35.8742 22.8507 35.5035 22.8507C35.1328 22.8507 34.8191 22.9716 34.5682 23.2074C34.3115 23.4431 34.186 23.7514 34.186 24.1383C34.186 24.5615 34.3229 24.8819 34.591 25.1055H34.5853Z" fill="white"/>
<path d="M46.1232 25.704C46.4654 25.704 46.762 25.5952 47.0129 25.3776C47.2638 25.16 47.3893 24.8517 47.3893 24.4467C47.3893 24.0719 47.2696 23.7756 47.03 23.5459C46.7905 23.3223 46.4882 23.2074 46.1289 23.2074C45.7696 23.2074 45.4787 23.3223 45.2334 23.5459C44.9882 23.7696 44.8627 24.0719 44.8627 24.4467C44.8627 24.8517 44.9882 25.16 45.2392 25.3776C45.4901 25.5952 45.7867 25.704 46.1289 25.704H46.1232Z" fill="white"/>
<path d="M43.1061 25.704C43.4483 25.704 43.7449 25.5952 43.9958 25.3776C44.2468 25.16 44.3723 24.8517 44.3723 24.4467C44.3723 24.0719 44.2468 23.7756 44.0015 23.5459C43.7563 23.3223 43.4597 23.2074 43.1061 23.2074C42.7525 23.2074 42.4559 23.3223 42.2107 23.5459C41.9654 23.7696 41.84 24.0719 41.84 24.4467C41.84 24.8517 41.9654 25.16 42.2164 25.3776C42.4673 25.5952 42.7639 25.704 43.1061 25.704Z" fill="white"/>
<path d="M49.1403 32.8071H45.8608V26.5746H43.551V32.8071H39.8095C39.8381 32.6378 39.8666 32.39 39.9008 32.0635C39.935 31.7371 39.9521 31.3986 39.9521 31.054C39.9521 30.2802 39.8324 29.5911 39.5928 28.9987C39.3533 28.4062 39.0396 27.8984 38.6461 27.4874C38.2924 27.1065 37.8704 26.8103 37.3799 26.6048C36.8894 26.3992 36.3476 26.2965 35.7544 26.2965C35.1613 26.2965 34.5967 26.3811 34.0777 26.5564C33.5644 26.7257 33.0225 26.9856 32.4579 27.3302L33.4332 29.4823C33.8894 29.1679 34.2602 28.9684 34.551 28.8778C34.8419 28.7871 35.167 28.7448 35.5149 28.7448C36.1651 28.7448 36.667 28.914 37.032 29.2586C37.2544 29.4581 37.4141 29.7059 37.5111 30.0082C37.608 30.3105 37.6594 30.6067 37.6594 30.8908C37.6594 31.193 37.6366 31.5376 37.5966 31.9124C37.5567 32.2933 37.5111 32.5895 37.4655 32.8011H31.3343V31.5618C31.3343 30.9331 31.2716 30.3528 31.1461 29.8148C31.0206 29.2767 30.7982 28.8294 30.4731 28.4667C30.1024 28.0556 29.6689 27.7594 29.1728 27.578C28.6766 27.3967 28.1062 27.306 27.456 27.306H23.3952V22.9172H21.0854V32.8011H17.8059V26.5685H15.4961V32.8011H11.7147V31.5618C11.7147 30.9331 11.652 30.3528 11.5265 29.8148C11.401 29.2767 11.1786 28.8294 10.8535 28.4667C10.4828 28.0556 10.0493 27.7594 9.55315 27.578C9.05696 27.3967 8.48662 27.306 7.83644 27.306H3.77564V22.9172H1.47148V32.8011H0.114075V35.2493H51.4501V25.3655H52.3513V22.9172H49.1403V32.8011V32.8071ZM9.41057 32.8071H3.78134V29.7422H8.03606C8.25849 29.7422 8.46381 29.7906 8.64632 29.8812C8.83453 29.9719 8.97711 30.0928 9.07977 30.244C9.19384 30.389 9.27369 30.5644 9.33072 30.7699C9.38776 30.9694 9.41627 31.2112 9.41627 31.4832V32.8071H9.41057ZM29.0245 32.8071H23.3952V29.7422H27.65C27.8724 29.7422 28.0777 29.7906 28.2602 29.8812C28.4427 29.9719 28.591 30.0928 28.6937 30.244C28.8077 30.389 28.8876 30.5644 28.9446 30.7699C29.0017 30.9694 29.0302 31.2112 29.0302 31.4832V32.8071H29.0245Z" fill="white"/>
<path d="M56.663 22.9232H54.3531V35.2553H56.663V22.9232Z" fill="white"/>
<path d="M65.2523 25.1297C65.5945 25.1297 65.8911 25.0209 66.142 24.8033C66.393 24.5856 66.5184 24.2773 66.5184 23.8723C66.5184 23.4975 66.393 23.2013 66.1477 22.9716C65.9025 22.7479 65.6059 22.6331 65.2523 22.6331C64.8987 22.6331 64.6021 22.7479 64.3569 22.9716C64.1116 23.1953 63.9861 23.4975 63.9861 23.8723C63.9861 24.2773 64.1116 24.5856 64.3626 24.8033C64.6135 25.0209 64.9101 25.1297 65.2523 25.1297Z" fill="white"/>
<path d="M68.2694 25.1297C68.6116 25.1297 68.9081 25.0209 69.1591 24.8033C69.41 24.5856 69.5355 24.2773 69.5355 23.8723C69.5355 23.4975 69.4157 23.2013 69.1762 22.9716C68.9367 22.7479 68.6344 22.6331 68.2751 22.6331C67.9157 22.6331 67.6249 22.7479 67.3796 22.9716C67.1344 23.1953 67.0089 23.4975 67.0089 23.8723C67.0089 24.2773 67.1344 24.5856 67.3853 24.8033C67.6363 25.0209 67.9329 25.1297 68.2751 25.1297H68.2694Z" fill="white"/>
<path d="M71.6343 32.8071H69.6154V25.837H67.3055V26.5745H67.2085C66.4386 26.5745 65.7485 26.6834 65.1382 26.901C64.5279 27.1186 64.0089 27.4209 63.5812 27.8078C63.1534 28.1946 62.8283 28.6541 62.6059 29.186C62.3835 29.718 62.2694 30.2984 62.2694 30.9271C62.2694 31.6525 62.3949 32.2872 62.6458 32.8373C62.8968 33.3814 63.239 33.8348 63.6838 34.1975C64.123 34.5602 64.642 34.8262 65.2409 35.0015C65.8397 35.1707 66.4956 35.2614 67.2085 35.2614H73.9385V25.3776H74.8396V22.9293H71.6286V32.8131L71.6343 32.8071ZM67.3112 32.8071H66.6439C66.3758 32.8071 66.1135 32.7648 65.8682 32.6801C65.6173 32.5955 65.4006 32.4746 65.2066 32.3174C65.0184 32.1603 64.8644 31.9668 64.7561 31.7371C64.642 31.5074 64.5907 31.2354 64.5907 30.921C64.5907 30.6067 64.6534 30.3467 64.7732 30.117C64.893 29.8873 65.0584 29.6878 65.258 29.5246C65.4633 29.3614 65.6914 29.2344 65.9538 29.1498C66.2161 29.0591 66.4785 29.0168 66.7466 29.0168H67.3169V32.801L67.3112 32.8071Z" fill="white"/>
<path d="M122.383 28.4183C122.012 28.0072 121.579 27.711 121.083 27.5296C120.586 27.3483 120.016 27.2576 119.366 27.2576H115.573L117.729 22.9232H115.225L112.904 27.4027C112.921 27.9044 113.001 28.3336 113.132 28.6842C113.269 29.0349 113.446 29.3734 113.668 29.6877H119.56C119.782 29.6877 119.988 29.7361 120.17 29.8268C120.358 29.9175 120.501 30.0384 120.603 30.1895C120.718 30.3346 120.797 30.5099 120.854 30.7154C120.911 30.9149 120.94 31.1567 120.94 31.4287V32.8131H79.1514V22.9293H76.8415V35.2614H123.244V31.5194C123.244 30.8907 123.181 30.3104 123.056 29.7724C122.93 29.2344 122.708 28.787 122.383 28.4243V28.4183Z" fill="white"/>
<path d="M129.335 26.5745C128.622 26.5745 127.967 26.6712 127.362 26.8707C126.757 27.0642 126.238 27.3544 125.799 27.7231C125.36 28.0979 125.012 28.5513 124.761 29.0833C124.51 29.6213 124.385 30.2258 124.385 30.9029C124.385 31.6706 124.516 32.3295 124.773 32.8857C125.035 33.4418 125.389 33.8952 125.833 34.2398C126.284 34.5904 126.809 34.8443 127.402 35.0075C128.001 35.1707 128.64 35.2493 129.33 35.2493H129.341C129.33 35.34 129.29 35.4488 129.221 35.5758C129.153 35.7027 129.056 35.7994 128.936 35.872C128.816 35.9385 128.662 35.9868 128.468 36.011C128.28 36.0352 128.052 36.0473 127.795 36.0473C127.482 36.0473 127.162 36.017 126.849 35.9566C126.535 35.8961 126.107 35.7813 125.571 35.5999L125.737 38.0905L126.432 38.2961C126.598 38.3384 126.763 38.3686 126.917 38.3988C127.077 38.4291 127.237 38.4532 127.396 38.4653C127.556 38.4774 127.738 38.4895 127.932 38.4895C128.64 38.4895 129.233 38.3928 129.717 38.1933C130.202 37.9938 130.596 37.7218 130.887 37.3591C131.178 37.0024 131.383 36.5792 131.503 36.0896C131.622 35.606 131.685 35.068 131.685 34.4937L131.697 26.5685H129.318L129.335 26.5745ZM129.404 32.8071H128.765C128.468 32.8071 128.195 32.7648 127.938 32.6801C127.681 32.5955 127.465 32.4746 127.282 32.3174C127.1 32.1602 126.957 31.9608 126.849 31.731C126.74 31.4953 126.689 31.2172 126.689 30.9029C126.689 30.6187 126.746 30.3588 126.854 30.1291C126.963 29.8994 127.117 29.6999 127.305 29.5366C127.493 29.3734 127.716 29.2465 127.972 29.1558C128.229 29.0651 128.491 29.0168 128.759 29.0168H129.398V32.801L129.404 32.8071Z" fill="white"/>
<path d="M2.3099 49.5279C2.3099 48.9596 2.43537 48.5183 2.68632 48.2161C2.93727 47.9138 3.26807 47.7566 3.673 47.7566H5.50949V45.3083H4.07794C2.80039 45.3083 1.8023 45.6892 1.08367 46.4569C0.36505 47.2247 0.0057373 48.3793 0.0057373 49.9208V52.9252H6.11975V50.477H2.3099V49.5218V49.5279Z" fill="white"/>
<path d="M10.6482 40.5992H8.33832V52.9313H10.6482V40.5992Z" fill="white"/>
<path d="M18.1139 45.4173C17.7432 45.0062 17.3097 44.71 16.8135 44.5286C16.3173 44.3473 15.747 44.2566 15.0968 44.2566H14.2755V46.7049H15.2907C15.5132 46.7049 15.7185 46.7472 15.901 46.8379C16.0835 46.9286 16.2318 47.0434 16.3345 47.1945C16.4428 47.3396 16.5284 47.5149 16.5854 47.7205C16.6424 47.926 16.671 48.1618 16.671 48.4338V50.4952H11.8174V52.9435H18.9751V48.5245C18.9751 47.8958 18.9124 47.3154 18.7869 46.7774C18.6614 46.2394 18.439 45.7921 18.1139 45.4294V45.4173Z" fill="white"/>
<path d="M24.3705 41.9835H22.0607V50.1324H24.3705V41.9835Z" fill="white"/>
<path d="M24.5074 39.6743H22.7279C22.7279 39.6139 22.7679 39.5413 22.8477 39.4507C22.9276 39.36 23.0758 39.3177 23.2983 39.3177H24.0625V38.2719H23.1842C22.5911 38.2719 22.1234 38.429 21.7755 38.7373C21.4276 39.0456 21.2565 39.5655 21.2565 40.2909V41.1614H24.5074V39.6743Z" fill="white"/>
<path d="M26.2013 48.6453C26.2013 48.9778 26.1557 49.2559 26.0644 49.4796C25.9732 49.7032 25.8477 49.8846 25.688 50.0297C25.5112 50.1748 25.3002 50.2896 25.0492 50.3682C24.7983 50.4468 24.5245 50.4831 24.2279 50.4831H20.0588L20.3382 52.9313H23.8287C24.5987 52.9313 25.2831 52.8467 25.8762 52.6835C26.4751 52.5142 26.9884 52.2301 27.4104 51.8311C27.7811 51.4563 28.0549 50.9788 28.2374 50.3924C28.4199 49.806 28.5112 49.2015 28.5112 48.5728V41.9594H29.4123V39.5111H26.2013V48.6453Z" fill="white"/>
<path d="M33.8096 40.5992H31.4998V52.9313H33.8096V40.5992Z" fill="white"/>
<path d="M38.2297 44.5527C37.6252 44.7462 37.1062 45.0364 36.667 45.4051C36.2278 45.7799 35.8799 46.2333 35.629 46.7653C35.378 47.3033 35.2526 47.9078 35.2526 48.5849C35.2526 49.3526 35.3837 50.0115 35.6404 50.5677C35.9027 51.1238 36.2564 51.5772 36.7012 51.9218C37.1518 52.2724 37.6765 52.5263 38.2696 52.6895C38.8685 52.8527 39.5073 52.9313 40.1974 52.9313H40.2088C40.1974 53.022 40.1575 53.1308 40.089 53.2578C40.0206 53.3847 39.9236 53.4814 39.8039 53.554C39.6841 53.6265 39.5301 53.6688 39.3362 53.693C39.148 53.7172 38.9198 53.7293 38.6632 53.7293C38.3495 53.7293 38.0301 53.6991 37.7164 53.6386C37.4027 53.5782 36.975 53.4633 36.4389 53.2819L36.6043 55.7725L37.3001 55.9781C37.4655 56.0204 37.6309 56.0506 37.7849 56.0808C37.9446 56.1111 38.1042 56.1353 38.2639 56.1473C38.4236 56.1594 38.6061 56.1715 38.8001 56.1715C39.5073 56.1715 40.1004 56.0748 40.5852 55.8753C41.07 55.6758 41.4635 55.4038 41.7544 55.0411C42.0453 54.6844 42.2506 54.2613 42.3704 53.7716C42.4901 53.288 42.5529 52.75 42.5529 52.1757L42.5643 44.2505H40.186C39.4731 44.2505 38.8172 44.3472 38.2126 44.5467L38.2297 44.5527ZM40.2715 50.4891H39.6328C39.3362 50.4891 39.0624 50.4468 38.8058 50.3621C38.5491 50.2775 38.3324 50.1566 38.1499 49.9994C37.9674 49.8423 37.8248 49.6428 37.7164 49.413C37.6081 49.1773 37.5567 48.8992 37.5567 48.5849C37.5567 48.3007 37.6138 48.0408 37.7221 47.8111C37.8305 47.5814 37.9845 47.3819 38.1727 47.2187C38.3609 47.0554 38.5833 46.9285 38.84 46.8378C39.0966 46.7471 39.359 46.6988 39.6271 46.6988H40.2658V50.483L40.2715 50.4891Z" fill="white"/>
<path d="M50.4749 48.1073C50.7429 48.3309 51.0509 48.4397 51.3931 48.4397C51.7353 48.4397 52.0433 48.3309 52.3113 48.1073C52.5794 47.8836 52.7163 47.5632 52.7163 47.14C52.7163 46.7592 52.5908 46.4448 52.3342 46.2091C52.0775 45.9733 51.7638 45.8524 51.3988 45.8524C51.0338 45.8524 50.7144 45.9733 50.4577 46.2091C50.2011 46.4448 50.0756 46.7531 50.0756 47.14C50.0756 47.5632 50.2125 47.8836 50.4806 48.1073H50.4749Z" fill="white"/>
<path d="M50.4749 51.2326C50.7429 51.4563 51.0509 51.5651 51.3931 51.5651C51.7353 51.5651 52.0433 51.4563 52.3113 51.2326C52.5794 51.009 52.7163 50.6886 52.7163 50.2654C52.7163 49.8846 52.5908 49.5702 52.3342 49.3344C52.0775 49.0987 51.7638 48.9778 51.3988 48.9778C51.0338 48.9778 50.7144 49.0987 50.4577 49.3344C50.2011 49.5702 50.0756 49.8785 50.0756 50.2654C50.0756 50.6886 50.2125 51.009 50.4806 51.2326H50.4749Z" fill="white"/>
<path d="M65.2808 53.4935C64.9101 53.4935 64.5964 53.6144 64.3398 53.8502C64.0831 54.086 63.9576 54.3943 63.9576 54.7812C63.9576 55.2043 64.0945 55.5247 64.3626 55.7484C64.6306 55.972 64.9386 56.0809 65.2808 56.0809C65.623 56.0809 65.931 55.972 66.1991 55.7484C66.4671 55.5247 66.604 55.2043 66.604 54.7812C66.604 54.4003 66.4785 54.086 66.2219 53.8502C65.9652 53.6144 65.6515 53.4935 65.2865 53.4935H65.2808Z" fill="white"/>
<path d="M72.7294 53.5842C72.3758 53.5842 72.0792 53.6991 71.834 53.9288C71.5887 54.1585 71.4633 54.4608 71.4633 54.8356C71.4633 55.2406 71.5887 55.5429 71.8454 55.7544C72.102 55.966 72.3929 56.0688 72.7294 56.0688C73.0659 56.0688 73.3568 55.966 73.6134 55.7544C73.8701 55.5429 73.9956 55.2346 73.9956 54.8356C73.9956 54.4608 73.8701 54.1585 73.6248 53.9288C73.3796 53.6991 73.083 53.5842 72.7294 53.5842Z" fill="white"/>
<path d="M75.7465 53.5842C75.3929 53.5842 75.0963 53.6991 74.8511 53.9288C74.6058 54.1585 74.4803 54.4608 74.4803 54.8356C74.4803 55.2406 74.6058 55.5429 74.8625 55.7544C75.1191 55.966 75.41 56.0688 75.7465 56.0688C76.083 56.0688 76.3739 55.966 76.6305 55.7544C76.8872 55.5429 77.0126 55.2346 77.0126 54.8356C77.0126 54.4608 76.8929 54.1585 76.6533 53.9288C76.4138 53.6991 76.1115 53.5842 75.7522 53.5842H75.7465Z" fill="white"/>
<path d="M79.8872 43.386C80.2294 43.386 80.5259 43.2772 80.7769 43.0596C81.0278 42.842 81.1533 42.5337 81.1533 42.1287C81.1533 41.7539 81.0278 41.4576 80.7826 41.2279C80.5373 40.9982 80.2408 40.8894 79.8872 40.8894C79.5335 40.8894 79.237 41.0043 78.9917 41.2279C78.7465 41.4516 78.621 41.7539 78.621 42.1287C78.621 42.5337 78.7465 42.842 78.9974 43.0596C79.2484 43.2772 79.5449 43.386 79.8872 43.386Z" fill="white"/>
<path d="M82.9042 40.8954C82.5506 40.8954 82.254 41.0102 82.0088 41.2339C81.7635 41.4576 81.6381 41.7598 81.6381 42.1346C81.6381 42.5397 81.7635 42.848 82.0145 43.0656C82.2654 43.2832 82.562 43.392 82.9042 43.392C83.2464 43.392 83.543 43.2832 83.7939 43.0656C84.0449 42.848 84.1704 42.5397 84.1704 42.1346C84.1704 41.7598 84.0506 41.4636 83.811 41.2339C83.5715 41.0042 83.2692 40.8954 82.9099 40.8954H82.9042Z" fill="white"/>
<path d="M80.3206 50.4891H75.4955V44.2566H73.1857V50.4891H69.4442C69.4728 50.3199 69.5013 50.072 69.5355 49.7456C69.5697 49.4192 69.5868 49.0806 69.5868 48.736C69.5868 47.9623 69.4671 47.2731 69.2275 46.6807C68.988 46.0883 68.6743 45.5805 68.2808 45.1694C67.9271 44.7886 67.5051 44.4924 67.0146 44.2868C66.5241 44.0813 65.9823 43.9785 65.3891 43.9785C64.796 43.9785 64.2257 44.0631 63.7124 44.2385C63.199 44.4077 62.6572 44.6677 62.0926 45.0122L63.0679 47.1643C63.5241 46.85 63.8949 46.6505 64.1857 46.5598C64.4766 46.4691 64.8017 46.4268 65.1496 46.4268C65.7998 46.4268 66.3017 46.5961 66.6667 46.9406C66.8891 47.1401 67.0488 47.388 67.1458 47.6902C67.2427 47.9925 67.2941 48.2887 67.2941 48.5728C67.2941 48.8751 67.2713 49.2197 67.2313 49.5945C67.1914 49.9753 67.1458 50.2715 67.1002 50.4831H60.4272V44.2505H57.6212C57.0622 44.2505 56.5489 44.317 56.0755 44.45C55.6022 44.583 55.1972 44.7886 54.855 45.0787C54.4102 45.4535 54.0908 45.913 53.8911 46.457C53.6915 47.0011 53.5946 47.6358 53.5946 48.3673V52.3329H51.0623C50.6288 52.3329 50.2125 52.2785 49.8246 52.1757C49.4368 52.073 48.9634 51.8553 48.4045 51.5229L47.4749 53.687C47.8912 53.9349 48.2391 54.1223 48.5186 54.2492C48.798 54.3762 49.0889 54.4789 49.4026 54.5575C49.7106 54.6361 50.0471 54.6905 50.4121 54.7268C50.7714 54.7631 51.1992 54.7812 51.6896 54.7812H55.8987V48.2403C55.8987 48.0046 55.9387 47.7749 56.0242 47.5452C56.1098 47.3215 56.2181 47.1462 56.3493 47.0313C56.4862 46.9104 56.6402 46.8318 56.817 46.7835C56.9938 46.7351 57.1934 46.7109 57.4158 46.7109H58.1231V52.9435H82.6304V44.2687H80.3206V50.5012V50.4891Z" fill="white"/>
<path d="M87.427 40.5992H85.1171V52.9313H87.427V40.5992Z" fill="white"/>
<path d="M99.1303 43.386C99.4725 43.386 99.7691 43.2772 100.02 43.0596C100.271 42.842 100.396 42.5337 100.396 42.1287C100.396 41.7539 100.277 41.4576 100.037 41.2279C99.7976 40.9982 99.4953 40.8894 99.136 40.8894C98.7767 40.8894 98.4858 41.0043 98.2406 41.2279C97.9953 41.4516 97.8699 41.7539 97.8699 42.1287C97.8699 42.5337 97.9953 42.842 98.2463 43.0596C98.4972 43.2772 98.7938 43.386 99.136 43.386H99.1303Z" fill="white"/>
<path d="M96.1133 43.386C96.4555 43.386 96.752 43.2772 97.003 43.0596C97.2539 42.842 97.3794 42.5337 97.3794 42.1287C97.3794 41.7539 97.2539 41.4576 97.0087 41.2279C96.7634 40.9982 96.4669 40.8894 96.1133 40.8894C95.7596 40.8894 95.4631 41.0043 95.2178 41.2279C94.9726 41.4516 94.8471 41.7539 94.8471 42.1287C94.8471 42.5337 94.9726 42.842 95.2235 43.0596C95.4745 43.2772 95.7711 43.386 96.1133 43.386Z" fill="white"/>
<path d="M114.375 48.9718C114.375 49.4917 114.25 49.9027 114.005 50.1929C113.759 50.4891 113.389 50.6342 112.887 50.6342C112.385 50.6342 112.026 50.4891 111.752 50.1989C111.478 49.9088 111.33 49.4554 111.313 48.8388V44.9941H109.003V48.8388C109.003 49.1713 108.952 49.4433 108.855 49.6488C108.758 49.8544 108.626 50.0236 108.467 50.1506C108.307 50.2775 108.125 50.3682 107.925 50.4166C107.725 50.4649 107.531 50.4891 107.349 50.4891H106.111V44.9941H103.801V50.4891H98.8509V44.2566H96.541V50.4891H92.7711V44.2566H90.4612V52.478C90.4612 52.9495 90.3985 53.2759 90.273 53.4573C90.1475 53.6386 89.9251 53.7293 89.6 53.7293C89.4631 53.7293 89.3262 53.7172 89.1893 53.6991C89.0525 53.681 88.8186 53.6265 88.4878 53.5359L88.6532 55.9962C88.8585 56.0627 89.0525 56.1111 89.235 56.1353C89.4175 56.1595 89.6114 56.1716 89.8053 56.1716C90.7806 56.1716 91.4992 55.8995 91.9669 55.3494C92.4346 54.7993 92.6912 53.9953 92.7368 52.9314H107.332C107.885 52.9314 108.415 52.8105 108.923 52.5747C109.431 52.3389 109.813 52.0729 110.069 51.7767C110.155 51.9339 110.303 52.1092 110.526 52.3027C110.748 52.4961 110.988 52.6472 111.244 52.7681C111.501 52.889 111.763 52.9676 112.037 53.0099C112.311 53.0523 112.585 53.0764 112.864 53.0764C114.136 53.0764 115.083 52.7137 115.704 51.9944C116.332 51.275 116.64 50.1748 116.64 48.6997V43.2168H114.347V48.9597L114.375 48.9718Z" fill="white"/>
<path d="M123.9 48.6453C123.9 48.9778 123.854 49.2559 123.763 49.4796C123.672 49.7032 123.546 49.8846 123.387 50.0297C123.21 50.1748 122.999 50.2896 122.748 50.3682C122.497 50.4468 122.223 50.4831 121.927 50.4831H117.758L118.037 52.9313H121.527C122.297 52.9313 122.982 52.8467 123.575 52.6835C124.174 52.5142 124.687 52.2301 125.109 51.8311C125.48 51.4563 125.754 50.9788 125.936 50.3924C126.119 49.806 126.21 49.2015 126.21 48.5728V41.9594H127.111V39.5111H123.9V48.6453Z" fill="white"/>
<path d="M122.069 41.9835H119.759V50.1324H122.069V41.9835Z" fill="white"/>
<path d="M131.508 40.5992H129.198V52.9313H131.508V40.5992Z" fill="white"/>
<path d="M1.81942 62.7004C1.55136 62.7004 1.2833 62.6822 1.02095 62.6459C0.75859 62.6097 0.490532 62.5553 0.222473 62.4767V61.8722C0.576082 61.9508 0.878361 62.0112 1.12361 62.0475C1.36885 62.0837 1.59128 62.0958 1.7852 62.0958C1.99622 62.0958 2.16732 62.0596 2.3042 61.9931C2.44108 61.9266 2.54375 61.8359 2.61219 61.7271C2.68063 61.6183 2.71485 61.5034 2.71485 61.3765C2.71485 61.2374 2.67492 61.1226 2.60078 61.0258C2.52664 60.9352 2.42968 60.8566 2.3042 60.7961C2.18443 60.7357 2.02474 60.6692 1.83082 60.6027L1.65972 60.5483C1.38026 60.4516 1.15212 60.3548 0.958208 60.2581C0.764293 60.1614 0.610302 60.0224 0.484828 59.847C0.359354 59.6717 0.290914 59.436 0.290914 59.1519C0.290914 58.7408 0.427795 58.4325 0.701556 58.2269C0.975318 58.0214 1.34604 57.9126 1.81371 57.9126C2.06466 57.9126 2.30991 57.9307 2.54945 57.973C2.78899 58.0093 3.04564 58.0758 3.3137 58.1604V58.7771C2.98291 58.6803 2.70344 58.6199 2.47531 58.5776C2.24147 58.5413 2.02474 58.5232 1.82512 58.5232C1.54566 58.5232 1.34033 58.5776 1.19775 58.6803C1.05517 58.7831 0.981022 58.9403 0.981022 59.1519C0.981022 59.2969 1.02095 59.4178 1.10079 59.5085C1.18064 59.5992 1.2833 59.6717 1.40877 59.7261C1.53425 59.7805 1.70535 59.841 1.93348 59.9135L2.02474 59.9438C2.30991 60.0284 2.54375 60.1191 2.73196 60.2158C2.92017 60.3125 3.07986 60.4516 3.20534 60.6269C3.33651 60.8022 3.39925 61.0319 3.39925 61.316C3.39925 61.7573 3.25667 62.0958 2.9658 62.3376C2.67492 62.5734 2.2928 62.6943 1.80801 62.6943L1.81942 62.7004Z" fill="white"/>
<path d="M4.79087 61.7936C4.79087 61.9266 4.82509 62.0233 4.88783 62.0898C4.95056 62.1563 5.03611 62.1865 5.15018 62.1865C5.20151 62.1865 5.25855 62.1865 5.32699 62.1745C5.39543 62.1624 5.43535 62.1563 5.45246 62.1442V62.646C5.38402 62.6641 5.29277 62.6762 5.1787 62.6883C5.06463 62.7004 4.97338 62.7004 4.90494 62.7004C4.63688 62.7004 4.44296 62.6278 4.3289 62.4888C4.21483 62.3498 4.15779 62.1382 4.15779 61.8541V59.7866H3.73004L3.827 59.2728H4.15779V58.4325L4.79657 58.2572V59.2728H5.48668L5.38972 59.7866H4.79657V61.7936H4.79087Z" fill="white"/>
<path d="M5.92013 62.6096V59.2062H6.55891V59.8349C6.70149 59.6112 6.87259 59.448 7.07221 59.3452C7.27183 59.2364 7.48286 59.1881 7.69958 59.1941V59.7261C7.5513 59.714 7.39731 59.7382 7.23761 59.7986C7.07792 59.8591 6.94104 59.9377 6.82126 60.0404C6.70149 60.1432 6.61024 60.246 6.55321 60.3548V62.6096H5.91443H5.92013Z" fill="white"/>
<path d="M9.99236 60.2944C9.99236 59.8773 9.83837 59.6476 9.52469 59.5931C9.211 59.5387 8.82317 59.6113 8.34979 59.7987L8.24143 59.3453C8.61785 59.176 8.99427 59.0854 9.35929 59.0672C9.7243 59.0491 10.0266 59.1337 10.2718 59.3272C10.5114 59.5206 10.6311 59.8349 10.6311 60.2762V62.6097H9.99236V62.1623C9.68438 62.4948 9.33077 62.658 8.92013 62.658C8.64637 62.658 8.43534 62.5734 8.27565 62.4041C8.12166 62.2349 8.04181 62.0173 8.04181 61.7513C8.04181 61.4974 8.12166 61.2737 8.27565 61.0742C8.43534 60.8747 8.65777 60.7236 8.95435 60.6269C9.25092 60.5301 9.59313 60.4878 9.98666 60.506V60.2944H9.99236ZM9.99236 60.9049C9.7129 60.8747 9.47336 60.8929 9.26803 60.9654C9.06271 61.0379 8.90872 61.1407 8.80036 61.2676C8.69199 61.3946 8.64637 61.5336 8.64637 61.6666C8.64637 61.8178 8.6977 61.9326 8.79465 62.0112C8.89161 62.0898 9.02279 62.1321 9.18248 62.1321C9.34218 62.1321 9.49617 62.1019 9.62164 62.0354C9.74712 61.9689 9.87259 61.8782 9.99236 61.7573V60.9049Z" fill="white"/>
<path d="M12.1083 61.7936C12.1083 61.9266 12.1425 62.0233 12.2053 62.0898C12.268 62.1563 12.3536 62.1865 12.4676 62.1865C12.519 62.1865 12.576 62.1865 12.6444 62.1745C12.7129 62.1624 12.7528 62.1563 12.7699 62.1442V62.646C12.7015 62.6641 12.6102 62.6762 12.4961 62.6883C12.3821 62.7004 12.2908 62.7004 12.2224 62.7004C11.9543 62.7004 11.7604 62.6278 11.6463 62.4888C11.5323 62.3498 11.4752 62.1382 11.4752 61.8541V59.7866H11.0475L11.1444 59.2728H11.4752V58.4325L12.114 58.2572V59.2728H12.8041L12.7072 59.7866H12.114V61.7936H12.1083Z" fill="white"/>
<path d="M13.8764 60.9472C13.8878 61.3281 13.9847 61.6182 14.1558 61.8177C14.3326 62.0172 14.6007 62.1139 14.9714 62.1139C15.1425 62.1139 15.2965 62.1018 15.4277 62.0777C15.5646 62.0535 15.7014 62.0172 15.8383 61.9628L15.998 62.4343C15.7699 62.531 15.576 62.5915 15.4106 62.6157C15.2452 62.6399 15.057 62.658 14.8573 62.658C14.3098 62.658 13.8992 62.5008 13.6197 62.1804C13.3402 61.86 13.2034 61.4127 13.2034 60.8384C13.2034 60.4636 13.2604 60.1372 13.3802 59.8591C13.4999 59.581 13.671 59.3694 13.8992 59.2183C14.1273 59.0672 14.3897 58.9946 14.6977 58.9946C15.0056 58.9946 15.2623 59.0793 15.4619 59.2425C15.6672 59.4057 15.8098 59.6354 15.8954 59.9316C15.9809 60.2278 16.0037 60.5664 15.9581 60.9472H13.8707H13.8764ZM15.4106 60.5301C15.4106 60.3246 15.3821 60.1432 15.325 59.986C15.268 59.8228 15.1881 59.7019 15.0798 59.6112C14.9714 59.5206 14.8459 59.4782 14.6919 59.4782C14.4524 59.4782 14.2642 59.575 14.1216 59.7624C13.979 59.9498 13.8992 60.2037 13.8821 60.5301H15.4163H15.4106Z" fill="white"/>
<path d="M17.0303 63.2686C17.3269 63.3956 17.6177 63.456 17.8972 63.456C18.1767 63.456 18.4048 63.3895 18.5816 63.2505C18.7584 63.1175 18.844 62.918 18.844 62.6641V62.253H18.8497C18.7356 62.38 18.5987 62.4767 18.4447 62.5432C18.2907 62.6097 18.131 62.6399 17.9713 62.6399C17.6919 62.6399 17.458 62.5674 17.2698 62.4163C17.0759 62.2651 16.9333 62.0596 16.8307 61.7936C16.728 61.5276 16.6824 61.2193 16.6824 60.8687C16.6824 60.3246 16.7907 59.8954 17.0018 59.575C17.2128 59.2547 17.5265 59.0914 17.9371 59.0914C18.1082 59.0914 18.2679 59.1277 18.4219 59.2002C18.5759 59.2728 18.7128 59.3695 18.8382 59.4965H18.8497V59.1579H19.4884V62.6823C19.4884 63.0812 19.363 63.3956 19.1177 63.6253C18.8725 63.849 18.5474 63.9759 18.1538 64.0001C17.7603 64.0243 17.3497 63.9457 16.9333 63.7704L17.036 63.2747L17.0303 63.2686ZM18.1538 62.0838C18.2964 62.0838 18.4276 62.0536 18.5474 62.0052C18.6671 61.9508 18.7641 61.8903 18.844 61.8178V59.9801C18.7641 59.9075 18.6614 59.8471 18.5474 59.7927C18.4276 59.7383 18.3021 59.7141 18.1538 59.7141C17.8972 59.7141 17.6976 59.8168 17.5607 60.0224C17.4181 60.2279 17.3497 60.512 17.3497 60.8747C17.3497 61.2616 17.4181 61.5639 17.5607 61.7755C17.7033 61.9871 17.8972 62.0959 18.1538 62.0959V62.0838Z" fill="white"/>
<path d="M20.498 58.8617C20.401 58.8617 20.3155 58.8254 20.2527 58.7528C20.1843 58.6803 20.1558 58.5957 20.1558 58.4929C20.1558 58.3901 20.19 58.3055 20.2527 58.233C20.3212 58.1604 20.401 58.1241 20.498 58.1241C20.5949 58.1241 20.6748 58.1604 20.7432 58.233C20.8116 58.3055 20.8459 58.3901 20.8459 58.4929C20.8459 58.5957 20.8116 58.6803 20.7432 58.7528C20.6748 58.8254 20.5949 58.8617 20.498 58.8617ZM20.8231 62.6096H20.1843V59.2727H20.8231V62.6096Z" fill="white"/>
<path d="M23.9086 62.4706C23.7318 62.5432 23.5721 62.5915 23.4352 62.6218C23.2983 62.6459 23.15 62.6641 22.9904 62.6641C22.6653 62.6641 22.3858 62.5915 22.1463 62.4465C21.9067 62.3014 21.7242 62.0958 21.593 61.8178C21.4675 61.5457 21.3991 61.2193 21.3991 60.8385C21.3991 60.4576 21.4618 60.1312 21.593 59.8591C21.7242 59.5871 21.9067 59.3755 22.1463 59.2304C22.3858 59.0854 22.671 59.0128 22.9904 59.0128C23.1329 59.0128 23.2869 59.0309 23.4352 59.0612C23.5892 59.0914 23.7318 59.1337 23.8687 59.176L23.6976 59.6778H23.6862C23.5493 59.6294 23.4352 59.5992 23.3497 59.5871C23.2584 59.569 23.1614 59.5629 23.0645 59.5629C22.7508 59.5629 22.4999 59.6717 22.3231 59.8954C22.1462 60.1191 22.055 60.4334 22.055 60.8385C22.055 61.2435 22.1462 61.5518 22.3231 61.7755C22.4999 61.9991 22.7508 62.1079 23.0645 62.1079C23.2698 62.1079 23.5037 62.0535 23.766 61.9447L23.9143 62.4646L23.9086 62.4706Z" fill="white"/>
<path d="M26.4295 62.6339H25.7336V57.9912H27.553C27.8325 57.9912 28.072 58.0517 28.2888 58.1665C28.4998 58.2814 28.6652 58.4506 28.7849 58.6622C28.9047 58.8738 28.9618 59.1217 28.9618 59.4058C28.9618 59.6899 28.9047 59.9498 28.7907 60.1614C28.6766 60.373 28.5112 60.5362 28.3002 60.6511C28.0891 60.7659 27.8439 60.8203 27.5587 60.8203H26.4352V62.6339H26.4295ZM27.4903 60.2037C27.7355 60.2037 27.9294 60.1372 28.0606 60.0042C28.1975 59.8713 28.2602 59.6718 28.2602 59.3997C28.2602 59.1277 28.1918 58.9463 28.0549 58.8134C27.918 58.6804 27.7298 58.6078 27.4903 58.6078H26.4295V60.1977H27.4903V60.2037Z" fill="white"/>
<path d="M29.7089 62.6096V57.9851H30.3477V62.6096H29.7089Z" fill="white"/>
<path d="M33.091 60.2944C33.091 59.8773 32.937 59.6476 32.6233 59.5931C32.3096 59.5387 31.9218 59.6113 31.4484 59.7987L31.3401 59.3453C31.7165 59.176 32.0929 59.0854 32.4579 59.0672C32.8229 59.0491 33.1252 59.1337 33.3705 59.3272C33.61 59.5206 33.7298 59.8349 33.7298 60.2762V62.6097H33.091V62.1623C32.783 62.4948 32.4294 62.658 32.0188 62.658C31.745 62.658 31.534 62.5734 31.3743 62.4041C31.2203 62.2349 31.1404 62.0173 31.1404 61.7513C31.1404 61.4974 31.2203 61.2737 31.3743 61.0742C31.534 60.8747 31.7564 60.7236 32.053 60.6269C32.3496 60.5301 32.6918 60.4878 33.0853 60.506V60.2944H33.091ZM33.091 60.9049C32.8115 60.8747 32.572 60.8929 32.3667 60.9654C32.1613 61.0379 32.0074 61.1407 31.899 61.2676C31.7906 61.3946 31.745 61.5336 31.745 61.6666C31.745 61.8178 31.7963 61.9326 31.8933 62.0112C31.9902 62.0898 32.1214 62.1321 32.2811 62.1321C32.4408 62.1321 32.5948 62.1019 32.7203 62.0354C32.8458 61.9689 32.9712 61.8782 33.091 61.7573V60.9049Z" fill="white"/>
<path d="M34.4313 62.6096V59.2062H35.0701V59.5629C35.2697 59.4117 35.4522 59.3029 35.6233 59.2364C35.7887 59.1699 35.9769 59.1337 36.1765 59.1337C36.4959 59.1337 36.7354 59.2304 36.9008 59.4178C37.0605 59.6052 37.1461 59.8772 37.1461 60.2339V62.6036H36.5073V60.4576C36.5073 60.0163 36.3134 59.7926 35.9199 59.7926C35.7602 59.7926 35.6119 59.8289 35.4693 59.9014C35.3267 59.9739 35.1955 60.0646 35.0758 60.1613V62.5975H34.437L34.4313 62.6096Z" fill="white"/>
<path d="M37.8419 62.6096V59.2062H38.4807V59.5629C38.6803 59.4117 38.8628 59.3029 39.0339 59.2364C39.1993 59.1699 39.3875 59.1337 39.5872 59.1337C39.9065 59.1337 40.1461 59.2304 40.3115 59.4178C40.4712 59.6052 40.5567 59.8772 40.5567 60.2339V62.6036H39.9179V60.4576C39.9179 60.0163 39.724 59.7926 39.3305 59.7926C39.1708 59.7926 39.0225 59.8289 38.8799 59.9014C38.7373 59.9739 38.6062 60.0646 38.4864 60.1613V62.5975H37.8476L37.8419 62.6096Z" fill="white"/>
<path d="M41.5662 58.8617C41.4692 58.8617 41.3837 58.8254 41.321 58.7528C41.2525 58.6803 41.224 58.5957 41.224 58.4929C41.224 58.3901 41.2582 58.3055 41.321 58.233C41.3894 58.1604 41.4692 58.1241 41.5662 58.1241C41.6632 58.1241 41.743 58.1604 41.8114 58.233C41.8799 58.3055 41.9141 58.3901 41.9141 58.4929C41.9141 58.5957 41.8799 58.6803 41.8114 58.7528C41.743 58.8254 41.6632 58.8617 41.5662 58.8617ZM41.8913 62.6096H41.2525V59.2727H41.8913V62.6096Z" fill="white"/>
<path d="M42.7753 62.6096V59.2062H43.4141V59.5629C43.6137 59.4117 43.7962 59.3029 43.9673 59.2364C44.1327 59.1699 44.3209 59.1337 44.5206 59.1337C44.8399 59.1337 45.0795 59.2304 45.2449 59.4178C45.4046 59.6052 45.4901 59.8772 45.4901 60.2339V62.6036H44.8514V60.4576C44.8514 60.0163 44.6574 59.7926 44.2639 59.7926C44.1042 59.7926 43.9559 59.8289 43.8133 59.9014C43.6708 59.9739 43.5396 60.0646 43.4198 60.1613V62.5975H42.781L42.7753 62.6096Z" fill="white"/>
<path d="M46.4711 63.2686C46.7677 63.3956 47.0586 63.456 47.338 63.456C47.6175 63.456 47.8456 63.3895 48.0224 63.2505C48.1993 63.1175 48.2848 62.918 48.2848 62.6641V62.253H48.2905C48.1764 62.38 48.0396 62.4767 47.8856 62.5432C47.7316 62.6097 47.5719 62.6399 47.4122 62.6399C47.1327 62.6399 46.8989 62.5674 46.7107 62.4163C46.5168 62.2651 46.3742 62.0596 46.2715 61.7936C46.1689 61.5276 46.1232 61.2193 46.1232 60.8687C46.1232 60.3246 46.2316 59.8954 46.4426 59.575C46.6536 59.2547 46.9673 59.0914 47.378 59.0914C47.5491 59.0914 47.7088 59.1277 47.8628 59.2002C48.0167 59.2728 48.1536 59.3695 48.2791 59.4965H48.2905V59.1579H48.9293V62.6823C48.9293 63.0812 48.8038 63.3956 48.5586 63.6253C48.3133 63.849 47.9882 63.9759 47.5947 64.0001C47.2012 64.0243 46.7905 63.9457 46.3742 63.7704L46.4768 63.2747L46.4711 63.2686ZM47.5947 62.0838C47.7373 62.0838 47.8685 62.0536 47.9882 62.0052C48.108 61.9508 48.205 61.8903 48.2848 61.8178V59.9801C48.205 59.9075 48.1023 59.8471 47.9882 59.7927C47.8685 59.7383 47.743 59.7141 47.5947 59.7141C47.338 59.7141 47.1384 59.8168 47.0015 60.0224C46.859 60.2279 46.7905 60.512 46.7905 60.8747C46.7905 61.2616 46.859 61.5639 47.0015 61.7755C47.1441 61.9871 47.338 62.0959 47.5947 62.0959V62.0838Z" fill="white"/>
<path d="M52.7106 60.2944C52.7106 59.8773 52.5566 59.6476 52.2429 59.5931C51.9292 59.5387 51.5414 59.6113 51.068 59.7987L50.9597 59.3453C51.3361 59.176 51.7125 59.0854 52.0775 59.0672C52.4425 59.0491 52.7448 59.1337 52.9901 59.3272C53.2296 59.5206 53.3494 59.8349 53.3494 60.2762V62.6097H52.7106V62.1623C52.4026 62.4948 52.049 62.658 51.6384 62.658C51.3646 62.658 51.1536 62.5734 50.9939 62.4041C50.8399 62.2349 50.76 62.0173 50.76 61.7513C50.76 61.4974 50.8399 61.2737 50.9939 61.0742C51.1536 60.8747 51.376 60.7236 51.6726 60.6269C51.9692 60.5301 52.3114 60.4878 52.7049 60.506V60.2944H52.7106ZM52.7106 60.9049C52.4311 60.8747 52.1916 60.8929 51.9863 60.9654C51.7809 61.0379 51.627 61.1407 51.5186 61.2676C51.4102 61.3946 51.3646 61.5336 51.3646 61.6666C51.3646 61.8178 51.4159 61.9326 51.5129 62.0112C51.6098 62.0898 51.741 62.1321 51.9007 62.1321C52.0604 62.1321 52.2144 62.1019 52.3399 62.0354C52.4653 61.9689 52.5908 61.8782 52.7106 61.7573V60.9049Z" fill="white"/>
<path d="M54.0509 62.6096V59.2062H54.6897V59.5629C54.8893 59.4117 55.0718 59.3029 55.2429 59.2364C55.4083 59.1699 55.5965 59.1337 55.7961 59.1337C56.1155 59.1337 56.3551 59.2304 56.5205 59.4178C56.6802 59.6052 56.7657 59.8772 56.7657 60.2339V62.6036H56.1269V60.4576C56.1269 60.0163 55.933 59.7926 55.5395 59.7926C55.3798 59.7926 55.2315 59.8289 55.0889 59.9014C54.9463 59.9739 54.8152 60.0646 54.6954 60.1613V62.5975H54.0566L54.0509 62.6096Z" fill="white"/>
<path d="M59.5718 62.253C59.452 62.3799 59.3094 62.4767 59.1497 62.5492C58.99 62.6218 58.8189 62.658 58.6535 62.658C58.2429 62.658 57.9349 62.5008 57.7182 62.1744C57.5014 61.848 57.3988 61.4248 57.3988 60.8807C57.3988 60.5301 57.4501 60.2158 57.5471 59.9498C57.644 59.6838 57.7923 59.4722 57.9862 59.3211C58.1801 59.17 58.414 59.0974 58.6934 59.0974C58.8531 59.0974 59.0128 59.1337 59.1668 59.2002C59.3208 59.2667 59.4577 59.3634 59.5718 59.4904H59.5661V57.9489H60.2048V62.6097H59.5718V62.253ZM59.5661 59.9317C59.4862 59.8652 59.3835 59.8047 59.2695 59.7503C59.1497 59.6959 59.0242 59.6717 58.8759 59.6717C58.6193 59.6717 58.4197 59.7805 58.2828 59.9921C58.1402 60.2037 58.0718 60.506 58.0718 60.8928C58.0718 61.2797 58.1402 61.582 58.2828 61.7936C58.4254 62.0051 58.6193 62.114 58.8759 62.114C59.0185 62.114 59.1497 62.0898 59.2695 62.0354C59.3892 61.981 59.4862 61.9205 59.5661 61.854V59.9438V59.9317Z" fill="white"/>
<path d="M62.8626 62.6339H62.1668V57.9912H63.9862C64.2656 57.9912 64.5052 58.0517 64.7219 58.1665C64.9329 58.2814 65.0983 58.4506 65.2181 58.6622C65.3379 58.8738 65.3949 59.1217 65.3949 59.4058C65.3949 59.6899 65.3379 59.9498 65.2238 60.1614C65.1097 60.373 64.9443 60.5362 64.7333 60.6511C64.5223 60.7659 64.277 60.8203 63.9919 60.8203H62.8683V62.6339H62.8626ZM63.9234 60.2037C64.1687 60.2037 64.3626 60.1372 64.4938 60.0042C64.6306 59.8713 64.6934 59.6718 64.6934 59.3997C64.6934 59.1277 64.6249 58.9463 64.4881 58.8134C64.3512 58.6804 64.163 58.6078 63.9234 58.6078H62.8626V60.1977H63.9234V60.2037Z" fill="white"/>
<path d="M66.6382 60.9472C66.6496 61.3281 66.7466 61.6182 66.9177 61.8177C67.0945 62.0172 67.3626 62.1139 67.7333 62.1139C67.9044 62.1139 68.0584 62.1018 68.1896 62.0777C68.3264 62.0535 68.4633 62.0172 68.6002 61.9628L68.7599 62.4343C68.5318 62.531 68.3378 62.5915 68.1724 62.6157C68.007 62.6399 67.8188 62.658 67.6192 62.658C67.0717 62.658 66.661 62.5008 66.3816 62.1804C66.1021 61.86 65.9652 61.4127 65.9652 60.8384C65.9652 60.4636 66.0223 60.1372 66.142 59.8591C66.2618 59.581 66.4329 59.3694 66.661 59.2183C66.8892 59.0672 67.1515 58.9946 67.4595 58.9946C67.7675 58.9946 68.0242 59.0793 68.2238 59.2425C68.4291 59.4057 68.5717 59.6354 68.6572 59.9316C68.7428 60.2278 68.7656 60.5664 68.72 60.9472H66.6325H66.6382ZM68.1724 60.5301C68.1724 60.3246 68.1439 60.1432 68.0869 59.986C68.0299 59.8228 67.95 59.7019 67.8416 59.6112C67.7333 59.5206 67.6078 59.4782 67.4538 59.4782C67.2143 59.4782 67.0261 59.575 66.8835 59.7624C66.7409 59.9498 66.661 60.2037 66.6439 60.5301H68.1781H68.1724Z" fill="white"/>
<path d="M69.507 62.6096V59.2062H70.1458V59.8349C70.2884 59.6112 70.4595 59.448 70.6591 59.3452C70.8587 59.2364 71.0698 59.1881 71.2865 59.1941V59.7261C71.1382 59.714 70.9842 59.7382 70.8245 59.7986C70.6648 59.8591 70.5279 59.9377 70.4082 60.0404C70.2884 60.1432 70.1972 60.246 70.1401 60.3548V62.6096H69.5013H69.507Z" fill="white"/>
<path d="M73.431 59.2728L73.334 59.7926H72.6097V62.6278H71.9709V59.7926H71.4405L71.5603 59.2728H71.9709V58.8556C71.9709 58.5594 72.0336 58.3176 72.1591 58.1363C72.2846 57.9549 72.4614 57.8461 72.6895 57.8159C72.9177 57.7856 73.18 57.8401 73.4709 57.973L73.4139 58.4204C73.1344 58.2934 72.9291 58.2753 72.7979 58.372C72.6667 58.4687 72.604 58.638 72.604 58.8919V59.2788H73.4196L73.431 59.2728Z" fill="white"/>
<path d="M75.1078 62.658C74.7884 62.658 74.5203 62.5794 74.2979 62.4343C74.0755 62.2832 73.91 62.0716 73.8017 61.8056C73.6933 61.5396 73.6363 61.2313 73.6363 60.8868C73.6363 60.5422 73.6933 60.2339 73.8017 59.9619C73.91 59.6959 74.0755 59.4843 74.2979 59.3332C74.5203 59.182 74.7884 59.1095 75.1078 59.1095C75.4272 59.1095 75.6952 59.1881 75.9176 59.3332C76.1344 59.4843 76.2998 59.6959 76.4138 59.9619C76.5279 60.2279 76.5792 60.5362 76.5792 60.8868C76.5792 61.2374 76.5222 61.5396 76.4138 61.8056C76.3055 62.0716 76.1401 62.2832 75.9176 62.4343C75.7009 62.5855 75.4272 62.658 75.1078 62.658ZM75.1078 59.6052C74.8169 59.6052 74.6002 59.7261 74.4519 59.9619C74.3036 60.2037 74.2294 60.5059 74.2294 60.8807C74.2294 61.2555 74.3036 61.5638 74.4519 61.7996C74.6002 62.0414 74.8169 62.1563 75.1078 62.1563C75.3986 62.1563 75.6097 62.0354 75.7522 61.7996C75.8948 61.5638 75.969 61.2555 75.969 60.8747C75.969 60.4938 75.8948 60.1855 75.7522 59.9498C75.6097 59.714 75.3929 59.5931 75.1078 59.5931V59.6052Z" fill="white"/>
<path d="M77.218 62.6096V59.2062H77.8568V59.8349C77.9993 59.6112 78.1704 59.448 78.3701 59.3452C78.5697 59.2364 78.7807 59.1881 78.9974 59.1941V59.7261C78.8491 59.714 78.6952 59.7382 78.5355 59.7986C78.3758 59.8591 78.2389 59.9377 78.1191 60.0404C77.9993 60.1432 77.9081 60.246 77.8511 60.3548V62.6096H77.2123H77.218Z" fill="white"/>
<path d="M80.0241 59.6899C80.1895 59.5146 80.3606 59.3755 80.526 59.2849C80.6914 59.1942 80.8853 59.1398 81.0963 59.1398C81.5469 59.1398 81.8377 59.3332 81.9689 59.7201C82.1685 59.5146 82.3624 59.3695 82.545 59.2788C82.7275 59.1881 82.9214 59.1398 83.1324 59.1398C83.4518 59.1398 83.6913 59.2365 83.8567 59.4239C84.0221 59.6113 84.102 59.8833 84.102 60.24V62.6097H83.4575V60.4637C83.4575 60.0224 83.2636 59.7987 82.8701 59.7987C82.6077 59.7987 82.3339 59.9256 82.0488 60.1856C82.0602 60.2521 82.0659 60.3488 82.0659 60.4637V62.6097H81.4271V60.4637C81.4271 60.0224 81.2275 59.7987 80.8339 59.7987C80.68 59.7987 80.5374 59.835 80.4119 59.9075C80.2864 59.98 80.1552 60.0647 80.0298 60.1735V62.6097H79.391V59.2063H80.0298V59.6899H80.0241Z" fill="white"/>
<path d="M86.7027 60.2944C86.7027 59.8773 86.5487 59.6476 86.235 59.5931C85.9213 59.5387 85.5335 59.6113 85.0601 59.7987L84.9517 59.3453C85.3282 59.176 85.7046 59.0854 86.0696 59.0672C86.4346 59.0491 86.7369 59.1337 86.9821 59.3272C87.2217 59.5206 87.3415 59.8349 87.3415 60.2762V62.6097H86.7027V62.1623C86.3947 62.4948 86.0411 62.658 85.6305 62.658C85.3567 62.658 85.1457 62.5734 84.986 62.4041C84.832 62.2349 84.7521 62.0173 84.7521 61.7513C84.7521 61.4974 84.832 61.2737 84.986 61.0742C85.1457 60.8747 85.3681 60.7236 85.6647 60.6269C85.9612 60.5301 86.3034 60.4878 86.697 60.506V60.2944H86.7027ZM86.7027 60.9049C86.4232 60.8747 86.1837 60.8929 85.9784 60.9654C85.773 61.0379 85.619 61.1407 85.5107 61.2676C85.4023 61.3946 85.3567 61.5336 85.3567 61.6666C85.3567 61.8178 85.408 61.9326 85.505 62.0112C85.6019 62.0898 85.7331 62.1321 85.8928 62.1321C86.0525 62.1321 86.2065 62.1019 86.332 62.0354C86.4574 61.9689 86.5829 61.8782 86.7027 61.7573V60.9049Z" fill="white"/>
<path d="M88.043 62.6096V59.2062H88.6818V59.5629C88.8814 59.4117 89.0639 59.3029 89.235 59.2364C89.4004 59.1699 89.5886 59.1337 89.7882 59.1337C90.1076 59.1337 90.3472 59.2304 90.5126 59.4178C90.6723 59.6052 90.7578 59.8772 90.7578 60.2339V62.6036H90.119V60.4576C90.119 60.0163 89.9251 59.7926 89.5316 59.7926C89.3719 59.7926 89.2236 59.8289 89.081 59.9014C88.9384 59.9739 88.8073 60.0646 88.6875 60.1613V62.5975H88.0487L88.043 62.6096Z" fill="white"/>
<path d="M93.8833 62.4706C93.7065 62.5432 93.5468 62.5915 93.4099 62.6218C93.273 62.6459 93.1247 62.6641 92.965 62.6641C92.6399 62.6641 92.3605 62.5915 92.1209 62.4465C91.8814 62.3014 91.6989 62.0958 91.5677 61.8178C91.4422 61.5457 91.3738 61.2193 91.3738 60.8385C91.3738 60.4576 91.4365 60.1312 91.5677 59.8591C91.6989 59.5871 91.8814 59.3755 92.1209 59.2304C92.3605 59.0854 92.6456 59.0128 92.965 59.0128C93.1076 59.0128 93.2616 59.0309 93.4099 59.0612C93.5639 59.0914 93.7065 59.1337 93.8433 59.176L93.6722 59.6778H93.6608C93.5239 59.6294 93.4099 59.5992 93.3243 59.5871C93.2331 59.569 93.1361 59.5629 93.0392 59.5629C92.7255 59.5629 92.4745 59.6717 92.2977 59.8954C92.1209 60.1191 92.0297 60.4334 92.0297 60.8385C92.0297 61.2435 92.1209 61.5518 92.2977 61.7755C92.4745 61.9991 92.7255 62.1079 93.0392 62.1079C93.2445 62.1079 93.4783 62.0535 93.7407 61.9447L93.889 62.4646L93.8833 62.4706Z" fill="white"/>
<path d="M95.081 60.9472C95.0924 61.3281 95.1893 61.6182 95.3604 61.8177C95.5372 62.0172 95.8053 62.1139 96.176 62.1139C96.3471 62.1139 96.5011 62.1018 96.6323 62.0777C96.7692 62.0535 96.906 62.0172 97.0429 61.9628L97.2026 62.4343C96.9745 62.531 96.7806 62.5915 96.6152 62.6157C96.4498 62.6399 96.2616 62.658 96.0619 62.658C95.5144 62.658 95.1038 62.5008 94.8243 62.1804C94.5448 61.86 94.408 61.4127 94.408 60.8384C94.408 60.4636 94.465 60.1372 94.5848 59.8591C94.7045 59.581 94.8756 59.3694 95.1038 59.2183C95.3319 59.0672 95.5943 58.9946 95.9022 58.9946C96.2102 58.9946 96.4669 59.0793 96.6665 59.2425C96.8718 59.4057 97.0144 59.6354 97.1 59.9316C97.1855 60.2278 97.2083 60.5664 97.1627 60.9472H95.0753H95.081ZM96.6152 60.5301C96.6152 60.3246 96.5866 60.1432 96.5296 59.986C96.4726 59.8228 96.3927 59.7019 96.2844 59.6112C96.176 59.5206 96.0505 59.4782 95.8965 59.4782C95.657 59.4782 95.4688 59.575 95.3262 59.7624C95.1836 59.9498 95.1038 60.2037 95.0867 60.5301H96.6209H96.6152Z" fill="white"/>
<path d="M99.2102 57.9912H100.801C101.429 57.9912 101.896 58.1907 102.21 58.5957C102.524 58.9947 102.678 59.5629 102.678 60.2944C102.678 61.0259 102.524 61.6183 102.21 62.0233C101.896 62.4344 101.429 62.6339 100.801 62.6339H99.2102V57.9912ZM100.796 62.0112C101.189 62.0112 101.48 61.8662 101.68 61.582C101.879 61.2979 101.976 60.8687 101.976 60.2884C101.976 59.708 101.879 59.297 101.68 59.0249C101.486 58.7469 101.189 58.6139 100.79 58.6139H99.8946V62.0112H100.79H100.796Z" fill="white"/>
<path d="M103.99 60.9472C104.001 61.3281 104.098 61.6182 104.269 61.8177C104.446 62.0172 104.714 62.1139 105.085 62.1139C105.256 62.1139 105.41 62.1018 105.541 62.0777C105.678 62.0535 105.815 62.0172 105.952 61.9628L106.111 62.4343C105.883 62.531 105.689 62.5915 105.524 62.6157C105.358 62.6399 105.17 62.658 104.971 62.658C104.423 62.658 104.012 62.5008 103.733 62.1804C103.454 61.86 103.317 61.4127 103.317 60.8384C103.317 60.4636 103.374 60.1372 103.493 59.8591C103.613 59.581 103.784 59.3694 104.012 59.2183C104.241 59.0672 104.503 58.9946 104.811 58.9946C105.119 58.9946 105.376 59.0793 105.575 59.2425C105.78 59.4057 105.923 59.6354 106.009 59.9316C106.094 60.2278 106.117 60.5664 106.071 60.9472H103.984H103.99ZM105.524 60.5301C105.524 60.3246 105.495 60.1432 105.438 59.986C105.381 59.8228 105.301 59.7019 105.193 59.6112C105.085 59.5206 104.959 59.4782 104.805 59.4782C104.566 59.4782 104.377 59.575 104.235 59.7624C104.092 59.9498 104.012 60.2037 103.995 60.5301H105.53H105.524Z" fill="white"/>
<path d="M107.491 59.5024C107.611 59.3755 107.754 59.2788 107.914 59.2062C108.073 59.1337 108.239 59.0974 108.41 59.0974C108.82 59.0974 109.128 59.2546 109.345 59.581C109.562 59.9075 109.664 60.3306 109.664 60.8747C109.664 61.2253 109.613 61.5396 109.516 61.8056C109.419 62.0716 109.271 62.2832 109.077 62.4343C108.883 62.5855 108.649 62.658 108.376 62.658C108.216 62.658 108.056 62.6217 107.902 62.5552C107.748 62.4887 107.611 62.392 107.497 62.2651H107.503V63.8066H106.864V59.17H107.497V59.5085L107.491 59.5024ZM107.497 61.8298C107.577 61.9024 107.68 61.9628 107.794 62.0172C107.914 62.0716 108.039 62.0958 108.182 62.0958C108.444 62.0958 108.644 61.987 108.78 61.7754C108.917 61.5638 108.991 61.2616 108.991 60.8686C108.991 60.512 108.923 60.2339 108.78 60.0284C108.638 59.8228 108.438 59.7201 108.182 59.7201C108.039 59.7201 107.914 59.7442 107.794 59.7986C107.674 59.8531 107.577 59.9135 107.497 59.986V61.8238V61.8298Z" fill="white"/>
<path d="M112.197 60.2944C112.197 59.8773 112.043 59.6476 111.729 59.5931C111.415 59.5387 111.028 59.6113 110.554 59.7987L110.446 59.3453C110.822 59.176 111.199 59.0854 111.564 59.0672C111.929 59.0491 112.231 59.1337 112.476 59.3272C112.716 59.5206 112.836 59.8349 112.836 60.2762V62.6097H112.197V62.1623C111.889 62.4948 111.535 62.658 111.125 62.658C110.851 62.658 110.64 62.5734 110.48 62.4041C110.326 62.2349 110.246 62.0173 110.246 61.7513C110.246 61.4974 110.326 61.2737 110.48 61.0742C110.64 60.8747 110.862 60.7236 111.159 60.6269C111.455 60.5301 111.798 60.4878 112.191 60.506V60.2944H112.197ZM112.197 60.9049C111.917 60.8747 111.678 60.8929 111.472 60.9654C111.267 61.0379 111.113 61.1407 111.005 61.2676C110.896 61.3946 110.851 61.5336 110.851 61.6666C110.851 61.8178 110.902 61.9326 110.999 62.0112C111.096 62.0898 111.227 62.1321 111.387 62.1321C111.547 62.1321 111.701 62.1019 111.826 62.0354C111.952 61.9689 112.077 61.8782 112.197 61.7573V60.9049Z" fill="white"/>
<path d="M113.537 62.6096V59.2062H114.176V59.8349C114.318 59.6112 114.49 59.448 114.689 59.3452C114.889 59.2364 115.1 59.1881 115.317 59.1941V59.7261C115.168 59.714 115.014 59.7382 114.855 59.7986C114.695 59.8591 114.558 59.9377 114.438 60.0404C114.318 60.1432 114.227 60.246 114.17 60.3548V62.6096H113.531H113.537Z" fill="white"/>
<path d="M116.486 61.7936C116.486 61.9266 116.52 62.0233 116.583 62.0898C116.645 62.1563 116.731 62.1865 116.845 62.1865C116.896 62.1865 116.953 62.1865 117.022 62.1745C117.09 62.1624 117.13 62.1563 117.147 62.1442V62.646C117.079 62.6641 116.988 62.6762 116.874 62.6883C116.759 62.7004 116.668 62.7004 116.6 62.7004C116.332 62.7004 116.138 62.6278 116.024 62.4888C115.91 62.3498 115.853 62.1382 115.853 61.8541V59.7866H115.425L115.522 59.2728H115.853V58.4325L116.491 58.2572V59.2728H117.182L117.085 59.7866H116.491V61.7936H116.486Z" fill="white"/>
<path d="M118.248 59.6899C118.413 59.5146 118.585 59.3755 118.75 59.2849C118.915 59.1942 119.109 59.1398 119.32 59.1398C119.771 59.1398 120.062 59.3332 120.193 59.7201C120.393 59.5146 120.586 59.3695 120.769 59.2788C120.951 59.1881 121.145 59.1398 121.356 59.1398C121.676 59.1398 121.915 59.2365 122.081 59.4239C122.246 59.6113 122.326 59.8833 122.326 60.24V62.6097H121.681V60.4637C121.681 60.0224 121.488 59.7987 121.094 59.7987C120.832 59.7987 120.558 59.9256 120.273 60.1856C120.284 60.2521 120.29 60.3488 120.29 60.4637V62.6097H119.651V60.4637C119.651 60.0224 119.451 59.7987 119.058 59.7987C118.904 59.7987 118.761 59.835 118.636 59.9075C118.51 59.98 118.379 60.0647 118.254 60.1735V62.6097H117.615V59.2063H118.254V59.6899H118.248Z" fill="white"/>
<path d="M123.672 60.9472C123.683 61.3281 123.78 61.6182 123.951 61.8177C124.128 62.0172 124.396 62.1139 124.767 62.1139C124.938 62.1139 125.092 62.1018 125.223 62.0777C125.36 62.0535 125.497 62.0172 125.634 61.9628L125.794 62.4343C125.565 62.531 125.372 62.5915 125.206 62.6157C125.041 62.6399 124.853 62.658 124.653 62.658C124.105 62.658 123.695 62.5008 123.415 62.1804C123.136 61.86 122.999 61.4127 122.999 60.8384C122.999 60.4636 123.056 60.1372 123.176 59.8591C123.296 59.581 123.467 59.3694 123.695 59.2183C123.923 59.0672 124.185 58.9946 124.493 58.9946C124.801 58.9946 125.058 59.0793 125.257 59.2425C125.463 59.4057 125.605 59.6354 125.691 59.9316C125.777 60.2278 125.799 60.5664 125.754 60.9472H123.666H123.672ZM125.206 60.5301C125.206 60.3246 125.178 60.1432 125.121 59.986C125.064 59.8228 124.984 59.7019 124.875 59.6112C124.767 59.5206 124.642 59.4782 124.488 59.4782C124.248 59.4782 124.06 59.575 123.917 59.7624C123.775 59.9498 123.695 60.2037 123.678 60.5301H125.212H125.206Z" fill="white"/>
<path d="M126.541 62.6096V59.2062H127.18V59.5629C127.379 59.4117 127.562 59.3029 127.733 59.2364C127.898 59.1699 128.086 59.1337 128.286 59.1337C128.605 59.1337 128.845 59.2304 129.01 59.4178C129.17 59.6052 129.256 59.8772 129.256 60.2339V62.6036H128.617V60.4576C128.617 60.0163 128.423 59.7926 128.029 59.7926C127.87 59.7926 127.721 59.8289 127.579 59.9014C127.436 59.9739 127.305 60.0646 127.185 60.1613V62.5975H126.546L126.541 62.6096Z" fill="white"/>
<path d="M130.727 61.7936C130.727 61.9266 130.761 62.0233 130.824 62.0898C130.887 62.1563 130.972 62.1865 131.086 62.1865C131.138 62.1865 131.195 62.1865 131.263 62.1745C131.332 62.1624 131.372 62.1563 131.389 62.1442V62.646C131.32 62.6641 131.229 62.6762 131.115 62.6883C131.001 62.7004 130.91 62.7004 130.841 62.7004C130.573 62.7004 130.379 62.6278 130.265 62.4888C130.151 62.3498 130.094 62.1382 130.094 61.8541V59.7866H129.666L129.763 59.2728H130.094V58.4325L130.733 58.2572V59.2728H131.423L131.326 59.7866H130.733V61.7936H130.727Z" fill="white"/>
<path d="M150.404 34.7717L137.44 62.8212V39.6683C137.44 36.9661 139.653 34.7717 142.379 34.7717H150.404Z" fill="white"/>
<path d="M160.63 11.5946V43.519L151.55 61.5578C151.55 61.5578 151.544 61.5759 151.539 61.5819C151.219 62.3134 150.483 62.8212 149.634 62.8212H137.44L150.404 34.7717L160.63 11.5946Z" fill="#17968C"/>
<path d="M161.115 11.5946L160.63 12.6404V11.5946H161.115Z" fill="white"/>
<path d="M174.905 12.6404V23.2557L160.63 62.8212V12.6404L161.115 11.5946H173.85C174.432 11.5946 174.905 12.0661 174.905 12.6404Z" fill="white"/>
<path d="M183.825 0V38.0905L174.831 61.5336C174.814 61.5759 174.797 61.6182 174.78 61.6666C174.517 62.3376 173.85 62.8212 173.08 62.8212H160.63L174.905 23.2557L183.825 0Z" fill="#17968C"/>
<path d="M198.095 25.6012L192.974 30.3346L197.947 32.263L184.407 61.5517C184.356 61.6605 184.327 61.7693 184.327 61.8721L183.825 38.0905V0H197.559C197.856 0 198.095 0.235761 198.095 0.531973V25.6012Z" fill="white"/>
<path d="M197.947 32.2629L184.327 61.8721C184.327 61.7633 184.356 61.6545 184.407 61.5517L197.947 32.2629Z" fill="white"/>
<path d="M215 38.8763L210.049 36.954L198.512 61.9809C198.278 62.4887 197.764 62.8212 197.205 62.8212H185.228C184.692 62.8212 184.299 62.3678 184.327 61.8781C184.327 61.7693 184.356 61.6605 184.407 61.5577L197.947 32.269L198.095 32.3234V31.9365L197.947 32.2629L192.974 30.3345L198.095 25.6012L213.295 11.5402L213.933 21.8048L214.304 27.7472L215 38.8824V38.8763Z" fill="#17968C"/>
<path d="M197.947 32.263L198.096 32.3234V31.9365L197.947 32.263Z" fill="#17968C"/>
</g>
<defs>
<clipPath id="clip0_180_1222">
<rect width="215" height="64" fill="white"/>
</clipPath>
</defs>
</svg>
