<svg width="256" height="194" viewBox="0 0 256 194" fill="none" xmlns="http://www.w3.org/2000/svg">
<path d="M129.045 69.9655C97.62 70.3929 66.1895 70.6688 34.7574 71.1068C23.1725 71.269 2.30826 72.9712 2.2446 56.2889C2.17033 37.2147 24.4124 38.8092 37.9799 38.7062C75.5917 38.403 113.232 38.0271 150.846 37.7679C152.096 37.7603 152.107 35.5383 150.846 35.5489L39.6184 36.4583C24.3579 36.5735 -0.204853 34.7758 0.0012892 56.4177C0.181663 75.1917 22.2237 73.6639 35.1985 73.4032C66.526 72.7726 80.1695 70.7133 111.5 70.1904C112.923 70.1661 118 70.1099 129.045 69.9655Z" fill="#0F5755"/>
<path d="M26.9455 64.2631C29.0888 66.1745 31.0381 64.63 28.6689 62.5716C26.2998 60.5132 24.6173 58.0562 23.7124 57.3559C29.5966 50.6745 20.1792 42.0013 13.0643 47.0488C5.35066 52.5267 13.6706 63.9357 21.9875 58.8064C23.3017 59.6628 25.163 62.6807 26.9455 64.2631ZM14.8105 48.6509C20.396 45.1056 26.1225 52.1826 21.5995 56.313C15.9912 61.4529 8.34578 52.7632 14.8105 48.6585V48.6509Z" fill="#16968C"/>
<path d="M182.301 38.065C183.626 38.0938 183.379 34.8319 182.398 34.9289C181.417 35.0259 181.308 38.0437 182.301 38.065Z" fill="#191919"/>
<path d="M173.171 28.3992C172.394 28.4364 171.642 28.6888 171 29.1283C170.357 29.5678 169.85 30.177 169.533 30.888C169.189 31.8369 170.041 31.9657 170.611 31.5353C171.35 30.8584 172.272 30.4158 173.262 30.2635C174.72 30.0529 174.605 28.4628 173.171 28.3992Z" fill="#191919"/>
<path d="M184.531 30.7487C184.343 30.1924 184.018 29.6929 183.584 29.2971C183.151 28.9013 182.624 28.6221 182.053 28.4857C181.947 28.4517 181.836 28.4389 181.726 28.4478C181.616 28.4568 181.508 28.4875 181.41 28.538C181.311 28.5885 181.223 28.658 181.152 28.7423C181.08 28.8267 181.026 28.9244 180.992 29.0298C180.958 29.1352 180.945 29.2463 180.954 29.3566C180.963 29.467 180.994 29.5745 181.044 29.673C181.095 29.7715 181.164 29.8592 181.248 29.9308C181.333 30.0025 181.431 30.0569 181.536 30.0908C182.263 30.3559 182.882 30.8563 183.293 31.5126C183.808 32.3084 184.801 31.9112 184.531 30.7487Z" fill="#191919"/>
<path d="M175.053 44.7798C176.652 45.1709 180.494 44.8571 180.549 42.7214C180.561 42.2258 178.948 39.5838 178.199 36.9616C178.06 36.4765 177.299 36.5948 177.455 37.8028C177.814 40.5812 179.191 42.1136 179.072 42.6956C177.046 43.6051 175.517 42.9882 174.828 43.4535C174.709 43.532 174.616 43.6434 174.559 43.7741C174.502 43.9048 174.485 44.0492 174.508 44.1898C174.532 44.3303 174.596 44.4609 174.693 44.5656C174.79 44.6704 174.915 44.7448 175.053 44.7798Z" fill="#191919"/>
<path d="M172.903 34.3468C171.824 34.0528 171.448 37.2358 172.634 37.4405C173.819 37.6451 174.033 34.656 172.903 34.3468Z" fill="#191919"/>
<path d="M170.521 46.5033C170.313 45.5863 169.443 45.9864 169.443 46.8383C169.512 47.7416 169.937 48.5807 170.624 49.171C171.312 49.7613 172.205 50.0546 173.108 49.9865C174.279 49.8971 174.533 48.5572 173.496 48.5405C172.01 48.5177 170.889 48.1146 170.521 46.5033Z" fill="#191919"/>
<path d="M200.287 20.8311C201.363 19.3653 200.202 18.5575 198.519 19.9216C195.164 22.6776 191.258 24.6838 187.063 25.8058C186.921 25.8606 186.802 25.9633 186.727 26.0964C186.651 26.2294 186.625 26.3844 186.652 26.5347C186.678 26.6851 186.757 26.8215 186.873 26.9206C186.989 27.0196 187.136 27.0751 187.289 27.0775C190.621 27.076 198.215 23.6549 200.287 20.8311Z" fill="#191919"/>
<path d="M203.897 28.3658C207.356 26.9864 209.084 23.7655 210.159 22.9773C210.886 22.4437 211.675 22.9636 212.464 23.0425C212.626 23.0588 212.788 23.0229 212.928 22.9399C213.068 22.857 213.177 22.7314 213.24 22.5816C213.302 22.4319 213.316 22.2659 213.277 22.1082C213.238 21.9505 213.15 21.8094 213.025 21.7056C212.608 21.2948 212.082 21.011 211.51 20.887C210.938 20.763 210.342 20.8041 209.792 21.0053C208.358 21.6207 205.396 25.8648 203.208 27.2017C203.131 27.247 203.064 27.3069 203.011 27.3779C202.958 27.449 202.919 27.5299 202.897 27.616C202.875 27.7021 202.87 27.7916 202.883 27.8796C202.895 27.9675 202.925 28.0521 202.97 28.1286C203.016 28.205 203.076 28.2718 203.147 28.325C203.218 28.3783 203.299 28.4171 203.385 28.4391C203.471 28.4612 203.56 28.466 203.648 28.4534C203.736 28.4408 203.821 28.4111 203.897 28.3658Z" fill="#191919"/>
<path d="M205.859 20.5099C206.23 19.7429 205.101 18.8501 204.543 19.4867C201.151 23.4095 199.338 24.2068 194.348 27.3535C194.233 27.4488 194.151 27.5786 194.115 27.7237C194.078 27.8688 194.089 28.0217 194.146 28.1601C194.203 28.2986 194.302 28.4153 194.43 28.4932C194.558 28.5711 194.707 28.6062 194.856 28.5934C198.395 27.881 204.534 23.2564 205.859 20.5099Z" fill="#191919"/>
<path d="M183.269 23.9262C187.58 23.761 193.199 20.875 197.001 18.5377C200.312 16.5006 199.909 17.1281 204.112 16.8022C207.341 16.5513 210.585 16.5513 213.813 16.8022C218.417 17.1645 219.282 18.9424 222.301 22.0073C222.735 22.4469 223.74 22.1816 223.529 21.4374C222.423 17.5116 217.677 15.1607 213.906 14.8302C211.858 14.6514 198.819 15.0045 197.675 15.7473C193.18 18.6594 188.252 20.8418 183.074 22.2134C182.204 22.5257 182.289 23.9641 183.269 23.9262Z" fill="#191919"/>
<path d="M196.121 15.9291C196.345 15.8771 196.544 15.748 196.683 15.5644C196.821 15.3807 196.891 15.1543 196.879 14.9245C196.867 14.6948 196.776 14.4764 196.619 14.3076C196.463 14.1388 196.252 14.0303 196.024 14.0011C192.073 13.4615 190.851 12.308 188.706 11.5107C188.415 11.4031 186.992 11.5016 187.985 12.5884C190.23 14.6079 193.105 15.7882 196.121 15.9291Z" fill="#191919"/>
<path d="M127.415 165.696C126.201 165.007 125.041 164.229 123.944 163.368C123.351 162.969 122.629 163.81 123.007 164.359C127.789 171.331 142.537 170.248 140.938 167.719C140.039 166.296 134.392 169.561 127.415 165.696Z" fill="#191919"/>
<path d="M121.863 169.802C124.689 174.542 135.202 175.638 140.184 174.113C141.068 173.841 140.604 172.507 139.84 172.658C137.2 173.176 127.812 173.681 122.864 168.68C122.359 168.282 121.465 169.133 121.863 169.802Z" fill="#191919"/>
<path d="M139.193 162.99C136.081 162.162 128.478 163.351 124.698 157.517C123.797 156.139 123.349 154.515 123.416 152.871C123.211 150.985 120.183 152.774 122.855 157.958C125.527 163.142 132.718 165.285 139.225 164.424C139.96 164.327 139.872 163.172 139.193 162.99Z" fill="#191919"/>
<path d="M134.075 179.328C134.252 179.317 134.419 179.246 134.549 179.125C134.678 179.005 134.762 178.844 134.786 178.669C134.811 178.493 134.773 178.315 134.681 178.164C134.588 178.014 134.447 177.899 134.28 177.841C128.697 176.477 126.525 177.588 121.132 172.906C117.896 170.096 113.593 168.591 110.893 165.221C110.323 164.509 109.226 165.394 109.632 166.159C111.592 169.814 116.441 171.522 120.301 174.781C124.143 178.001 129.071 179.628 134.075 179.328Z" fill="#191919"/>
<path d="M252.329 50.8139C247.994 40.6296 239.559 29.3191 229.632 22.7953C228.104 21.7903 227.283 21.2795 226.098 23.0636C224.912 24.8476 222.981 28.9386 215.268 30.5104C210.006 31.5821 211.281 32.0535 214.103 36.7614C218.472 44.0155 222.155 51.6606 225.106 59.5976C215.343 66.0638 186.185 75.4357 175.749 72.7559C173.766 72.2466 173.042 71.6782 172.263 73.4561C167.941 83.3888 151.726 78.8264 145.472 70.1594C144.023 68.1495 143.791 67.7903 141.646 68.2723C114.849 74.3095 86.5093 83.6541 67.7928 104.914C60.1034 113.648 57.7889 124.206 62.8348 134.874C69.4677 148.887 91.5749 162.49 105.673 166.402C106.685 166.682 107.417 165.464 108.119 164.052C110.831 158.431 114.907 153.578 119.974 149.935C120.491 149.515 119.974 148.571 119.434 148.233C110.059 142.232 101.599 134.911 94.3139 126.495C102.799 119.701 112.709 114.912 123.304 112.485C123.142 112.94 123.822 142.144 124.062 144.633C125.444 158.567 127.659 154.99 127.456 154.397C126.578 151.03 126.05 147.581 125.882 144.105C125.517 140.164 125.635 112.852 125.064 112.097C126.389 111.817 127.726 111.58 129.062 111.386C130.399 111.192 130.043 109.742 128.738 109.87C118.181 110.975 100.891 117.284 93.1755 125.249L90.2653 121.94C90.1459 121.834 89.9933 121.773 89.8337 121.767C89.674 121.761 89.5172 121.81 89.39 121.907C89.2628 122.003 89.173 122.141 89.1361 122.297C89.0992 122.452 89.1174 122.615 89.1876 122.759C95.966 132.986 107.152 142.767 117.412 149.421C112.995 152.807 107.542 158.764 105.935 164.295C92.5071 160.425 70.9516 146.971 64.8856 134.119C59.8382 123.426 62.2436 113.977 70.0695 105.431C91.4415 82.0883 131.087 73.2621 143.351 70.029C149.111 81.3562 169.324 86.4203 173.991 74.3398C186.621 77.4759 214.663 69.0271 225.849 61.6242C226.646 63.9751 227.516 68.9832 229.146 67.8312C229.254 67.7542 229.342 67.6522 229.402 67.534C229.462 67.4158 229.493 67.2848 229.491 67.1521C229.47 64.1676 224.086 51.2747 222.842 48.66C221.115 45.0298 216.483 36.0626 213.79 32.775C217.938 32.775 226.505 28.2065 227.95 23.8624C238.318 32.0641 245.366 39.7156 250.686 51.8825C256.006 64.0494 255.482 71.8904 245.987 79.751C230.83 92.3075 215.08 99.0101 196.554 103.46C195.127 97.4298 193.287 91.5044 191.047 85.7261C190.717 84.8667 189.094 85.1774 189.409 86.1142C198.465 113.01 201.004 148.954 201.479 174.948C186.391 190.176 140.941 197.722 121.429 185.165C120.761 184.735 122.958 179.916 122.69 179.119C122.063 177.255 120.597 180.056 119.962 184.012C119.616 186.167 119.866 186.035 121.535 187.127C139.992 199.191 186.818 192.847 202.415 176.607C203.628 175.343 203.151 175.131 203.126 173.471C202.778 148.765 201.639 130.633 196.941 105.232C215.393 101.602 232.642 93.4064 247.112 81.3941C258.104 72.2147 257.719 63.4795 252.329 50.8139Z" fill="#191919"/>
<path d="M198.698 68.0572C193.848 65.2333 188.514 54.705 186.39 38.5183C186.796 36.2076 187.031 33.87 187.092 31.5246C187.107 31.4438 187.105 31.3607 187.085 31.2808C187.066 31.2009 187.03 31.126 186.979 31.0611C186.929 30.9961 186.865 30.9426 186.792 30.9041C186.72 30.8655 186.64 30.8428 186.558 30.8374C186.476 30.832 186.393 30.8441 186.316 30.8728C186.239 30.9015 186.169 30.9462 186.111 31.004C186.052 31.0618 186.007 31.1313 185.977 31.2079C185.947 31.2846 185.934 31.3667 185.938 31.4488C185.367 38.5607 180.701 60.7346 170.175 59.5872C165.508 59.0779 162.2 53.2938 160.551 49.3816C160.475 49.2395 160.352 49.1284 160.203 49.0676C160.054 49.0068 159.888 49.0002 159.734 49.0488C159.581 49.0974 159.449 49.1982 159.362 49.3338C159.275 49.4693 159.238 49.631 159.258 49.7909C159.757 52.257 160.837 54.5686 162.408 56.5344C163.978 58.5002 165.994 60.0637 168.289 61.0954C167.769 64.7795 167.875 68.5249 168.601 72.174C168.768 72.994 170.143 72.853 170.078 72.0012C170.078 71.5707 170.012 71.1402 169.991 70.7082C172.762 68.8545 180.521 73.6397 198.698 68.0572Z" fill="#191919"/>
<path d="M100.115 78.5007C132.317 66.02 144.246 63.3053 148.483 67.2842C148.396 67.6404 148.321 67.9951 148.255 68.3619C148.116 69.1592 149.225 69.3759 149.56 68.7181C150.853 66.1747 157.836 40.9996 155.519 41.3224C152.739 41.7105 150.668 37.4527 152.033 33.4406C152.956 30.7456 156.343 30.5303 157.356 32.0067C157.438 32.1738 157.567 32.3133 157.728 32.4084C157.888 32.5034 158.072 32.5498 158.259 32.542C158.445 32.5341 158.625 32.4723 158.776 32.3641C158.928 32.2558 159.045 32.1059 159.113 31.9324C165.87 22.6742 176.801 27.4655 180.15 22.2316C181.731 19.7609 185.872 20.0762 190.786 17.0689C186.616 14.9136 184.621 12.3065 186.928 9.38562C183.178 -0.798692 159.42 -4.82452 146.526 8.30792C128.084 27.0971 133.869 55.3628 100.115 78.5007Z" fill="#191919"/>
</svg>
