<svg width="72" height="72" viewBox="0 0 72 72" fill="none" xmlns="http://www.w3.org/2000/svg">
<circle cx="35.7522" cy="35.7522" r="35.7522" fill="#04A777"/>
<path d="M35.9634 6.5937C36.0802 6.59394 36.197 6.59419 36.3174 6.59445C37.9938 6.60015 39.6384 6.62894 41.2851 6.97382C41.3969 6.99662 41.5088 7.01941 41.6241 7.0429C47.176 8.20428 52.2238 10.7193 56.3177 14.6623C56.4312 14.7711 56.4312 14.7711 56.547 14.8821C57.6358 15.9314 58.6387 16.9983 59.5308 18.2196C59.6293 18.3517 59.7277 18.4838 59.8262 18.6159C60.5191 19.5558 61.134 20.5328 61.7111 21.5475C61.7529 21.62 61.7948 21.6925 61.8379 21.7672C64.3172 26.0989 65.4379 31.0065 65.4191 35.9633C65.4188 36.0801 65.4186 36.1969 65.4183 36.3173C65.4126 37.9937 65.3838 39.6384 65.0389 41.285C65.0047 41.4528 65.0047 41.4528 64.9699 41.624C63.8085 47.1759 61.2935 52.2237 57.3505 56.3176C57.278 56.3933 57.2054 56.469 57.1307 56.5469C56.0813 57.6357 55.0144 58.6386 53.7931 59.5307C53.6611 59.6292 53.529 59.7276 53.3969 59.8261C52.4571 60.5189 51.4814 61.1366 50.4653 61.711C50.3842 61.7572 50.303 61.8033 50.2194 61.8509C47.5645 63.3456 44.6761 64.3495 41.6939 64.96C41.6114 64.9769 41.5289 64.9938 41.4439 65.0112C39.6677 65.3488 37.9106 65.4258 36.1068 65.419C35.9928 65.4188 35.8788 65.4186 35.7613 65.4184C34.0981 65.4132 32.4788 65.3603 30.8425 65.0389C30.7398 65.0204 30.637 65.0019 30.5311 64.9829C25.5271 64.0776 20.8064 61.8181 16.9574 58.4979C16.8719 58.4252 16.7864 58.3524 16.6983 58.2774C15.1486 56.922 13.6945 55.4589 12.482 53.7931C12.3838 53.6611 12.2854 53.5292 12.1871 53.3973C11.4939 52.4572 10.8789 51.48 10.3017 50.4652C10.2599 50.3927 10.2181 50.3202 10.175 50.2455C8.46158 47.252 7.37448 43.8859 6.85915 40.4817C6.8388 40.3533 6.81845 40.2249 6.79749 40.0927C6.60454 38.7475 6.58864 37.4138 6.59378 36.0565C6.59415 35.8809 6.59415 35.8809 6.59453 35.7017C6.60023 34.0232 6.62859 32.3764 6.9739 30.7277C6.9967 30.6158 7.0195 30.504 7.04299 30.3887C8.20436 24.8367 10.7193 19.7889 14.6624 15.695C14.7349 15.6194 14.8074 15.5437 14.8822 15.4658C15.9315 14.377 16.9984 13.374 18.2197 12.482C18.3518 12.3835 18.4839 12.285 18.616 12.1866C19.5557 11.4937 20.5314 10.876 21.5475 10.3017C21.6287 10.2555 21.7099 10.2094 21.7935 10.1618C24.4483 8.66709 27.3368 7.66314 30.319 7.05271C30.4015 7.0358 30.484 7.01889 30.569 7.00147C32.3644 6.66021 34.14 6.58675 35.9634 6.5937Z" fill="#04A777"/>
<path d="M35.9634 6.5937C36.0802 6.59394 36.197 6.59419 36.3174 6.59445C37.9938 6.60015 39.6384 6.62894 41.2851 6.97382C41.3969 6.99662 41.5088 7.01941 41.6241 7.0429C47.176 8.20428 52.2238 10.7193 56.3177 14.6623C56.4312 14.7711 56.4312 14.7711 56.547 14.8821C57.6358 15.9314 58.6387 16.9983 59.5308 18.2196C59.6293 18.3517 59.7277 18.4838 59.8262 18.6159C60.5191 19.5558 61.134 20.5328 61.7111 21.5475C61.7529 21.62 61.7948 21.6925 61.8379 21.7672C64.3172 26.0989 65.4379 31.0065 65.4191 35.9633C65.4188 36.0801 65.4186 36.1969 65.4183 36.3173C65.4126 37.9937 65.3838 39.6384 65.0389 41.285C65.0047 41.4528 65.0047 41.4528 64.9699 41.624C63.8085 47.1759 61.2935 52.2237 57.3505 56.3176C57.278 56.3933 57.2054 56.469 57.1307 56.5469C56.0813 57.6357 55.0144 58.6386 53.7931 59.5307C53.6611 59.6292 53.529 59.7276 53.3969 59.8261C52.4571 60.5189 51.4814 61.1366 50.4653 61.711C50.3842 61.7572 50.303 61.8033 50.2194 61.8509C47.5645 63.3456 44.6761 64.3495 41.6939 64.96C41.6114 64.9769 41.5289 64.9938 41.4439 65.0112C39.6677 65.3488 37.9106 65.4258 36.1068 65.419C35.9928 65.4188 35.8788 65.4186 35.7613 65.4184C34.0981 65.4132 32.4788 65.3603 30.8425 65.0389C30.7398 65.0204 30.637 65.0019 30.5311 64.9829C25.5271 64.0776 20.8064 61.8181 16.9574 58.4979C16.8719 58.4252 16.7864 58.3524 16.6983 58.2774C15.1486 56.922 13.6945 55.4589 12.482 53.7931C12.3838 53.6611 12.2854 53.5292 12.1871 53.3973C11.4939 52.4572 10.8789 51.48 10.3017 50.4652C10.2599 50.3927 10.2181 50.3202 10.175 50.2455C8.46158 47.252 7.37448 43.8859 6.85915 40.4817C6.8388 40.3533 6.81845 40.2249 6.79749 40.0927C6.60454 38.7475 6.58864 37.4138 6.59378 36.0565C6.59415 35.8809 6.59415 35.8809 6.59453 35.7017C6.60023 34.0232 6.62859 32.3764 6.9739 30.7277C6.9967 30.6158 7.0195 30.504 7.04299 30.3887C8.20436 24.8367 10.7193 19.7889 14.6624 15.695C14.7349 15.6194 14.8074 15.5437 14.8822 15.4658C15.9315 14.377 16.9984 13.374 18.2197 12.482C18.3518 12.3835 18.4839 12.285 18.616 12.1866C19.5557 11.4937 20.5314 10.876 21.5475 10.3017C21.6287 10.2555 21.7099 10.2094 21.7935 10.1618C24.4483 8.66709 27.3368 7.66314 30.319 7.05271C30.4015 7.0358 30.484 7.01889 30.569 7.00147C32.3644 6.66021 34.14 6.58675 35.9634 6.5937ZM32.5638 11.1049C32.4861 11.1166 32.4083 11.1283 32.3282 11.1403C26.8418 11.9704 22.0109 14.537 18.1049 18.4491C18.0183 18.5318 17.9316 18.6145 17.8423 18.6997C14.3393 22.0797 12.1129 26.838 11.2723 31.5862C11.2374 31.7781 11.1991 31.9693 11.1573 32.1598C10.9112 33.3807 10.945 34.6228 10.9472 35.8629C10.9472 35.9833 10.9472 36.1038 10.9472 36.2278C10.9499 37.8988 10.9954 39.5101 11.3875 41.1425C11.4452 41.3827 11.4945 41.623 11.5416 41.8655C12.0031 44.0125 12.9131 46.137 13.9738 48.0554C14.0158 48.1326 14.0577 48.2098 14.1009 48.2893C15.0783 50.0756 16.286 51.6923 17.7026 53.1554C17.8245 53.2814 17.9456 53.4082 18.0662 53.5356C21.7496 57.4224 26.6401 59.8464 31.8753 60.793C32.077 60.8303 32.077 60.8303 32.2828 60.8683C38.3074 61.931 44.9894 60.3664 50.0063 56.8914C51.0014 56.1923 51.9447 55.4551 52.8316 54.6223C53.0722 54.3971 53.3184 54.1841 53.5708 53.9724C57.4945 50.5332 59.8686 45.2987 60.7931 40.2522C60.8145 40.1377 60.8358 40.0231 60.8578 39.9051C61.0597 38.686 61.0633 37.4759 61.0585 36.243C61.0582 36.1337 61.058 36.0244 61.0578 35.9117C61.0526 34.2789 61.0096 32.6764 60.6783 31.072C60.6586 30.9757 60.6389 30.8795 60.6187 30.7804C59.6778 26.3579 57.563 22.324 54.4817 19.0229C54.3143 18.8317 54.1469 18.6404 53.9796 18.4491C50.8395 14.9793 46.3659 12.6532 41.8588 11.5639C41.771 11.5427 41.6832 11.5214 41.5927 11.4994C38.636 10.7981 35.5714 10.6261 32.5638 11.1049Z" fill="white"/>
<path d="M47.5703 24.0334C48.1916 24.404 48.6907 24.9431 49.2028 25.4481C49.3298 25.5718 49.3298 25.5718 49.4594 25.698C49.7382 25.9699 50.0158 26.243 50.293 26.5167C50.3822 26.6044 50.4715 26.6922 50.5635 26.7825C51.3282 27.5463 51.851 28.1329 51.8852 29.2564C51.8908 29.3811 51.8964 29.5058 51.9022 29.6343C51.7768 30.4777 51.1723 31.1034 50.5834 31.6857C50.5166 31.7531 50.4498 31.8205 50.381 31.8899C50.1593 32.1133 49.9363 32.3355 49.7133 32.5577C49.5531 32.7185 49.3931 32.8794 49.2331 33.0403C48.7997 33.4757 48.3653 33.91 47.9306 34.344C47.5673 34.707 47.2045 35.0705 46.8417 35.434C45.9855 36.2918 45.1285 37.1486 44.2709 38.0049C43.3873 38.8872 42.5051 39.771 41.6237 40.6555C40.8657 41.416 40.1069 42.1756 39.3473 42.9345C38.8941 43.3873 38.4413 43.8403 37.9894 44.2943C37.5643 44.7211 37.1381 45.1469 36.711 45.5718C36.5549 45.7275 36.3991 45.8836 36.2438 46.0401C34.7364 47.5583 34.7364 47.5583 33.8259 47.9397C33.7404 47.9765 33.6549 48.0134 33.5667 48.0514C32.5091 48.4832 31.454 48.3454 30.3928 48.0038C29.5213 47.5631 28.8111 46.8606 28.1274 46.1742C28.0462 46.0937 27.9651 46.0131 27.8815 45.9302C27.6168 45.667 27.3529 45.403 27.0891 45.139C26.9039 44.9542 26.7187 44.7695 26.5334 44.5847C26.1467 44.1989 25.7605 43.8127 25.3746 43.4261C24.8808 42.9317 24.3857 42.4385 23.8902 41.9457C23.5079 41.5651 23.1264 41.1837 22.7452 40.8021C22.563 40.6199 22.3805 40.438 22.1977 40.2564C21.9423 40.0025 21.688 39.7474 21.434 39.4921C21.3214 39.3808 21.3214 39.3808 21.2066 39.2673C20.5774 38.6308 20.1046 38.0382 20.1058 37.1027C20.1033 36.9821 20.1007 36.8615 20.0981 36.7373C20.266 35.8353 20.9424 35.1796 21.5711 34.5508C21.6496 34.4714 21.7281 34.392 21.809 34.3102C21.9742 34.1438 22.1398 33.9778 22.3058 33.8123C22.5583 33.5599 22.8083 33.3052 23.0582 33.0502C23.2198 32.888 23.3815 32.726 23.5434 32.5641C23.6172 32.4884 23.691 32.4128 23.767 32.3348C24.3586 31.7521 24.8903 31.4717 25.7287 31.365C26.8133 31.4982 27.475 32.1005 28.2089 32.8649C28.3031 32.9605 28.3973 33.0561 28.4944 33.1546C28.7932 33.458 29.0899 33.7633 29.3864 34.0689C29.6853 34.375 29.9846 34.6806 30.2846 34.9857C30.4706 35.175 30.6559 35.365 30.8405 35.5558C30.9664 35.6845 30.9664 35.6845 31.0949 35.8158C31.1682 35.8914 31.2415 35.9669 31.3171 36.0448C31.6387 36.3307 31.8935 36.4518 32.3198 36.5074C33.2471 36.3961 33.8963 35.5038 34.5173 34.8737C34.6325 34.7577 34.7478 34.6417 34.8631 34.5258C35.1104 34.277 35.3574 34.0278 35.6041 33.7784C35.9946 33.3837 36.386 32.99 36.7777 32.5965C37.891 31.4777 39.0029 30.3576 40.1138 29.2364C40.7281 28.6165 41.3431 27.9975 41.9591 27.3793C42.3483 26.9886 42.7364 26.5969 43.1238 26.2044C43.3653 25.9602 43.6078 25.7169 43.8506 25.4739C43.9626 25.3614 44.0743 25.2485 44.1855 25.1352C45.1632 24.1393 46.1345 23.4235 47.5703 24.0334Z" fill="white"/>
<path d="M34.5139 6.62873C42.7032 6.49611 50.3294 8.89457 56.317 14.6614C56.4305 14.7703 56.4305 14.7703 56.5463 14.8813C57.6351 15.9306 58.638 16.9975 59.5301 18.2188C59.6286 18.3509 59.727 18.483 59.8255 18.615C60.5184 19.555 61.1333 20.532 61.7104 21.5466C61.7522 21.6191 61.7941 21.6916 61.8371 21.7663C64.3165 26.0981 65.4372 31.0057 65.4184 35.9625C65.4181 36.0793 65.4179 36.1961 65.4176 36.3164C65.4119 37.9929 65.3831 39.6375 65.0382 41.2842C65.004 41.452 65.004 41.452 64.9692 41.6231C63.8078 47.1751 61.2928 52.2229 57.3498 56.3168C57.2772 56.3925 57.2047 56.4681 57.13 56.5461C56.0806 57.6349 55.0137 58.6378 53.7924 59.5299C53.6604 59.6284 53.5283 59.7268 53.3962 59.8253C52.4564 60.5181 51.4807 61.1358 50.4646 61.7102C50.3834 61.7564 50.3023 61.8025 50.2187 61.8501C47.5638 63.3448 44.6754 64.3487 41.6932 64.9591C41.6107 64.9761 41.5282 64.993 41.4432 65.0104C39.7609 65.3301 38.108 65.4145 36.4002 65.3966C36.2045 65.3955 36.0089 65.3944 35.8132 65.3935C35.3418 65.391 34.8705 65.3871 34.3992 65.3823C34.3992 65.3444 34.3992 65.3066 34.3992 65.2675C34.5054 65.2555 34.5054 65.2555 34.6137 65.2432C35.4615 65.1458 36.3077 65.0382 37.1532 64.9233C37.2542 64.9098 37.3552 64.8962 37.4592 64.8823C41.9363 64.2488 46.5361 62.1774 50.0056 59.3004C50.0998 59.2225 50.0998 59.2225 50.1959 59.143C50.6341 58.7796 51.0666 58.4102 51.4974 58.0381C51.5947 57.9551 51.692 57.8721 51.7923 57.7866C52.2769 57.3669 52.7143 56.9332 53.1277 56.4432C53.3493 56.1835 53.5812 55.9355 53.814 55.6857C54.9396 54.4337 55.8965 53.0526 56.7565 51.6079C56.8442 51.4607 56.9326 51.3139 57.0219 51.1677C58.5222 48.707 59.496 45.9162 60.2114 43.1345C60.2357 43.0411 60.26 42.9476 60.2851 42.8514C60.4169 42.3138 60.4544 41.8403 60.4481 41.2842C60.4897 40.954 60.5506 40.6283 60.6131 40.3016C60.644 40.1341 60.675 39.9666 60.7059 39.7991C60.7197 39.7261 60.7335 39.6531 60.7477 39.5779C60.7625 39.4972 60.7772 39.4165 60.7924 39.3334C60.8126 39.2315 60.8329 39.1296 60.8537 39.0246C60.9203 38.5513 60.9279 38.0886 60.9304 37.6112C60.9317 37.4614 60.9317 37.4614 60.9329 37.3086C60.9836 29.199 58.8001 21.7028 53.1743 15.6781C52.9666 15.4509 52.7687 15.2245 52.5741 14.9869C52.3595 14.7314 52.1593 14.5168 51.9062 14.3028C51.6118 14.053 51.3189 13.8023 51.0307 13.5453C50.0549 12.6817 49.0334 11.9269 47.94 11.2189C47.8732 11.175 47.8063 11.1311 47.7374 11.0859C43.7386 8.48578 39.2236 7.19812 34.5139 6.74349C34.5139 6.70562 34.5139 6.66775 34.5139 6.62873Z" fill="white"/>
<path d="M47.5703 24.0337C48.1916 24.4043 48.6908 24.9435 49.2029 25.4484C49.3299 25.5721 49.3299 25.5721 49.4594 25.6983C49.7383 25.9703 50.0159 26.2434 50.293 26.5171C50.3823 26.6048 50.4715 26.6925 50.5635 26.7829C51.3282 27.5467 51.851 28.1333 51.8852 29.2568C51.8909 29.3815 51.8965 29.5062 51.9023 29.6347C51.7768 30.4781 51.1724 31.1037 50.5834 31.6861C50.5166 31.7535 50.4499 31.8209 50.3811 31.8903C50.1593 32.1137 49.9363 32.3359 49.7133 32.558C49.5532 32.7188 49.3931 32.8797 49.2331 33.0407C48.7998 33.476 48.3654 33.9103 47.9307 34.3444C47.5673 34.7073 47.2045 35.0708 46.8417 35.4344C45.9856 36.2921 45.1285 37.149 44.2709 38.0053C43.3873 38.8876 42.5052 39.7713 41.6237 40.6558C40.8658 41.4163 40.1069 42.176 39.3473 42.9349C38.8942 43.3876 38.4414 43.8407 37.9894 44.2946C37.5643 44.7215 37.1381 45.1472 36.7111 45.5721C36.5549 45.7279 36.3992 45.884 36.2438 46.0405C34.7364 47.5587 34.7364 47.5587 33.826 47.94C33.7404 47.9769 33.6549 48.0138 33.5668 48.0518C32.5021 48.4864 31.4163 48.3602 30.3583 47.9732C29.8923 47.7572 29.5051 47.4755 29.1211 47.1368C29.4108 46.9919 29.5804 47.0299 29.9028 47.0507C31.0083 47.0609 31.9977 46.627 32.7932 45.8745C32.8689 45.8745 32.9447 45.8745 33.0227 45.8745C33.0227 45.7987 33.0227 45.723 33.0227 45.645C33.1805 45.4585 33.1805 45.4585 33.367 45.3007C33.4427 45.3007 33.5184 45.3007 33.5965 45.3007C33.6274 45.2325 33.6583 45.1642 33.6902 45.0939C33.8258 44.8421 33.9602 44.6794 34.1621 44.4787C34.2308 44.4099 34.2995 44.341 34.3703 44.2701C34.4455 44.1959 34.5207 44.1217 34.5981 44.0453C34.6774 43.9661 34.7567 43.887 34.8385 43.8054C35.1007 43.544 35.3636 43.2833 35.6266 43.0227C35.8087 42.8413 35.9908 42.6598 36.1728 42.4783C36.652 42.0006 37.1319 41.5236 37.6119 41.0467C38.3808 40.2827 39.149 39.5179 39.9168 38.7528C40.1857 38.4851 40.4549 38.2179 40.7241 37.9507C40.8881 37.7874 41.0521 37.6242 41.2161 37.4609C41.3293 37.3489 41.3293 37.3489 41.4447 37.2347C41.5472 37.1324 41.5472 37.1324 41.6519 37.028C41.7414 36.9391 41.7414 36.9391 41.8327 36.8484C41.9867 36.6938 41.9867 36.6938 42.0882 36.4647C42.1639 36.4647 42.2397 36.4647 42.3177 36.4647C42.3454 36.3996 42.3731 36.3344 42.4016 36.2673C42.5762 35.9536 42.7839 35.744 43.04 35.4923C43.1928 35.3412 43.1928 35.3412 43.3487 35.187C43.4032 35.1337 43.4577 35.0803 43.5138 35.0254C43.6851 34.8575 43.8557 34.6888 44.0261 34.5199C44.5106 34.04 44.9965 33.5615 45.4828 33.0835C45.7807 32.7905 46.0777 32.4967 46.3742 32.2024C46.4869 32.0909 46.5999 31.9798 46.7132 31.869C47.7248 30.9194 47.7248 30.9194 48.2351 29.666C48.2337 28.5231 47.9525 27.9871 47.1804 27.1769C45.8542 25.9043 45.8542 25.9043 44.1537 25.3337C45.0681 24.2151 46.0702 23.3966 47.5703 24.0337Z" fill="#F2F2F2"/>
<path d="M27.1702 31.8742C27.5444 32.1782 27.8751 32.5174 28.2088 32.8649C28.303 32.9605 28.3972 33.0561 28.4943 33.1546C28.7931 33.458 29.0898 33.7633 29.3863 34.0689C29.6852 34.375 29.9845 34.6806 30.2845 34.9857C30.4705 35.175 30.6558 35.3651 30.8404 35.5558C30.9243 35.6416 31.0083 35.7274 31.0948 35.8158C31.1681 35.8914 31.2414 35.9669 31.317 36.0448C31.6867 36.3734 31.9854 36.4951 32.4775 36.4787C32.6195 36.474 32.7615 36.4692 32.9078 36.4644C31.7172 37.9385 31.7172 37.9385 30.957 38.0853C30.3466 38.1029 29.9132 37.8039 29.4683 37.4129C29.2183 37.1715 28.9749 36.9248 28.7328 36.6755C28.6436 36.5853 28.5544 36.495 28.4625 36.4021C28.1791 36.1153 27.8969 35.8273 27.6148 35.5392C27.3319 35.2507 27.0486 34.9625 26.7647 34.675C26.5885 34.4966 26.4129 34.3175 26.2379 34.1379C25.5741 33.4648 25.1119 33.117 24.1507 33.0003C23.9348 32.973 23.9348 32.973 23.7146 32.9451C23.5506 32.9263 23.5506 32.9263 23.3833 32.907C24.4544 31.5967 25.5743 30.9504 27.1702 31.8742Z" fill="#F2F2F2"/>
</svg>
