<svg width="20" height="22" viewBox="0 0 20 22" fill="none" xmlns="http://www.w3.org/2000/svg">
<path d="M9.96115 15.5167V12.8887" stroke="#797F8F" stroke-width="1.5" stroke-linecap="round" stroke-linejoin="round"/>
<path d="M19.0895 10.4775L19.0605 10.4985C16.6385 11.9905 13.4405 12.8915 9.95649 12.8915C6.47249 12.8915 3.28349 11.9905 0.862489 10.4985L0.832489 10.4775" stroke="#797F8F" stroke-width="1.5" stroke-linecap="round" stroke-linejoin="round"/>
<path fill-rule="evenodd" clip-rule="evenodd" d="M0.750214 12.3507C0.750214 6.19871 3.05321 4.14771 9.96121 4.14771C16.8702 4.14771 19.1722 6.19871 19.1722 12.3507C19.1722 18.5027 16.8702 20.5537 9.96121 20.5537C3.05321 20.5537 0.750214 18.5027 0.750214 12.3507Z" stroke="#797F8F" stroke-width="1.5" stroke-linecap="round" stroke-linejoin="round"/>
<path d="M13.2238 4.3692V3.7392C13.2238 2.4752 12.3008 1.4502 11.1638 1.4502H8.75882C7.62182 1.4502 6.69882 2.4752 6.69882 3.7392V4.3692" stroke="#797F8F" stroke-width="1.5" stroke-linecap="round" stroke-linejoin="round"/>
</svg>
