<svg width="73" height="72" viewBox="0 0 73 72" fill="none" xmlns="http://www.w3.org/2000/svg">
<circle cx="36.5" cy="35.75" r="35.75" fill="#EF3A30"/>
<path d="M36.1223 6.00044C36.2391 6.00068 36.3559 6.00093 36.4763 6.00119C38.1528 6.00689 39.7976 6.03568 41.4443 6.38058C41.5562 6.40338 41.6681 6.42618 41.7833 6.44967C47.3357 7.61112 52.3838 10.1263 56.478 14.0695C56.5915 14.1784 56.5915 14.1784 56.7073 14.2894C57.7961 15.3388 58.7991 16.4058 59.6913 17.6271C59.7897 17.7592 59.8882 17.8913 59.9867 18.0234C60.6796 18.9634 61.2946 19.9405 61.8717 20.9552C61.9135 21.0277 61.9554 21.1002 61.9985 21.1749C64.478 25.5069 65.5988 30.4148 65.5799 35.372C65.5797 35.4888 65.5794 35.6056 65.5792 35.726C65.5735 37.4025 65.5447 39.0473 65.1998 40.694C65.1656 40.8618 65.1656 40.8618 65.1307 41.033C63.9692 46.5853 61.4541 51.6335 57.5108 55.7276C57.4383 55.8033 57.3657 55.879 57.291 55.9569C56.2416 57.0458 55.1746 58.0488 53.9532 58.9409C53.8211 59.0394 53.689 59.1379 53.557 59.2364C52.6171 59.9292 51.6413 60.547 50.6252 61.1214C50.544 61.1675 50.4629 61.2137 50.3792 61.2612C47.7242 62.7561 44.8355 63.7601 41.8532 64.3705C41.7707 64.3875 41.6882 64.4044 41.6032 64.4218C39.8268 64.7594 38.0697 64.8365 36.2658 64.8296C36.1517 64.8294 36.0377 64.8292 35.9202 64.829C34.2569 64.8238 32.6374 64.7709 31.0011 64.4494C30.8983 64.431 30.7956 64.4125 30.6897 64.3935C25.6853 63.4881 20.9643 61.2285 17.1151 57.9081C17.0296 57.8353 16.9441 57.7625 16.856 57.6875C15.3061 56.3321 13.852 54.8688 12.6394 53.2029C12.5411 53.0709 12.4428 52.939 12.3444 52.8071C11.6512 51.867 11.0362 50.8897 10.459 49.8748C10.4171 49.8023 10.3753 49.7298 10.3322 49.6551C8.61868 46.6614 7.53152 43.295 7.01615 39.8907C6.9958 39.7623 6.97545 39.6339 6.95448 39.5016C6.76152 38.1564 6.74562 36.8225 6.75076 35.4652C6.75114 35.2896 6.75114 35.2896 6.75151 35.1104C6.75721 33.4317 6.78557 31.7848 7.13091 30.136C7.15371 30.0242 7.17651 29.9123 7.2 29.797C8.36145 24.2447 10.8766 19.1966 14.8199 15.1024C14.8924 15.0267 14.965 14.951 15.0397 14.8731C16.0891 13.7842 17.1561 12.7812 18.3774 11.8891C18.5095 11.7906 18.6416 11.6921 18.7737 11.5937C19.7136 10.9008 20.6893 10.2831 21.7055 9.70864C21.7867 9.66248 21.8678 9.61633 21.9514 9.56877C24.6065 8.07397 27.4951 7.06995 30.4775 6.45948C30.56 6.44257 30.6425 6.42566 30.7275 6.40823C32.5231 6.06695 34.2988 5.99349 36.1223 6.00044Z" fill="#EF3A30"/>
<path d="M36.1223 6.00044C36.2391 6.00068 36.3559 6.00093 36.4763 6.00119C38.1528 6.00689 39.7976 6.03568 41.4443 6.38058C41.5562 6.40338 41.6681 6.42618 41.7833 6.44967C47.3357 7.61112 52.3838 10.1263 56.478 14.0695C56.5915 14.1784 56.5915 14.1784 56.7073 14.2894C57.7961 15.3388 58.7991 16.4058 59.6913 17.6271C59.7897 17.7592 59.8882 17.8913 59.9867 18.0234C60.6796 18.9634 61.2946 19.9405 61.8717 20.9552C61.9135 21.0277 61.9554 21.1002 61.9985 21.1749C64.478 25.5069 65.5988 30.4148 65.5799 35.372C65.5797 35.4888 65.5794 35.6056 65.5792 35.726C65.5735 37.4025 65.5447 39.0473 65.1998 40.694C65.1656 40.8618 65.1656 40.8618 65.1307 41.033C63.9692 46.5853 61.4541 51.6335 57.5108 55.7276C57.4383 55.8033 57.3657 55.879 57.291 55.9569C56.2416 57.0458 55.1746 58.0488 53.9532 58.9409C53.8211 59.0394 53.689 59.1379 53.557 59.2364C52.6171 59.9292 51.6413 60.547 50.6252 61.1214C50.544 61.1675 50.4629 61.2137 50.3792 61.2612C47.7242 62.7561 44.8355 63.7601 41.8532 64.3705C41.7707 64.3875 41.6882 64.4044 41.6032 64.4218C39.8268 64.7594 38.0697 64.8365 36.2658 64.8296C36.1517 64.8294 36.0377 64.8292 35.9202 64.829C34.2569 64.8238 32.6374 64.7709 31.0011 64.4494C30.8983 64.431 30.7956 64.4125 30.6897 64.3935C25.6853 63.4881 20.9643 61.2285 17.1151 57.9081C17.0296 57.8353 16.9441 57.7625 16.856 57.6875C15.3061 56.3321 13.852 54.8688 12.6394 53.2029C12.5411 53.0709 12.4428 52.939 12.3444 52.8071C11.6512 51.867 11.0362 50.8897 10.459 49.8748C10.4171 49.8023 10.3753 49.7298 10.3322 49.6551C8.61868 46.6614 7.53152 43.295 7.01615 39.8907C6.9958 39.7623 6.97545 39.6339 6.95448 39.5016C6.76152 38.1564 6.74562 36.8225 6.75076 35.4652C6.75114 35.2896 6.75114 35.2896 6.75151 35.1104C6.75721 33.4317 6.78557 31.7848 7.13091 30.136C7.15371 30.0242 7.17651 29.9123 7.2 29.797C8.36145 24.2447 10.8766 19.1966 14.8199 15.1024C14.8924 15.0267 14.965 14.951 15.0397 14.8731C16.0891 13.7842 17.1561 12.7812 18.3774 11.8891C18.5095 11.7906 18.6416 11.6921 18.7737 11.5937C19.7136 10.9008 20.6893 10.2831 21.7055 9.70864C21.7867 9.66248 21.8678 9.61633 21.9514 9.56877C24.6065 8.07397 27.4951 7.06995 30.4775 6.45948C30.56 6.44257 30.6425 6.42566 30.7275 6.40823C32.5231 6.06695 34.2988 5.99349 36.1223 6.00044ZM24.5638 13.149C24.4175 13.2274 24.2708 13.3047 24.1235 13.3811C22.2442 14.3571 20.5343 15.6157 19.0238 17.0991C18.8197 17.2993 18.6134 17.497 18.407 17.6948C17.4673 18.6052 16.6172 19.5488 15.8527 20.6109C15.805 20.6771 15.7573 20.7432 15.7082 20.8114C14.2337 22.8843 13.17 25.113 12.2951 27.4965C12.2666 27.5742 12.2381 27.6518 12.2087 27.7318C11.8316 28.7839 11.63 29.8911 11.4315 30.9885C11.3954 31.1844 11.3563 31.3796 11.3141 31.5742C11.0791 32.7535 11.1023 33.945 11.1045 35.1425C11.1045 35.2571 11.1045 35.3717 11.1045 35.4898C11.1076 37.3038 11.2194 39.0314 11.6066 40.8088C11.6375 40.9694 11.6683 41.13 11.6989 41.2907C12.1608 43.4307 13.0738 45.5524 14.1313 47.4649C14.1732 47.5421 14.2151 47.6192 14.2583 47.6988C15.2359 49.4852 16.4436 51.102 17.8604 52.5652C17.9823 52.6912 18.1034 52.8181 18.2239 52.9454C22.6514 57.6174 28.971 60.3405 35.3858 60.5808C37.7779 60.6318 40.1642 60.3581 42.4772 59.7443C42.6116 59.709 42.6116 59.709 42.7488 59.6731C47.4193 58.4253 52.0185 55.7134 55.1008 51.9405C55.2112 51.8112 55.3216 51.682 55.4321 51.5528C56.3962 50.412 57.2148 49.2118 57.9699 47.9239C58.0172 47.8433 58.0645 47.7628 58.1133 47.6798C59.6659 44.9939 60.5399 42.0779 61.0223 39.0326C61.0545 38.8306 61.0907 38.6293 61.13 38.4287C61.1979 37.9508 61.2039 37.4827 61.2065 37.0006C61.2077 36.8484 61.2077 36.8484 61.2089 36.6932C61.2509 29.8749 59.4721 23.5581 54.6938 18.4999C54.4547 18.246 54.2278 17.9872 54.0034 17.7204C50.2909 13.4775 44.0646 10.7487 38.4877 10.376C37.8188 10.3472 37.1503 10.3431 36.4809 10.346C36.1385 10.347 35.7963 10.3437 35.4539 10.34C31.6627 10.3264 27.8996 11.3606 24.5638 13.149Z" fill="white"/>
<path d="M28.9786 23.4297C29.0789 23.4275 29.1792 23.4253 29.2825 23.423C30.3419 23.5995 30.985 24.3219 31.7032 25.0592C31.8119 25.169 31.9207 25.2787 32.0295 25.3883C32.3138 25.675 32.5968 25.963 32.8794 26.2513C33.3337 26.7143 33.7902 27.1751 34.2464 27.6362C34.4053 27.7971 34.5637 27.9586 34.722 28.1201C34.8658 28.266 34.8658 28.266 35.0124 28.4149C35.0968 28.501 35.1812 28.587 35.2681 28.6756C35.6084 28.9985 35.903 29.049 36.3726 29.0422C36.6852 28.9755 36.8191 28.8609 37.0533 28.6451C37.133 28.5719 37.2126 28.4987 37.2947 28.4233C37.7137 28.0207 38.1228 27.6096 38.5288 27.1939C38.7151 27.0051 38.9014 26.8163 39.0878 26.6275C39.3777 26.3334 39.6671 26.039 39.9557 25.7436C40.2369 25.4561 40.5196 25.1702 40.8025 24.8844C40.8877 24.7964 40.973 24.7084 41.0609 24.6177C41.6373 24.0384 42.1907 23.5819 43.0152 23.4189C43.1028 23.4201 43.1904 23.4213 43.2806 23.4225C43.412 23.4208 43.412 23.4208 43.546 23.4189C44.4207 23.5919 45.0005 24.1037 45.5973 24.7351C45.6988 24.8397 45.6988 24.8397 45.8024 24.9465C45.9351 25.0833 46.0674 25.2205 46.1992 25.3582C46.5751 25.7497 46.9626 26.129 47.3524 26.5067C47.4942 26.6454 47.636 26.784 47.7778 26.9227C47.8499 26.992 47.922 27.0612 47.9963 27.1325C48.5805 27.7074 48.8212 28.1291 48.8321 28.9669C48.8354 29.0789 48.8386 29.1909 48.842 29.3063C48.6884 30.3831 47.9545 31.0307 47.2098 31.7561C47.1 31.8648 46.9903 31.9736 46.8807 32.0824C46.594 32.3667 46.306 32.6497 46.0177 32.9323C45.5547 33.3866 45.0939 33.8431 44.6328 34.2993C44.4719 34.4582 44.3104 34.6166 44.149 34.7749C44.0517 34.8708 43.9543 34.9666 43.8541 35.0653C43.7681 35.1497 43.682 35.2341 43.5934 35.321C43.2846 35.6465 43.2811 35.7463 43.2618 36.2162C43.3637 37.0081 43.9446 37.4486 44.499 37.9734C44.6115 38.0832 44.7237 38.1933 44.8357 38.3036C45.1298 38.5923 45.4265 38.8783 45.7239 39.1637C46.1996 39.6208 46.6717 40.0817 47.1432 40.5431C47.3076 40.7031 47.4732 40.8617 47.6389 41.0202C47.7899 41.1668 47.7899 41.1668 47.944 41.3163C48.0326 41.4014 48.1212 41.4864 48.2125 41.5741C48.6695 42.1004 48.8385 42.5778 48.8393 43.2689C48.8415 43.3919 48.8438 43.5148 48.846 43.6415C48.7152 44.5159 48.1151 45.094 47.5142 45.6951C47.4355 45.7746 47.3568 45.8542 47.2757 45.9361C47.1099 46.1032 46.9436 46.2699 46.7769 46.4361C46.5233 46.6895 46.2723 46.9453 46.0214 47.2013C45.8593 47.364 45.697 47.5266 45.5346 47.689C45.4604 47.7651 45.3863 47.8411 45.3099 47.9194C44.6987 48.5216 44.1595 48.7878 43.2949 48.8994C42.3006 48.8507 41.5618 48.2206 40.9051 47.5308C40.7628 47.3715 40.621 47.2118 40.4827 47.0491C39.8801 46.3449 39.2316 45.6898 38.5766 45.0348C38.3804 44.8383 38.185 44.6409 37.9897 44.4434C37.8642 44.3176 37.7386 44.1918 37.6129 44.066C37.5551 44.0073 37.4972 43.9486 37.4376 43.8881C36.9785 43.432 36.743 43.2321 36.0925 43.1949C35.3729 43.3112 34.9406 43.8978 34.4629 44.404C34.3016 44.5691 34.1403 44.7341 33.979 44.8991C33.7541 45.1301 33.531 45.3627 33.3079 45.5955C32.9191 46.0012 32.5293 46.406 32.1366 46.8081C31.9282 47.0219 31.7211 47.237 31.5158 47.4538C30.8064 48.1827 30.0383 48.8483 28.9786 48.9066C28.0003 48.8424 27.3352 48.228 26.6775 47.559C26.5584 47.4402 26.5584 47.4402 26.4369 47.3189C26.2704 47.1522 26.1045 46.985 25.9391 46.8172C25.6865 46.5613 25.4319 46.3076 25.1769 46.0541C25.0147 45.8912 24.8526 45.7282 24.6907 45.5651C24.6151 45.4897 24.5394 45.4144 24.4614 45.3368C23.8963 44.7599 23.4914 44.2392 23.4987 43.3981C23.5691 41.4631 25.7047 40.0121 26.9846 38.7431C27.3507 38.38 27.7165 38.0165 28.082 37.6528C28.166 37.5698 28.25 37.4867 28.3366 37.4011C28.4137 37.3244 28.4908 37.2477 28.5702 37.1687C28.6382 37.1013 28.7061 37.0339 28.7762 36.9645C29.0671 36.6498 29.1268 36.3343 29.1149 35.9074C28.787 34.5743 26.5744 33.0597 25.6204 32.1282C25.3416 31.8557 25.0642 31.5817 24.7871 31.3074C24.7018 31.2248 24.6164 31.1421 24.5285 31.057C23.8972 30.429 23.4954 29.8638 23.4844 28.9382C23.4808 28.8389 23.4773 28.7397 23.4736 28.6374C23.6479 27.7739 24.3196 27.1262 24.9256 26.526C25.0404 26.4107 25.0404 26.4107 25.1575 26.2931C25.3182 26.1321 25.4794 25.9716 25.641 25.8115C25.8873 25.567 26.1317 25.3207 26.376 25.0742C26.5332 24.9173 26.6905 24.7605 26.8479 24.6038C26.9203 24.5306 26.9928 24.4574 27.0675 24.3821C27.6323 23.8261 28.1545 23.4309 28.9786 23.4297Z" fill="white"/>
<path d="M43.2443 23.4442C43.3834 23.4377 43.3834 23.4377 43.5254 23.4312C44.4134 23.5632 45.0001 24.1038 45.5969 24.7352C45.6646 24.805 45.7323 24.8747 45.802 24.9466C45.9347 25.0834 46.0669 25.2206 46.1987 25.3583C46.5747 25.7498 46.9622 26.1291 47.3519 26.5068C47.4937 26.6455 47.6356 26.7842 47.7773 26.9228C47.8495 26.9921 47.9216 27.0613 47.9959 27.1326C48.5801 27.7075 48.8207 28.1292 48.8317 28.967C48.835 29.079 48.8382 29.191 48.8416 29.3064C48.6879 30.3832 47.9541 31.0308 47.2094 31.7562C47.0996 31.8649 46.9899 31.9737 46.8803 32.0826C46.5936 32.3668 46.3056 32.6498 46.0173 32.9324C45.5543 33.3867 45.0935 33.8432 44.6324 34.2994C44.4714 34.4583 44.31 34.6167 44.1485 34.775C44.0026 34.9188 44.0026 34.9188 43.8537 35.0654C43.7676 35.1498 43.6816 35.2342 43.593 35.3211C43.2842 35.6466 43.2807 35.7464 43.2614 36.2163C43.3633 37.0082 43.9442 37.4487 44.4986 37.9735C44.611 38.0833 44.7233 38.1934 44.8353 38.3037C45.1294 38.5924 45.4261 38.8784 45.7235 39.1638C46.1992 39.6209 46.6713 40.0818 47.1428 40.5432C47.3071 40.7032 47.4728 40.8618 47.6385 41.0203C47.7392 41.118 47.8399 41.2157 47.9436 41.3164C48.0322 41.4015 48.1208 41.4865 48.2121 41.5742C48.6691 42.1005 48.8381 42.5779 48.8389 43.269C48.8422 43.4534 48.8422 43.4534 48.8456 43.6416C48.7148 44.516 48.1147 45.0941 47.5138 45.6952C47.3957 45.8145 47.3957 45.8145 47.2753 45.9362C47.1095 46.1033 46.9432 46.27 46.7764 46.4362C46.5229 46.6896 46.2719 46.9454 46.021 47.2014C45.8588 47.3641 45.6966 47.5267 45.5341 47.6891C45.46 47.7652 45.3858 47.8412 45.3094 47.9195C44.6982 48.5217 44.159 48.7879 43.2945 48.8995C42.2565 48.8487 41.5103 48.1673 40.8263 47.4524C40.6407 47.2355 40.6407 47.2355 40.6407 47.1207C40.7778 47.1143 40.7778 47.1143 40.9177 47.1077C41.0393 47.1002 41.1609 47.0926 41.2862 47.0848C41.4659 47.0749 41.4659 47.0749 41.6493 47.0647C42.5963 46.9137 43.1858 46.263 43.854 45.6288C43.9417 45.5472 44.0294 45.4655 44.1198 45.3814C44.9286 44.6068 45.1502 44.0538 45.1957 42.9333C44.9874 41.8756 44.0763 41.1004 43.3353 40.3754C43.2321 40.2729 43.1289 40.1705 43.0226 40.065C42.751 39.7956 42.4787 39.527 42.206 39.2587C41.8198 38.8786 41.4348 38.4972 41.0499 38.1157C40.8454 37.9131 40.6405 37.7109 40.4353 37.5091C40.3433 37.4183 40.2514 37.3274 40.1566 37.2338C40.0754 37.1539 39.9941 37.0739 39.9104 36.9915C39.6524 36.7178 39.6106 36.5828 39.5576 36.2041C39.672 35.1911 40.6639 34.4471 41.3597 33.7677C41.5656 33.5641 41.7716 33.3605 41.9775 33.1569C42.3 32.8393 42.6229 32.522 42.9461 32.205C43.2596 31.897 43.5721 31.588 43.8845 31.2788C43.9815 31.1842 44.0786 31.0897 44.1786 30.9922C44.3131 30.8589 44.3131 30.8589 44.4503 30.7228C44.5293 30.6453 44.6082 30.5678 44.6896 30.488C45.1588 29.924 45.1676 29.3413 45.1504 28.6353C45.0378 27.5271 43.9894 26.7609 43.1959 26.0796C42.3456 25.3828 42.3456 25.3828 41.3005 25.1297C41.1982 25.1211 41.0958 25.1125 40.9903 25.1037C40.8741 25.0953 40.8741 25.0953 40.7554 25.0867C41.4076 24.2517 42.1301 23.4774 43.2443 23.4442Z" fill="#F2F2F2"/>
<path d="M30.0327 23.6438C30.6962 23.9846 31.1685 24.5219 31.6788 25.0552C31.7858 25.1648 31.8929 25.2742 32.0002 25.3835C32.4522 25.8446 32.9012 26.3086 33.3495 26.7733C33.5716 27.0032 33.7945 27.2322 34.0185 27.4603C34.2285 27.6744 34.437 27.89 34.6438 28.1071C35.2069 28.6792 35.5876 29.0057 36.3948 29.1032C36.319 29.1766 36.2433 29.25 36.1653 29.3256C35.7956 29.6931 35.4577 30.0875 35.1172 30.4817C34.8727 30.742 34.6877 30.9322 34.3192 30.9529C33.3876 30.8543 33.0053 30.4354 32.4185 29.7465C32.0561 29.345 31.6724 28.9671 31.2879 28.5868C30.3776 27.6853 30.3776 27.6853 30.0112 27.2527C29.6488 26.8263 29.2626 26.4255 28.8708 26.0262C28.8085 25.9615 28.7462 25.8967 28.682 25.83C28.1116 25.2548 27.5723 24.9544 26.7549 24.8571C27.6167 23.7243 28.5988 23.0692 30.0327 23.6438Z" fill="#F2F2F2"/>
<path d="M34.2318 41.5093C34.9338 41.7298 35.4708 42.3224 35.9357 42.8743C35.9357 42.9879 35.9357 43.1015 35.9357 43.2186C35.7479 43.339 35.556 43.4529 35.3619 43.5628C35.1971 43.7113 35.0377 43.8657 34.883 44.0247C34.7926 44.1171 34.7021 44.2094 34.6089 44.3045C34.5126 44.4039 34.4162 44.5032 34.317 44.6056C34.1097 44.8163 33.9023 45.027 33.695 45.2376C33.3699 45.5688 33.0455 45.9006 32.722 46.2334C32.4086 46.5552 32.0934 46.8751 31.7779 47.1948C31.6827 47.2937 31.5875 47.3926 31.4894 47.4945C30.7798 48.2101 30.02 48.8338 28.9783 48.9064C28.3528 48.8655 27.8196 48.643 27.3735 48.199C27.2365 48.0366 27.1093 47.866 26.9844 47.6942C27.1085 47.6451 27.2326 47.596 27.3605 47.5454C28.1087 47.1706 28.6536 46.5367 29.2294 45.9441C29.3455 45.8267 29.4616 45.7094 29.5779 45.5922C30.1254 45.0379 30.6573 44.4741 31.1649 43.8828C31.4633 43.5434 31.7837 43.2271 32.1056 42.9101C32.1683 42.8479 32.231 42.7857 32.2956 42.7216C32.4184 42.5999 32.5415 42.4786 32.6649 42.3577C32.8266 42.1962 32.9821 42.0286 33.1371 41.8607C33.514 41.5183 33.7356 41.4891 34.2318 41.5093Z" fill="#F2F2F2"/>
</svg>
