<svg width="21" height="22" viewBox="0 0 21 22" fill="none" xmlns="http://www.w3.org/2000/svg">
<path d="M10.4612 15.5167V12.8887" stroke="#16968C" stroke-width="1.5" stroke-linecap="round" stroke-linejoin="round"/>
<path d="M19.5895 10.4775L19.5605 10.4985C17.1385 11.9905 13.9405 12.8915 10.4565 12.8915C6.97252 12.8915 3.78352 11.9905 1.36252 10.4985L1.33252 10.4775" stroke="#16968C" stroke-width="1.5" stroke-linecap="round" stroke-linejoin="round"/>
<path fill-rule="evenodd" clip-rule="evenodd" d="M1.25024 12.3507C1.25024 6.19871 3.55324 4.14771 10.4612 4.14771C17.3702 4.14771 19.6722 6.19871 19.6722 12.3507C19.6722 18.5027 17.3702 20.5537 10.4612 20.5537C3.55324 20.5537 1.25024 18.5027 1.25024 12.3507Z" stroke="#16968C" stroke-width="1.5" stroke-linecap="round" stroke-linejoin="round"/>
<path d="M13.7239 4.3692V3.7392C13.7239 2.4752 12.8009 1.4502 11.6639 1.4502H9.25885C8.12185 1.4502 7.19885 2.4752 7.19885 3.7392V4.3692" stroke="#16968C" stroke-width="1.5" stroke-linecap="round" stroke-linejoin="round"/>
</svg>
