<svg width="22" height="18" viewBox="0 0 22 18" fill="none" xmlns="http://www.w3.org/2000/svg">
<path d="M5.42 14.6C3.19 13.14 1.75 10.94 1.75 9.00996C1.75 5.72996 5.89 1.70996 11 1.70996C13.09 1.70996 15.03 2.37996 16.59 3.41996" stroke="#16968C" stroke-width="2" stroke-linecap="round" stroke-linejoin="round"/>
<path d="M18.8498 5.48047C19.7408 6.61047 20.2598 7.86047 20.2598 9.01047C20.2598 12.2905 16.1098 16.3105 10.9998 16.3105C10.0898 16.3105 9.20075 16.1805 8.36975 15.9505" stroke="#16968C" stroke-width="2" stroke-linecap="round" stroke-linejoin="round"/>
<path d="M8.76572 11.2373C8.17072 10.6483 7.83772 9.84529 7.84072 9.00829C7.83672 7.26329 9.24872 5.84529 10.9947 5.84229C11.8347 5.84029 12.6407 6.17329 13.2347 6.76729" stroke="#16968C" stroke-width="1.5" stroke-linecap="round" stroke-linejoin="round"/>
<path d="M14.1095 9.56934C13.8755 10.8613 12.8645 11.8743 11.5725 12.1113" stroke="#16968C" stroke-width="1.5" stroke-linecap="round" stroke-linejoin="round"/>
<path d="M18.8917 1.12012L3.11768 16.8941" stroke="#16968C" stroke-width="1.5" stroke-linecap="round" stroke-linejoin="round"/>
</svg>
