<svg width="385" height="260" viewBox="0 0 385 260" fill="none" xmlns="http://www.w3.org/2000/svg">
<path d="M201.707 228.751H195.895C194.755 228.751 193.831 229.675 193.831 230.815V251.077C193.831 252.217 194.755 253.141 195.895 253.141H201.707C202.847 253.141 203.771 252.217 203.771 251.077V230.815C203.771 229.675 202.847 228.751 201.707 228.751ZM196.945 242.867C196.506 242.867 196.084 242.692 195.773 242.381C195.463 242.07 195.288 241.649 195.288 241.21C195.288 240.77 195.463 240.349 195.773 240.038C196.084 239.727 196.506 239.553 196.945 239.553C197.385 239.553 197.806 239.727 198.117 240.038C198.428 240.349 198.602 240.77 198.602 241.21C198.602 241.649 198.428 242.07 198.117 242.381C197.806 242.692 197.385 242.867 196.945 242.867Z" fill="#0F5755"/>
<path d="M125.343 159.897C124.633 159.897 124.731 159.813 121.109 156.009C120.996 155.89 120.908 155.75 120.849 155.597C120.79 155.444 120.761 155.28 120.765 155.116C120.769 154.952 120.806 154.791 120.872 154.641C120.939 154.491 121.034 154.356 121.153 154.243C121.272 154.129 121.412 154.041 121.565 153.982C121.718 153.923 121.881 153.895 122.045 153.899C122.209 153.903 122.371 153.939 122.521 154.006C122.671 154.072 122.806 154.168 122.919 154.287L126.249 157.787C126.417 157.964 126.53 158.186 126.573 158.427C126.615 158.667 126.587 158.915 126.491 159.14C126.394 159.364 126.234 159.556 126.03 159.69C125.826 159.825 125.587 159.896 125.343 159.897Z" fill="#191919"/>
<path d="M132.001 159.897C131.757 159.896 131.518 159.824 131.314 159.689C131.111 159.554 130.951 159.363 130.854 159.138C130.758 158.914 130.73 158.666 130.772 158.425C130.815 158.185 130.927 157.962 131.095 157.785L134.425 154.285C134.538 154.166 134.674 154.07 134.824 154.004C134.973 153.937 135.135 153.901 135.299 153.897C135.463 153.893 135.626 153.921 135.779 153.98C135.932 154.039 136.072 154.127 136.191 154.241C136.31 154.354 136.405 154.489 136.472 154.639C136.538 154.789 136.575 154.95 136.579 155.114C136.583 155.278 136.555 155.442 136.496 155.595C136.437 155.748 136.348 155.888 136.235 156.007C132.645 159.777 132.715 159.897 132.001 159.897Z" fill="#191919"/>
<path d="M128.673 157.165C128.342 157.165 128.024 157.033 127.789 156.798C127.555 156.564 127.423 156.246 127.423 155.915V151.135C127.423 150.803 127.555 150.485 127.789 150.251C128.024 150.016 128.342 149.885 128.673 149.885C129.005 149.885 129.323 150.016 129.557 150.251C129.791 150.485 129.923 150.803 129.923 151.135V155.915C129.923 156.605 129.363 157.165 128.673 157.165Z" fill="#191919"/>
<path d="M259.611 159.897C259.367 159.896 259.128 159.824 258.924 159.689C258.721 159.554 258.561 159.363 258.464 159.138C258.368 158.914 258.34 158.666 258.382 158.425C258.425 158.185 258.537 157.962 258.705 157.785L262.035 154.285C262.148 154.166 262.284 154.07 262.434 154.004C262.583 153.937 262.745 153.901 262.909 153.897C263.073 153.893 263.236 153.921 263.389 153.98C263.542 154.039 263.682 154.127 263.801 154.241C263.92 154.354 264.015 154.489 264.082 154.639C264.148 154.789 264.185 154.95 264.189 155.114C264.193 155.278 264.165 155.442 264.106 155.595C264.047 155.748 263.958 155.888 263.845 156.007C260.255 159.777 260.325 159.897 259.611 159.897Z" fill="#191919"/>
<path d="M252.953 159.897C252.243 159.897 252.341 159.813 248.719 156.009C248.606 155.89 248.518 155.75 248.459 155.597C248.4 155.444 248.371 155.28 248.375 155.116C248.379 154.952 248.416 154.791 248.482 154.641C248.549 154.491 248.644 154.356 248.763 154.243C248.882 154.129 249.022 154.041 249.175 153.982C249.328 153.923 249.491 153.895 249.655 153.899C249.819 153.903 249.981 153.939 250.131 154.006C250.281 154.072 250.416 154.168 250.529 154.287L253.859 157.787C254.027 157.964 254.14 158.186 254.183 158.427C254.225 158.667 254.197 158.915 254.101 159.14C254.004 159.364 253.844 159.556 253.64 159.69C253.436 159.825 253.197 159.896 252.953 159.897Z" fill="#191919"/>
<path d="M256.281 157.165C255.95 157.165 255.632 157.033 255.397 156.798C255.163 156.564 255.031 156.246 255.031 155.915V151.135C255.031 150.803 255.163 150.485 255.397 150.251C255.632 150.016 255.95 149.885 256.281 149.885C256.613 149.885 256.931 150.016 257.165 150.251C257.399 150.485 257.531 150.803 257.531 151.135V155.915C257.531 156.605 256.971 157.165 256.281 157.165Z" fill="#191919"/>
<path d="M145.069 153.705C146.745 154.799 160.245 154.957 162.283 154.957C164.765 154.957 233.219 154.683 234.387 154.603C235.909 154.497 241.171 154.185 239.885 153.345C238.209 152.251 224.709 152.093 222.671 152.093C220.189 152.093 151.735 152.367 150.567 152.447C149.045 152.553 143.783 152.865 145.069 153.705Z" fill="#191919"/>
<path d="M145.069 159.827C146.743 160.921 160.253 161.079 162.283 161.079C164.765 161.079 233.219 160.805 234.387 160.725C235.907 160.619 241.171 160.307 239.885 159.467C238.211 158.373 224.705 158.215 222.671 158.215C220.189 158.215 151.735 158.489 150.567 158.569C149.047 158.675 143.783 158.987 145.069 159.827Z" fill="#191919"/>
<path d="M29.3991 220.799C21.7111 220.799 21.9511 220.911 21.6291 221.071C21.4611 221.155 21.2031 221.307 21.1091 221.471C21.014 221.654 20.9902 221.867 21.0422 222.068C21.0943 222.268 21.2185 222.442 21.3911 222.557C21.8811 222.865 22.3851 223.001 22.8911 223.001C28.7231 223.001 29.8951 223.109 30.6611 222.729C31.9831 222.075 31.0451 220.799 29.3991 220.799Z" fill="#191919"/>
<path d="M37.1671 215.341C29.4791 215.341 29.7211 215.453 29.3971 215.613C29.2291 215.697 28.9711 215.849 28.8771 216.013C28.7819 216.196 28.7581 216.409 28.8102 216.61C28.8622 216.81 28.9865 216.984 29.1591 217.099C29.6491 217.407 30.1531 217.543 30.6591 217.543C36.7471 217.543 37.6771 217.643 38.4291 217.271C39.7531 216.611 38.8091 215.341 37.1671 215.341Z" fill="#191919"/>
<path d="M36.2712 225.757C28.5592 225.757 28.8132 225.875 28.5012 226.029C28.3332 226.113 28.0752 226.265 27.9832 226.429C27.888 226.612 27.8642 226.825 27.9162 227.026C27.9683 227.226 28.0925 227.4 28.2652 227.515C28.7552 227.823 29.2592 227.959 29.7652 227.959C35.5852 227.959 36.7712 228.065 37.5352 227.687C38.8452 227.033 37.9412 225.757 36.2732 225.757H36.2712Z" fill="#191919"/>
<path d="M112.079 183.813C104.391 183.813 104.631 183.925 104.309 184.085C104.141 184.169 103.883 184.321 103.789 184.485C103.694 184.668 103.67 184.881 103.722 185.082C103.774 185.282 103.899 185.456 104.071 185.571C104.561 185.879 105.065 186.015 105.571 186.015C111.391 186.015 112.577 186.121 113.341 185.743C114.681 185.081 113.701 183.813 112.079 183.813Z" fill="#191919"/>
<path d="M116.127 188.087C108.439 188.087 108.681 188.199 108.357 188.359C108.189 188.443 107.931 188.595 107.837 188.759C107.742 188.942 107.718 189.155 107.77 189.356C107.822 189.556 107.947 189.73 108.119 189.845C108.609 190.153 109.113 190.289 109.619 190.289C115.707 190.289 116.637 190.389 117.389 190.017C118.725 189.349 117.749 188.087 116.127 188.087Z" fill="#191919"/>
<path d="M56.0711 194.079C56.0706 193.637 55.8951 193.214 55.5831 192.902C55.2712 192.591 54.8482 192.415 54.4071 192.415H44.5471C44.1059 192.415 43.683 192.591 43.371 192.902C43.0591 193.214 42.8836 193.637 42.8831 194.079C42.5372 197.955 42.467 201.852 42.6731 205.739C42.7431 207.051 42.4931 208.985 43.6831 209.861C45.1991 210.987 48.1391 210.631 49.9251 210.611C50.4451 210.605 53.6611 210.537 54.3891 210.283C56.1891 209.657 56.1211 207.889 56.1791 206.295C56.3191 202.371 56.2951 198.299 56.0711 194.079Z" fill="#0F5755"/>
<path d="M82.4491 194.079C82.4486 193.637 82.2731 193.214 81.9612 192.902C81.6492 192.591 81.2263 192.415 80.7851 192.415H70.9251C70.484 192.415 70.061 192.591 69.7491 192.902C69.4371 193.214 69.2616 193.637 69.2611 194.079C68.9152 197.955 68.845 201.852 69.0511 205.739C69.1211 207.051 68.8711 208.985 70.0611 209.861C71.5771 210.987 74.5171 210.631 76.3031 210.611C76.8231 210.605 80.0391 210.537 80.7671 210.283C82.5671 209.657 82.4991 207.889 82.5571 206.295C82.6971 202.371 82.6731 198.299 82.4491 194.079Z" fill="#0F5755"/>
<path d="M108.825 194.079C108.825 193.637 108.649 193.214 108.337 192.902C108.025 192.591 107.602 192.415 107.161 192.415H97.3011C96.8599 192.415 96.437 192.591 96.1251 192.902C95.8131 193.214 95.6376 193.637 95.6371 194.079C95.2905 197.955 95.2203 201.852 95.4271 205.739C95.4971 207.051 95.2471 208.985 96.4371 209.861C97.9531 210.987 100.893 210.631 102.679 210.611C103.199 210.605 106.415 210.537 107.143 210.283C108.943 209.657 108.875 207.889 108.933 206.295C109.078 202.223 109.044 198.147 108.829 194.079H108.825Z" fill="#0F5755"/>
<path d="M158.551 192.579C158.551 192.137 158.375 191.714 158.063 191.402C157.751 191.091 157.328 190.915 156.887 190.915H147.027C146.586 190.915 146.163 191.091 145.851 191.402C145.539 191.714 145.364 192.137 145.363 192.579C145.016 196.455 144.946 200.352 145.153 204.239C145.223 205.551 144.973 207.485 146.163 208.361C147.679 209.487 150.619 209.131 152.405 209.111C152.925 209.105 156.141 209.037 156.869 208.783C158.669 208.157 158.601 206.389 158.659 204.795C158.801 200.813 158.771 196.735 158.551 192.579Z" fill="#0F5755"/>
<path d="M199.067 192.579C199.067 192.137 198.891 191.714 198.579 191.402C198.267 191.091 197.844 190.915 197.403 190.915H187.543C187.102 190.915 186.679 191.091 186.367 191.402C186.055 191.714 185.88 192.137 185.879 192.579C185.532 196.455 185.462 200.352 185.669 204.239C185.739 205.551 185.489 207.485 186.679 208.361C188.195 209.487 191.135 209.131 192.921 209.111C193.441 209.105 196.657 209.037 197.385 208.783C199.185 208.157 199.117 206.389 199.175 204.795C199.317 200.813 199.287 196.735 199.067 192.579Z" fill="#0F5755"/>
<path d="M177.191 85.3705C177.191 85.0563 177.066 84.755 176.845 84.5326C176.623 84.3103 176.321 84.1851 176.007 84.1845H168.989C168.834 84.1845 168.679 84.2152 168.536 84.2749C168.392 84.3345 168.261 84.4219 168.151 84.532C168.041 84.6422 167.954 84.7729 167.895 84.9168C167.835 85.0607 167.805 85.2149 167.805 85.3705C167.559 88.1295 167.508 90.9025 167.655 93.6685C167.705 94.6025 167.527 95.9785 168.373 96.6025C169.453 97.4025 171.545 97.1505 172.815 97.1365C173.199 97.1325 175.475 97.0825 175.993 96.9045C177.275 96.4605 177.225 95.2005 177.267 94.0645C177.371 91.1645 177.343 88.2685 177.191 85.3705Z" fill="#0F5755"/>
<path d="M207.763 85.3705C207.763 84.7165 208.293 84.1845 208.947 84.1845H215.965C216.627 84.1845 217.149 84.7225 217.149 85.3705C217.396 88.1295 217.446 90.9025 217.299 93.6685C217.249 94.6025 217.427 95.9785 216.581 96.6025C215.501 97.4025 213.409 97.1505 212.139 97.1365C211.755 97.1325 209.479 97.0825 208.961 96.9045C207.679 96.4605 207.729 95.2005 207.687 94.0645C207.584 91.1668 207.61 88.266 207.763 85.3705Z" fill="#0F5755"/>
<path d="M158.551 226.043C158.551 225.601 158.375 225.178 158.063 224.866C157.751 224.555 157.328 224.379 156.887 224.379H147.027C146.586 224.379 146.163 224.555 145.851 224.866C145.539 225.178 145.364 225.601 145.363 226.043C145.017 229.919 144.946 233.814 145.153 237.701C145.223 239.013 144.973 240.947 146.163 241.823C147.679 242.949 150.619 242.593 152.405 242.573C153.109 242.565 156.181 242.485 156.869 242.245C158.669 241.619 158.601 239.851 158.659 238.257C158.804 234.185 158.768 230.109 158.553 226.041L158.551 226.043Z" fill="#0F5755"/>
<path d="M160.311 214.229H143.391C143.06 214.229 142.742 214.097 142.507 213.862C142.273 213.628 142.141 213.31 142.141 212.979C142.141 212.647 142.273 212.329 142.507 212.095C142.742 211.86 143.06 211.729 143.391 211.729H160.311C160.643 211.729 160.961 211.86 161.195 212.095C161.429 212.329 161.561 212.647 161.561 212.979C161.561 213.31 161.429 213.628 161.195 213.862C160.961 214.097 160.643 214.229 160.311 214.229Z" fill="#191919"/>
<path d="M160.311 219.115H143.391C143.06 219.115 142.742 218.983 142.507 218.748C142.273 218.514 142.141 218.196 142.141 217.865C142.141 217.533 142.273 217.215 142.507 216.981C142.742 216.746 143.06 216.615 143.391 216.615H160.311C160.643 216.615 160.961 216.746 161.195 216.981C161.429 217.215 161.561 217.533 161.561 217.865C161.561 218.196 161.429 218.514 161.195 218.748C160.961 218.983 160.643 219.115 160.311 219.115Z" fill="#191919"/>
<path d="M222.559 69.7425C222.684 69.7434 222.807 69.7181 222.922 69.6682C223.036 69.6183 223.138 69.545 223.222 69.453C223.306 69.361 223.37 69.2523 223.41 69.1341C223.449 69.0158 223.463 68.8906 223.451 68.7665C221.799 53.1145 208.567 40.9165 192.477 40.9165C176.387 40.9165 163.155 53.1145 161.503 68.7665C161.491 68.8906 161.505 69.0158 161.545 69.1341C161.584 69.2523 161.648 69.361 161.732 69.453C161.816 69.545 161.919 69.6183 162.033 69.6682C162.147 69.7181 162.271 69.7434 162.395 69.7425H222.559Z" fill="#16968C"/>
<path d="M202.401 226.517C202.453 226.517 202.504 226.506 202.551 226.486C202.598 226.465 202.64 226.434 202.675 226.396C202.71 226.358 202.736 226.313 202.752 226.264C202.768 226.216 202.774 226.164 202.769 226.113C202.478 223.587 201.269 221.256 199.371 219.564C197.473 217.872 195.02 216.938 192.477 216.938C189.935 216.938 187.481 217.872 185.583 219.564C183.685 221.256 182.476 223.587 182.185 226.113C182.18 226.164 182.186 226.216 182.202 226.264C182.218 226.313 182.245 226.358 182.279 226.396C182.314 226.434 182.356 226.465 182.403 226.486C182.451 226.506 182.502 226.517 182.553 226.517H202.401Z" fill="#0F5755"/>
<path d="M195.807 178.869C195.563 178.868 195.324 178.796 195.12 178.661C194.917 178.526 194.757 178.335 194.66 178.11C194.564 177.886 194.536 177.638 194.578 177.397C194.621 177.157 194.733 176.934 194.901 176.757L198.231 173.257C198.344 173.138 198.48 173.042 198.629 172.976C198.779 172.909 198.941 172.873 199.105 172.869C199.269 172.865 199.432 172.893 199.585 172.952C199.738 173.011 199.878 173.099 199.997 173.213C200.116 173.326 200.211 173.461 200.278 173.611C200.344 173.761 200.381 173.922 200.385 174.086C200.389 174.25 200.361 174.414 200.302 174.567C200.243 174.72 200.154 174.86 200.041 174.979C196.451 178.749 196.521 178.869 195.807 178.869Z" fill="#191919"/>
<path d="M189.147 178.869C188.437 178.869 188.535 178.785 184.913 174.981C184.8 174.862 184.711 174.722 184.653 174.569C184.594 174.416 184.565 174.252 184.569 174.088C184.573 173.924 184.61 173.763 184.676 173.613C184.743 173.463 184.838 173.328 184.957 173.215C185.076 173.101 185.216 173.013 185.369 172.954C185.522 172.895 185.685 172.867 185.849 172.871C186.013 172.875 186.175 172.911 186.325 172.978C186.475 173.044 186.61 173.14 186.723 173.259L190.053 176.759C190.221 176.936 190.334 177.158 190.377 177.399C190.419 177.639 190.391 177.887 190.295 178.112C190.198 178.336 190.038 178.528 189.834 178.662C189.63 178.797 189.391 178.868 189.147 178.869Z" fill="#191919"/>
<path d="M192.477 176.137C192.146 176.137 191.828 176.005 191.593 175.77C191.359 175.536 191.227 175.218 191.227 174.887V170.107C191.227 169.775 191.359 169.457 191.593 169.223C191.828 168.988 192.146 168.857 192.477 168.857C192.809 168.857 193.127 168.988 193.361 169.223C193.595 169.457 193.727 169.775 193.727 170.107V174.887C193.727 175.577 193.167 176.137 192.477 176.137Z" fill="#191919"/>
<path d="M197.123 85.3705C197.12 85.0566 196.996 84.7561 196.775 84.5326C196.289 84.0466 196.339 84.1845 188.921 84.1845C188.765 84.1845 188.611 84.2152 188.468 84.2749C188.324 84.3345 188.193 84.4219 188.083 84.532C187.973 84.6422 187.886 84.7729 187.827 84.9168C187.767 85.0607 187.737 85.2149 187.737 85.3705C187.585 88.2667 187.56 91.1682 187.663 94.0665C187.703 95.2005 187.655 96.4605 188.937 96.9045C189.441 97.0805 191.775 97.1345 192.115 97.1365C193.387 97.1505 195.479 97.4025 196.557 96.6025C197.403 95.9785 197.225 94.6026 197.275 93.6686C197.423 90.9025 197.373 88.1295 197.127 85.3705H197.123Z" fill="#0F5755"/>
<path d="M273.337 145.319C272.807 144.343 272.355 144.229 271.595 143.735C260.081 136.265 269.221 140.603 194.757 98.2405C194.083 97.8585 193.445 97.3325 192.373 97.5685C191.863 97.5019 191.345 97.6067 190.901 97.8665C175.007 107.165 116.653 141.523 114.643 142.859C113.375 143.701 111.515 144.457 111.403 145.781C111.339 146.509 112.205 147.241 112.795 147.545C113.545 147.933 118.913 150.615 119.625 150.173C120.113 149.871 119.647 149.839 119.535 149.611C118.691 148.457 115.391 146.551 114.907 145.987C114.851 145.897 114.945 145.759 115.071 145.735C120.405 143.543 149.499 126.395 190.549 102.503V108.475C190.549 108.475 131.267 141.715 129.197 142.957C126.739 144.469 117.351 150.137 120.223 149.857C126.197 149.273 181.505 117.865 192.453 111.803C234.681 134.843 268.347 153.807 264.965 149.433C261.285 144.669 203.247 113.381 194.381 108.481L194.377 102.461C269.419 145.697 268.487 145.245 269.715 145.725C269.887 145.743 270.033 145.955 269.895 146.027C268.605 147.107 266.349 148.267 265.381 149.421C265.331 149.501 265.391 149.507 265.355 149.563C265.319 149.651 265.213 149.699 265.189 149.789C264.675 151.011 271.927 147.857 272.813 147.017C273.081 146.763 273.261 146.557 273.405 146.303C273.565 145.983 273.473 145.489 273.337 145.325V145.319Z" fill="#191919"/>
<path d="M156.719 71.5705C157.959 73.0165 167.777 73.2566 169.703 73.2566C211.269 73.2566 224.599 73.4545 227.719 72.0785C228.253 71.8425 228.559 71.4646 228.233 71.0846C226.991 69.6386 217.175 69.4005 215.249 69.4005C173.403 69.4005 160.413 69.1745 157.233 70.5765C156.699 70.8125 156.393 71.1905 156.719 71.5705Z" fill="#191919"/>
<path d="M160.159 117.825C162.087 114.549 161.839 84.0885 161.839 80.9285C161.687 80.9285 223.219 80.7725 223.203 80.9245C223.219 85.7425 222.883 121.903 225.283 117.823C227.159 114.635 227.045 83.7665 226.961 80.1985C226.933 78.9765 226.113 77.7565 224.815 77.2745C223.977 76.9625 224.709 77.0745 162.571 77.0745C162.165 77.1085 160.311 76.8765 159.403 77.6565C158.395 78.3525 157.961 79.4805 157.987 80.5445C158.055 83.3545 157.743 110.421 159.165 116.807C159.401 117.865 159.779 118.471 160.159 117.825Z" fill="#191919"/>
<path d="M181.007 40.8345C182.901 39.7645 182.711 29.7125 182.689 30.7205L202.307 30.6325C202.641 30.4925 201.925 35.5805 203.121 39.7365C203.197 40.0025 203.285 40.2705 203.435 40.4965C203.671 40.8485 204.049 41.0505 204.429 40.8345C205.827 40.0445 206.115 33.8865 206.115 32.2805C206.115 29.1785 206.235 28.7585 205.741 27.9685C205.237 27.1625 204.365 26.8425 203.405 26.8665C189.867 27.2065 181.251 26.8365 180.787 26.9065C179.809 27.1245 179.231 27.7045 178.947 28.5205C178.769 28.7465 178.851 31.1865 178.873 32.3725C178.915 34.5385 178.973 36.3185 179.311 38.1045C179.415 38.6565 179.699 40.0305 180.011 40.4985C180.247 40.8505 180.625 41.0525 181.005 40.8365L181.007 40.8345Z" fill="#191919"/>
<path d="M192.477 142.599C195.126 142.599 197.667 141.546 199.54 139.673C201.413 137.8 202.465 135.26 202.465 132.611C202.465 129.962 201.413 127.421 199.54 125.548C197.667 123.675 195.126 122.623 192.477 122.623C189.828 122.623 187.288 123.675 185.415 125.548C183.541 127.421 182.489 129.962 182.489 132.611C182.489 135.26 183.541 137.8 185.415 139.673C187.288 141.546 189.828 142.599 192.477 142.599Z" fill="#0F5755"/>
<path d="M195.839 138.555C195.64 138.555 195.444 138.508 195.267 138.417C195.09 138.326 194.937 138.194 194.821 138.033L191.459 133.339C191.131 132.881 191.225 133.023 191.225 126.209C191.225 125.877 191.357 125.559 191.591 125.325C191.826 125.09 192.144 124.959 192.475 124.959C192.807 124.959 193.125 125.09 193.359 125.325C193.593 125.559 193.725 125.877 193.725 126.209V132.209L196.853 136.577C196.986 136.763 197.065 136.983 197.082 137.212C197.098 137.441 197.052 137.67 196.947 137.874C196.843 138.078 196.684 138.249 196.489 138.369C196.293 138.489 196.068 138.553 195.839 138.555Z" fill="#191919"/>
<path d="M204.459 21.8025C204.178 19.1737 203.041 16.7101 201.222 14.7908C199.404 12.8716 197.005 11.6031 194.395 11.1805C194.423 10.8265 194.363 1.82454 194.179 1.32654C193.299 -1.07746 190.549 0.0765302 190.549 2.47453C190.549 9.50053 190.519 10.2805 190.605 11.1725C187.985 11.5855 185.575 12.8505 183.747 14.7719C181.919 16.6932 180.775 19.1636 180.493 21.8005C180.488 21.8487 180.494 21.8972 180.509 21.9431C180.524 21.989 180.549 22.0311 180.582 22.0668C180.614 22.1025 180.654 22.1309 180.699 22.1501C180.743 22.1694 180.791 22.1791 180.839 22.1785H204.113C204.161 22.179 204.209 22.1694 204.253 22.1503C204.297 22.1311 204.337 22.1029 204.37 22.0675C204.402 22.032 204.427 21.9901 204.443 21.9445C204.458 21.8989 204.464 21.8505 204.459 21.8025Z" fill="#16968C"/>
<path d="M384.385 252.127C384.259 251.435 385.197 251.763 351.313 171.547C351.083 170.995 350.657 170.549 350.117 170.293C349.627 170.039 348.949 170.063 348.315 170.067C300.713 170.421 274.421 170.355 267.677 171.351C267.671 169.925 267.551 152.441 267.433 151.021C267.171 148.741 265.351 146.965 263.189 146.745C262.561 146.645 247.107 147.177 250.529 148.305C252.603 148.987 259.457 149.199 261.629 149.311C262.319 149.347 262.779 149.295 263.341 149.577C263.909 149.865 264.369 150.449 264.439 151.187C264.457 151.303 264.143 163.589 264.125 164.763C262.849 164.447 262.685 164.557 251.261 164.557C250.471 164.557 248.947 164.605 248.181 164.795C247.823 151.305 247.115 150.797 248.397 149.395C248.903 148.833 249.519 148.571 249.835 148.383C251.195 147.599 245.947 146.965 245.697 151.707C244.281 172.993 244.717 217.923 244.733 259.231L267.823 259.219L267.817 253.403C280.451 255.301 359.923 254.815 382.019 254.815C383.539 254.733 384.479 253.647 384.387 252.127H384.385ZM263.999 255.397H248.563C248.563 255.397 248.275 168.347 248.243 167.161C248.877 167.337 249.519 167.419 250.161 167.419C254.249 167.419 263.511 167.369 264.087 167.247L263.999 255.397ZM350.665 180.089L376.477 242.805C373.405 242.465 366.353 242.037 358.931 242.051C270.639 242.215 272.205 242.283 267.803 242.905C267.785 224.891 267.721 184.011 267.707 180.199C270.363 180.719 277.095 181.067 281.573 181.067C333.183 181.067 346.625 181.245 350.665 180.089ZM348.125 173.919L350.093 178.699C347.545 178.115 340.233 177.761 335.899 177.763C275.011 177.777 272.819 177.767 267.701 178.555L267.679 172.491C278.699 174.219 342.861 173.921 348.125 173.919ZM267.811 252.225L267.803 244.413C271.181 245.007 281.057 245.359 286.723 245.359C289.691 245.359 371.543 245.043 372.941 244.949C374.365 244.854 375.788 244.732 377.207 244.583L379.853 251.013C330.059 251.113 277.443 250.873 267.811 252.225Z" fill="#191919"/>
<path d="M355.555 223.003C363.275 223.003 363.013 222.885 363.325 222.731C363.493 222.647 363.751 222.495 363.845 222.331C363.94 222.147 363.964 221.934 363.912 221.734C363.86 221.533 363.736 221.359 363.563 221.245C363.116 220.956 362.595 220.802 362.063 220.801C355.975 220.801 355.045 220.701 354.293 221.073C352.981 221.727 353.891 223.003 355.555 223.003Z" fill="#191919"/>
<path d="M347.787 217.545C355.475 217.545 355.233 217.433 355.557 217.273C355.725 217.189 355.983 217.037 356.077 216.873C356.172 216.689 356.196 216.476 356.144 216.276C356.092 216.075 355.968 215.901 355.795 215.787C355.348 215.498 354.827 215.344 354.295 215.343C348.207 215.343 347.277 215.243 346.525 215.615C345.201 216.275 346.145 217.545 347.787 217.545Z" fill="#191919"/>
<path d="M348.683 227.959C356.379 227.959 356.135 227.845 356.453 227.687C356.621 227.603 356.879 227.451 356.971 227.287C357.066 227.103 357.09 226.89 357.038 226.69C356.986 226.489 356.862 226.315 356.689 226.201C356.242 225.912 355.721 225.758 355.189 225.757C349.357 225.757 348.185 225.649 347.419 226.029C346.113 226.675 347.011 227.959 348.683 227.959Z" fill="#191919"/>
<path d="M272.875 186.015C280.595 186.015 280.333 185.897 280.645 185.743C280.813 185.659 281.071 185.507 281.165 185.343C281.26 185.159 281.284 184.946 281.232 184.746C281.18 184.545 281.056 184.371 280.883 184.257C280.436 183.968 279.915 183.814 279.383 183.813C273.307 183.813 272.363 183.713 271.613 184.085C270.301 184.737 271.209 186.015 272.875 186.015Z" fill="#191919"/>
<path d="M268.827 190.291C276.515 190.291 276.273 190.179 276.597 190.019C276.765 189.935 277.023 189.783 277.117 189.619C277.212 189.435 277.236 189.222 277.184 189.022C277.132 188.821 277.008 188.647 276.835 188.533C276.388 188.244 275.867 188.09 275.335 188.089C269.247 188.089 268.317 187.989 267.565 188.361C266.229 189.029 267.205 190.291 268.827 190.291Z" fill="#191919"/>
<path d="M328.883 194.079C328.883 193.161 329.629 192.415 330.547 192.415H340.407C341.331 192.415 342.071 193.167 342.071 194.079C342.417 197.959 342.487 201.847 342.281 205.739C342.211 207.051 342.461 208.985 341.271 209.861C339.755 210.987 336.815 210.631 335.029 210.611C334.509 210.605 331.293 210.537 330.565 210.283C328.765 209.657 328.833 207.889 328.775 206.295C328.63 202.223 328.665 198.147 328.881 194.079H328.883Z" fill="#0F5755"/>
<path d="M302.505 194.079C302.505 193.161 303.251 192.415 304.169 192.415H314.029C314.949 192.415 315.693 193.163 315.693 194.079C316.039 197.959 316.109 201.849 315.903 205.739C315.833 207.051 316.083 208.985 314.893 209.861C313.377 210.987 310.437 210.631 308.651 210.611C308.131 210.605 304.915 210.537 304.187 210.283C302.387 209.657 302.455 207.889 302.397 206.295C302.252 202.223 302.287 198.147 302.503 194.079H302.505Z" fill="#0F5755"/>
<path d="M276.129 194.079C276.129 193.161 276.875 192.415 277.793 192.415H287.653C288.575 192.415 289.317 193.165 289.317 194.079C289.651 197.813 289.741 201.707 289.527 205.739C289.457 207.051 289.707 208.985 288.517 209.861C287.001 210.987 284.061 210.631 282.275 210.611C281.755 210.605 278.539 210.537 277.811 210.283C276.011 209.657 276.079 207.889 276.021 206.295C275.876 202.223 275.91 198.147 276.125 194.079H276.129Z" fill="#0F5755"/>
<path d="M189.061 228.751H183.249C182.109 228.751 181.185 229.675 181.185 230.815V251.077C181.185 252.217 182.109 253.141 183.249 253.141H189.061C190.201 253.141 191.125 252.217 191.125 251.077V230.815C191.125 229.675 190.201 228.751 189.061 228.751ZM188.011 242.867C187.572 242.867 187.15 242.692 186.839 242.381C186.529 242.07 186.354 241.649 186.354 241.21C186.354 240.77 186.529 240.349 186.839 240.038C187.15 239.727 187.572 239.553 188.011 239.553C188.451 239.553 188.872 239.727 189.183 240.038C189.493 240.349 189.668 240.77 189.668 241.21C189.668 241.649 189.493 242.07 189.183 242.381C188.872 242.692 188.451 242.867 188.011 242.867Z" fill="#0F5755"/>
<path d="M226.403 192.579C226.403 191.661 227.149 190.915 228.067 190.915H237.927C238.851 190.915 239.591 191.667 239.591 192.579C239.929 196.347 240.013 200.243 239.801 204.239C239.731 205.551 239.981 207.485 238.791 208.361C237.275 209.487 234.335 209.131 232.549 209.111C232.029 209.105 228.813 209.037 228.085 208.783C226.285 208.157 226.353 206.389 226.295 204.795C226.151 200.723 226.187 196.647 226.403 192.579Z" fill="#0F5755"/>
<path d="M226.403 226.043C226.403 225.125 227.149 224.379 228.067 224.379H237.927C238.851 224.379 239.591 225.131 239.591 226.043C239.938 229.919 240.008 233.814 239.801 237.701C239.731 239.013 239.981 240.947 238.791 241.823C237.275 242.949 234.335 242.593 232.549 242.573C231.845 242.565 228.773 242.485 228.085 242.245C226.285 241.619 226.353 239.851 226.295 238.257C226.15 234.185 226.186 230.109 226.401 226.041L226.403 226.043Z" fill="#0F5755"/>
<path d="M241.563 214.229H224.643C224.312 214.229 223.994 214.097 223.759 213.862C223.525 213.628 223.393 213.31 223.393 212.979C223.393 212.647 223.525 212.329 223.759 212.095C223.994 211.86 224.312 211.729 224.643 211.729H241.563C241.895 211.729 242.213 211.86 242.447 212.095C242.681 212.329 242.813 212.647 242.813 212.979C242.813 213.31 242.681 213.628 242.447 213.862C242.213 214.097 241.895 214.229 241.563 214.229Z" fill="#191919"/>
<path d="M241.563 219.115H224.643C224.312 219.115 223.994 218.983 223.759 218.748C223.525 218.514 223.393 218.196 223.393 217.865C223.393 217.533 223.525 217.215 223.759 216.981C223.994 216.746 224.312 216.615 224.643 216.615H241.563C241.895 216.615 242.213 216.746 242.447 216.981C242.681 217.215 242.813 217.533 242.813 217.865C242.813 218.196 242.681 218.514 242.447 218.748C242.213 218.983 241.895 219.115 241.563 219.115Z" fill="#191919"/>
<path d="M246.509 251.643C240.897 251.059 230.391 251.215 221.109 251.215C221.665 233.599 221.267 189.979 221.431 187.723C223.661 187.715 244.037 187.831 241.451 186.197C239.717 185.101 225.701 184.945 223.667 184.945C177.011 184.945 157.513 184.741 149.181 185.299C147.613 185.405 142.173 185.717 143.501 186.557C145.429 187.775 161.313 187.809 163.577 187.807C163.577 189.487 163.789 250.639 163.803 251.215C160.801 251.219 144.979 251.257 140.243 251.421C140.009 203.025 140.309 145.161 138.071 151.957C137.333 154.199 137.097 162.191 136.993 164.901C136.281 164.67 135.537 164.554 134.789 164.557C134.285 164.557 121.655 164.579 120.891 164.723C120.691 164.761 120.871 165.791 120.703 151.709C120.697 151.285 120.693 151.237 120.749 150.991C120.851 150.585 121.087 150.225 121.419 149.971C121.843 149.657 122.235 149.605 122.761 149.589C136.231 149.205 135.159 149.021 135.689 149.131C136.179 149.241 136.629 149.499 136.983 149.823C137.545 150.329 137.807 150.945 137.995 151.261C138.775 152.617 139.411 147.367 134.671 147.123C134.241 147.095 122.355 146.585 122.355 146.585C119.583 146.571 117.473 148.853 117.395 151.323C117.395 151.323 117.117 166.307 117.101 171.475C105.821 169.797 46.8311 170.071 36.1151 170.075C34.9971 170.005 34.0911 170.545 33.6431 171.553L1.08712 250.769C0.873124 251.295 0.605124 251.855 0.607124 252.309C0.581124 253.863 1.72512 254.731 2.93912 254.763C4.45912 254.763 108.519 254.081 111.817 253.953C113.425 253.877 115.511 253.773 117.093 253.557V259.255H140.241V253.999C143.489 254.663 152.447 255.073 158.107 255.073C160.931 255.073 238.839 254.705 240.169 254.595C241.295 254.503 244.565 254.213 245.649 253.895C246.455 253.659 246.917 253.281 246.425 252.901C245.767 252.391 247.777 251.777 246.501 251.645L246.509 251.643ZM117.099 252.365C104.049 250.431 21.5391 250.959 5.12912 250.959L7.78112 244.517C12.0551 245.105 21.5251 245.365 26.0231 245.357C109.459 245.201 112.569 245.133 117.099 244.509V252.365ZM117.099 242.989C113.703 242.403 103.943 242.053 98.2291 242.053C95.2611 242.053 13.4091 242.369 12.0111 242.463C10.8311 242.543 9.66113 242.639 8.50712 242.751L34.3371 179.991C36.7711 180.757 45.3551 181.069 49.0551 181.067C112.241 181.053 111.757 181.025 116.879 180.327C117.221 180.281 117.099 175.409 117.099 242.989ZM117.099 178.601C114.285 178.087 107.761 177.761 103.381 177.761C43.6851 177.761 39.6091 177.765 34.9091 178.599L36.8331 173.923C91.1991 173.575 110.329 173.603 117.101 172.663L117.099 178.601ZM136.411 255.417L120.923 255.429C120.899 232.595 120.799 173.263 120.779 167.201C121.937 167.495 121.623 167.419 133.695 167.419C134.545 167.419 136.097 167.375 136.915 167.143C136.169 188.141 136.391 203.749 136.411 255.417ZM209.789 188.733L217.569 188.711C217.771 188.691 216.341 189.641 217.817 250.341C217.835 251.069 217.811 250.821 217.897 251.213H208.551C210.203 243.109 209.803 208.453 209.789 188.733ZM178.975 187.795L205.955 187.761C206.173 204.967 205.493 242.273 207.081 251.213H177.745C179.433 242.933 178.997 207.569 178.977 187.797L178.975 187.795ZM167.391 188.741H175.145C175.155 202.477 174.859 243.243 176.271 251.211H167.011C167.487 249.301 167.375 215.151 167.391 188.741Z" fill="#191919"/>
</svg>
