<svg width="271" height="271" viewBox="0 0 271 271" fill="none" xmlns="http://www.w3.org/2000/svg">
<path d="M193.536 132.429C191.398 124.714 182.867 96.251 182.944 95.232C183.021 94.2131 184.509 90.5383 184.723 89.5288C184.723 89.5288 180.929 86.2538 180.523 85.9814C179.458 87.385 178.484 88.8555 177.607 90.3838C178.149 91.6033 181.038 94.6196 181.038 95.4163C181.038 96.0681 179.608 122.08 179.531 132.429H193.536Z" fill="#16968C"/>
<path d="M121.874 106.533L121.625 106.501L121.39 106.59C119.45 107.326 117.033 108.346 114.481 109.427C114.329 109.491 114.177 109.555 114.025 109.62C111.601 110.647 109.066 111.72 106.676 112.671C104.13 113.683 101.781 114.542 99.9276 115.053C98.9986 115.309 98.2301 115.467 97.6427 115.52C97.3498 115.547 97.1277 115.545 96.9678 115.526C96.8185 115.509 96.7647 115.481 96.7646 115.481C94.6027 114.145 92.9441 111.418 91.0597 107.725C90.6958 107.012 90.3255 106.267 89.9434 105.499C88.3928 102.382 86.6468 98.8711 84.3449 95.4754C81.4594 91.2189 77.6702 87.0884 72.1961 83.9628C66.722 80.8372 59.6219 78.7502 50.1624 78.4913L48.5669 78.4477L49.2236 79.9024C49.4949 80.5035 49.9045 81.9997 50.4174 84.2996C50.9209 86.5569 51.5033 89.4875 52.135 92.8747C53.3981 99.6476 54.8527 108.216 56.2595 116.811C58.4389 130.128 60.4997 143.485 61.5541 150.32C61.8612 152.31 62.0829 153.748 62.1974 154.469L62.4258 155.91L63.6874 155.177C65.5517 154.094 69.3291 152.75 73.4248 151.557C77.4925 150.372 81.7415 149.374 84.4808 148.956L85.2819 148.833L85.3282 148.024C85.4246 146.338 85.5527 143.828 85.6113 141.383L85.6244 140.839L85.1751 140.533C84.8204 140.291 84.4506 140.015 84.0678 139.709C85.4315 140.592 86.8228 141.273 88.2196 141.662L88.2201 141.662C92.994 142.991 98.9745 141.79 106.12 138.129C113.287 134.456 121.773 128.233 131.644 119.265L131.919 119.015L131.964 118.646C132.127 117.315 131.645 115.91 130.944 114.636C130.231 113.34 129.222 112.053 128.144 110.912C127.064 109.77 125.888 108.745 124.819 107.98C124.285 107.598 123.764 107.271 123.285 107.025C122.822 106.788 122.332 106.592 121.874 106.533Z" stroke="#191919" stroke-width="2"/>
<path d="M27.539 182.55C34.165 183.905 98.8527 182.791 101.681 182.55C105.239 182.247 114.481 160.305 115.644 156.805C116.935 152.92 119.648 145.246 106.529 146.31C92.7986 147.423 75.3177 151.1 62.1999 156.998C57.681 131.219 50.6459 87.5885 49.2461 81.9828C47.2543 74.0046 44.2326 71.9152 39.2869 71.361C34.3411 70.8068 20.8237 70.9342 13.7302 71.0602C6.6368 71.1862 6.46201 77.4544 6.92813 84.3731C8.16389 102.728 14.7018 159.195 16.0066 168.756C17.3115 178.317 20.9117 181.2 27.539 182.55ZM106.344 151.465C109.92 151.284 113.064 150.923 111.388 156.256C110.205 160.017 104.178 175.817 99.9015 175.855C91.1563 175.933 67.0983 176.838 65.9601 175.913C65.6172 175.642 64.4926 169.928 62.9791 161.464C75.2974 156.502 102.797 151.643 106.344 151.465Z" fill="#191919"/>
<path d="M263.305 229.775C179.272 230.233 93.2525 230.888 8.62867 230.922C7.65714 230.922 7.65714 232.759 8.67745 232.759C92.1861 232.724 179.195 232.472 263.091 232.019C264.442 232.013 264.675 229.767 263.305 229.775Z" fill="#191919"/>
<path d="M168.515 60.9304C168.527 61.9019 170.276 62.0659 169.758 59.9588C169.566 59.1716 168.49 59.0551 168.515 60.9304Z" fill="#191919"/>
<path d="M174.117 68.6077C176.329 71.3326 179.872 69.5101 178.761 65.2649C178.131 62.8544 177.663 64.0982 176.993 65.0318C176.344 65.8548 175.494 66.4973 174.525 66.8977C173.97 67.1212 173.132 67.3895 174.117 68.6077ZM177.712 65.9641C178.052 68.2093 176.615 69.8516 175.031 67.9072C176.112 67.5664 177.054 66.8847 177.716 65.9641H177.712Z" fill="#191919"/>
<path d="M169.68 54.5374C169.276 54.5682 168.894 54.7308 168.592 55.0001C168.291 55.2695 168.086 55.6306 168.009 56.0279C167.817 57.0482 168.592 56.8829 168.806 56.5618C169.148 56.1661 169.597 55.8765 170.099 55.7271C170.73 55.4995 170.925 54.4371 169.68 54.5374Z" fill="#191919"/>
<path d="M175.939 59.0781C175.47 57.883 174.374 59.1906 174.791 60.467C175.15 61.5591 176.701 61.0198 175.939 59.0781Z" fill="#191919"/>
<path d="M171.711 59.6199C171.401 60.6605 170.746 64.1334 171.575 65.0711C172.173 65.7486 174.056 65.4057 174.597 64.8285C174.968 64.4329 174.704 63.964 174.199 64.09C173.64 64.2294 173.064 64.2882 172.489 64.2648C172.006 60.483 172.909 59.4925 172.218 59.292C172.163 59.2759 172.105 59.2718 172.048 59.28C171.991 59.2883 171.937 59.3087 171.889 59.3398C171.841 59.3709 171.8 59.4121 171.769 59.4604C171.739 59.5087 171.719 59.5631 171.711 59.6199Z" fill="#191919"/>
<path d="M175.238 54.3042C174.448 54.4953 174.46 55.4533 175.103 55.5088C175.744 55.5682 176.349 55.8302 176.832 56.2568C177.479 56.8164 177.805 56.1687 177.707 55.7324C177.554 55.2253 177.213 54.7955 176.755 54.5303C176.296 54.265 175.754 54.1842 175.238 54.3042Z" fill="#191919"/>
<path d="M168.378 132.08C167.101 125.375 166.256 117.763 165.365 108.117C165.3 107.408 164.062 107.476 164.093 108.214C164.522 116.258 165.447 124.268 166.863 132.198C167.004 133.041 168.543 132.944 168.378 132.08Z" fill="#191919"/>
<path d="M209.297 132.497C210.024 125.813 208.432 113.626 206.013 108.525C205.941 108.413 205.834 108.33 205.708 108.288C205.582 108.247 205.445 108.251 205.322 108.299C205.198 108.347 205.095 108.436 205.029 108.551C204.964 108.666 204.94 108.801 204.963 108.931C207.704 119.512 207.563 124.218 207.879 132.252C207.909 133.042 209.201 133.382 209.297 132.497Z" fill="#191919"/>
<path d="M154.133 131.915C154.775 121.002 154.738 105.514 159.322 95.8257C162.958 88.1402 169.456 86.9925 173.383 81.5318C174.061 82.6876 177.668 85.9518 179.105 86.3312C178.522 87.9882 177.676 89.5402 176.599 90.9274C174.773 89.3604 173.2 87.5218 171.935 85.4762C171.432 84.6551 170.58 85.0101 171.031 86.0792C172.203 88.2563 173.727 90.225 175.54 91.9057C175.768 92.1689 176.09 92.331 176.437 92.3564C176.784 92.3818 177.127 92.2684 177.39 92.0412C178.678 90.4623 179.734 88.7069 180.524 86.8285C181.783 88.2302 183.221 89.4603 184.8 90.487C185.082 90.6727 185.418 90.7566 185.754 90.7248C186.09 90.693 186.404 90.5475 186.646 90.3122C188.59 88.758 193.15 83.2771 193.953 80.9072C194.352 79.7405 193.602 79.3896 192.905 80.6253C191.057 83.9012 188.63 86.8146 185.742 89.2242C184.157 88.3077 182.708 87.1729 181.439 85.8529C185.341 83.5033 188.728 80.3896 191.398 76.6985C196.422 80.9167 206.75 80.441 215.234 88.5832C221.696 94.7837 224.93 106.319 225.845 115.014C226.435 120.682 226.459 126.394 225.914 132.067C225.822 133.038 227.308 133.34 227.404 132.359C228.049 126.486 228.071 120.561 227.472 114.683C226.49 105.515 223.128 94.2892 216.483 87.7282C208.082 79.4343 199.432 80.731 192.422 75.727C191.567 75.1159 191.022 74.7622 190.275 75.7853C186.845 80.4885 184.611 82.0183 179.936 85.2215C177.967 84.0617 176.199 82.5916 174.699 80.8679C173.515 79.5129 172.825 79.7121 172.104 80.6931C167.1 87.5019 158.307 86.2215 155.021 104.406C153.666 111.878 152.252 124.549 152.729 131.912C152.729 132.098 152.802 132.275 152.934 132.406C153.065 132.538 153.243 132.611 153.428 132.611C153.613 132.611 153.791 132.538 153.922 132.406C154.054 132.275 154.127 132.098 154.127 131.912L154.133 131.915Z" fill="#191919"/>
<path d="M112.855 136.131C158.419 136.665 205.537 136.131 251.472 136.045C251.472 137.229 251.414 138.405 251.404 139.581L188.039 140.394C188.039 139.491 187.97 138.595 187.883 137.703C187.862 137.529 187.777 137.369 187.646 137.252C187.514 137.136 187.345 137.072 187.169 137.072C186.993 137.072 186.824 137.136 186.692 137.252C186.561 137.369 186.476 137.529 186.455 137.703C186.356 138.615 186.296 139.53 186.25 140.443C159.169 140.522 132.175 139.836 105.113 139.782C103.859 139.782 104.044 141.621 105.259 141.668C115.403 142.056 125.557 142.221 135.711 142.328C137.174 232.854 135.599 229.24 137.094 229.236C137.284 229.236 137.466 229.16 137.6 229.026C137.734 228.892 137.81 228.709 137.81 228.519C137.966 188.3 138.239 170.796 137.549 142.397H186.134C185.921 171.139 187.206 195.844 186.707 227.518C186.704 227.637 186.724 227.755 186.766 227.866C186.809 227.977 186.873 228.078 186.954 228.164C187.119 228.338 187.347 228.44 187.586 228.446C187.826 228.453 188.058 228.364 188.233 228.199C188.407 228.034 188.508 227.807 188.514 227.567C189.004 199.468 187.631 171.383 188.067 142.473L251.385 141.646C251.56 170.215 252.395 198.879 252.59 227.458C252.598 228.693 254.54 228.887 254.533 227.624C254.388 198.035 253.377 167.661 253.191 135.69C253.191 134.806 253.191 133.992 251.972 134C205.68 134.271 160.213 134 112.803 134.31C112.576 134.337 112.367 134.448 112.218 134.621C112.069 134.794 111.99 135.017 111.997 135.245C112.003 135.473 112.095 135.691 112.254 135.855C112.413 136.019 112.627 136.118 112.855 136.131Z" fill="#191919"/>
<path d="M49.2082 212.955C49.7163 211.409 49.9263 192.359 49.6838 186.719C49.62 186.516 49.4912 186.339 49.3171 186.216C49.1431 186.093 48.9334 186.03 48.7203 186.038C48.5072 186.045 48.3026 186.123 48.1379 186.258C47.9731 186.394 47.8574 186.579 47.8085 186.787C47.8085 191.266 46.944 209.923 47.9535 212.965C47.9991 213.096 48.0845 213.209 48.1978 213.289C48.311 213.368 48.4463 213.411 48.5847 213.409C48.7231 213.408 48.8577 213.364 48.9695 213.282C49.0813 213.201 49.1648 213.086 49.2082 212.955Z" fill="#191919"/>
<path d="M140.228 196.261C142.512 196.667 178.203 196.475 183.838 196.475C185.101 196.475 185.208 194.532 183.936 194.532C173.072 194.532 149.867 194.882 140.295 194.803C139.587 194.849 139.461 196.124 140.228 196.261Z" fill="#191919"/>
<path d="M183.799 166.168C184.956 166.155 184.868 164.36 183.722 164.36C170.7 164.36 151.066 164.832 139.694 164.973C138.925 164.982 138.722 166.379 139.566 166.463C143.891 166.867 176.285 166.239 183.799 166.168Z" fill="#191919"/>
<path d="M54.9303 69.5981C54.3568 72.391 53.6303 75.1504 52.7542 77.8636C52.494 78.7132 54.074 79.0682 54.2894 78.2132C55.1148 75.4833 55.7041 72.6876 56.0509 69.8569C56.0834 69.1997 55.0536 68.9491 54.9303 69.5981Z" fill="#191919"/>
<path d="M55.5916 68.3637C56.4954 68.9572 60.7121 67.9653 62.8503 66.3231C65.3571 69.239 66.8367 67.838 65.8923 67.0006C60.5089 62.2486 66.8408 56.2405 68.3693 61.0928C68.5711 61.7351 69.1823 61.792 69.7243 61.2188C71.1795 59.6633 74.7188 52.1051 72.96 49.7921C71.2012 47.4791 66.0495 47.0902 62.0184 48.0048C60.7486 48.3997 59.3835 48.3611 58.1381 47.895C56.8926 47.4289 55.8376 46.5619 55.139 45.4303C53.3369 42.4873 45.0904 61.4817 55.5916 68.3637Z" fill="#191919"/>
<path d="M57.3016 45.5483C59.4791 43.1675 60.8693 41.6377 64.2121 40.5632C73.8584 37.463 82.9857 46.1309 82.1699 56.1986C81.8479 58.0159 81.6559 59.8539 81.5954 61.6985C81.8635 63.4094 82.0166 65.1364 82.0534 66.8678C80.9694 66.7906 79.5263 66.5968 78.8014 67.5291C78.4751 68.309 78.2942 69.142 78.2675 69.9871C75.6239 69.9871 74.2554 67.3922 73.9627 69.0155C73.9054 69.996 74.1268 70.9726 74.6013 71.8325C75.0759 72.6924 75.7842 73.4004 76.6443 73.8746C74.7012 78.6347 73.1619 79.1184 66.8205 73.5534C66.2257 73.0304 63.8571 73.3298 68.9587 77.1577C68.5989 78.6583 68.4841 80.2072 68.6186 81.7444C68.6985 82.6292 69.8489 82.8731 69.872 81.8718C69.8904 80.5967 70.0302 79.3263 70.2893 78.0778C74.1768 80.575 76.8136 78.071 77.8204 75.5114C78.2039 74.5385 78.9044 73.1388 77.7134 72.5968C76.6606 72.129 75.7952 71.3218 75.2554 70.3041C76.3245 71.0616 79.1402 72.0656 79.4721 70.8868C79.6944 70.0995 79.9288 68.4573 79.9288 68.4573C83.4518 68.9722 84.3027 69.2703 83.4274 62.1904C83.2038 60.3828 83.8163 58.5563 83.9911 56.1755C84.8108 44.9521 75.0643 35.8343 63.6525 38.9074C62.0697 39.3158 60.5871 40.0432 59.2955 41.0452C58.004 42.0471 56.9308 43.3023 56.1418 44.7339C56.0818 44.8861 56.0748 45.054 56.1219 45.2107C56.1689 45.3674 56.2673 45.5036 56.4012 45.5976C56.535 45.6916 56.6966 45.7379 56.8599 45.7289C57.0233 45.72 57.1788 45.6563 57.3016 45.5483Z" fill="#191919"/>
<path d="M78.9029 57.2475C78.5398 55.4778 75.109 57.6174 75.1428 59.3572C75.1767 61.097 76.5222 58.2339 77.9409 58.1811C78.2322 58.1702 79.1008 58.2095 78.9029 57.2475Z" fill="#191919"/>
<path d="M77.1143 61.1633C76.0222 63.8638 77.804 64.1565 78.0872 62.8638C78.6794 60.1538 77.3474 60.5902 77.1143 61.1633Z" fill="#191919"/>
<path d="M32.1826 220.506C29.6962 221.273 30.5986 226.85 32.0566 228.007C33.5146 229.164 36.2951 228.094 36.1474 225.162C36.0512 223.246 34.5742 219.767 32.1826 220.506ZM32.6786 225.189C32.4374 224.45 32.1731 221.937 32.9699 222.343C33.6436 222.93 34.0821 223.741 34.2043 224.626C34.5146 226.209 33.3723 227.307 32.6786 225.189Z" fill="#0F5755"/>
<path d="M57.1566 221.739C53.5117 219.991 52.6011 228.53 56.3206 229.28C60.2189 230.065 59.7108 222.965 57.1566 221.739ZM55.6593 225.967C55.3775 224.476 55.6011 223.46 56.2013 223.294C56.8016 223.129 57.3978 225.121 57.3477 226.365C57.2921 227.831 55.9507 227.511 55.6593 225.967Z" fill="#0F5755"/>
<path d="M96.6114 224.93C96.526 227.574 98.4257 230.496 101.47 227.564C103.306 225.796 103.232 221.803 100.867 220.762C98.2591 219.61 96.6792 222.72 96.6114 224.93ZM100.236 226.126C99.0504 227.523 98.4528 226.476 98.4379 225.328C98.4298 224.62 98.8661 221.549 100.129 222.521C100.571 223.011 100.824 223.643 100.843 224.303C100.862 224.963 100.645 225.608 100.232 226.122L100.236 226.126Z" fill="#0F5755"/>
<path d="M95.85 220.709C87.3159 215.907 77.6664 213.44 67.8747 213.557C58.8274 213.681 44.6216 216.171 36.3615 220.029C36.2125 220.122 36.1006 220.265 36.045 220.432C35.9893 220.598 35.9934 220.78 36.0564 220.944C36.1195 221.108 36.2376 221.245 36.3906 221.332C36.5437 221.419 36.7221 221.449 36.8953 221.419C45.2483 218.438 53.9437 216.522 62.7758 215.715C62.0563 216.152 58.826 218.477 58.0428 220.068C57.4642 221.246 58.2095 221.575 59.3978 220.564C60.8761 219.301 64.7623 216.404 67.7744 215.627C70.1121 217.049 72.3198 218.675 74.3719 220.486C76.0427 221.93 77.1727 221.018 75.6348 219.402C74.3354 218.047 72.8557 216.865 71.4668 215.593C79.8061 216.009 87.95 218.266 95.3148 222.2C96.4219 222.801 96.9733 221.338 95.85 220.709Z" fill="#0F5755"/>
<path d="M76.1632 225.559C75.7567 229.444 80.0588 230.655 81.6333 227.006C81.9247 226.309 82.065 225.558 82.0449 224.802C82.0248 224.047 81.8448 223.305 81.5168 222.624C80.2621 219.952 76.7187 220.323 76.1632 225.559ZM80.0493 225.995C79.3989 227.502 77.9653 228.327 77.9802 225.83C77.9884 224.285 78.6984 222.468 79.6062 222.984C80.5141 223.501 80.3257 225.326 80.0344 225.996L80.0493 225.995Z" fill="#0F5755"/>
<path d="M175.443 49.017C175.443 51.2325 180.146 53.3124 181.865 52.3314C181.423 53.5059 181.285 54.7734 181.465 56.0155C181.645 57.2575 182.137 58.4338 182.895 59.4343C183.774 60.5264 184.2 58.4533 185.578 58.7934C187.379 59.2378 187.006 64.2743 185.325 64.4004C184.266 64.4789 184.723 65.5955 184.723 65.5955C185.846 69.2151 186.726 72.9057 187.356 76.6428C187.375 76.785 187.445 76.9154 187.553 77.0098C187.662 77.1042 187.8 77.1562 187.944 77.1562C188.087 77.1562 188.226 77.1042 188.334 77.0098C188.442 76.9154 188.513 76.785 188.532 76.6428C188.751 75.1143 186.928 67.4288 186.161 65.8028C188.104 65.1131 188.425 62.0521 188.193 60.2473C192.78 56.4966 191.322 47.4601 186.365 47.7908C188.922 42.3586 181.556 39.8708 180.021 43.1838C177.989 38.7732 170.08 39.2976 169.332 43.5239C168.039 41.4358 161.569 41.0754 161.966 46.0984C162.454 52.2717 172.284 52.5156 175.443 49.017Z" fill="#191919"/>
<path d="M176.502 78.8203C176.586 77.693 176.58 76.5466 176.619 75.4193C177.307 75.3372 177.97 75.1135 178.567 74.7623C179.164 74.4111 179.682 73.94 180.088 73.3787C180.149 73.3161 180.197 73.2415 180.229 73.1595C180.26 73.0775 180.274 72.9899 180.27 72.9022C180.265 72.8145 180.243 72.7286 180.204 72.65C180.165 72.5714 180.11 72.5017 180.043 72.4454C179.975 72.389 179.897 72.3473 179.813 72.3227C179.729 72.2981 179.64 72.2912 179.553 72.3025C179.466 72.3138 179.382 72.343 179.307 72.3883C179.232 72.4336 179.167 72.494 179.116 72.5657C178.188 73.4312 177.005 73.9735 175.743 74.1117C169.192 74.903 167.092 67.3774 166.998 62.2758C166.935 58.7772 167.455 54.891 167.611 52.4127C167.611 51.7136 166.571 51.7041 166.425 52.3545C165.987 55.6499 165.763 58.9703 165.754 62.2948C165.744 68.3923 167.96 75.7431 175.277 75.5494C175.264 76.7945 175.174 78.0376 175.006 79.2715C174.845 80.5751 176.34 80.9965 176.502 78.8203Z" fill="#191919"/>
<path d="M63.3746 212.328C66.3626 212.079 69.3662 212.079 72.3542 212.328C72.3542 210.677 72.3542 190.951 72.1686 184.625H63.4234C63.4722 187.884 63.2879 203.121 63.3746 212.328Z" fill="#0F5755"/>
<path d="M99.9896 174.203C102.322 173.038 111.766 155.546 109.502 153.398C107.238 151.251 68.5062 160.88 64.803 162.477C64.9791 163.527 66.7474 172.91 67.2528 174.634C72.3734 174.815 97.6577 175.37 99.9896 174.203Z" fill="#191919"/>
<path d="M109.852 188.623C108.571 186.068 107.079 183.624 105.392 181.317C104.598 182.548 103.47 183.529 102.14 184.143C96.9769 184.695 91.7796 184.855 86.5925 184.62C87.7578 189.634 92.48 207.222 93.7049 215.258C99.9656 215.223 106.219 214.811 112.43 214.024C112.019 212.058 110.911 196.359 109.852 188.623Z" fill="#191919"/>
<path d="M103.419 228.483C106.237 228.678 115.507 227.958 119.346 227.881C119.462 227.894 119.58 227.881 119.692 227.845C119.803 227.809 119.906 227.75 119.993 227.672C120.081 227.593 120.15 227.497 120.198 227.39C120.246 227.283 120.271 227.167 120.271 227.05C120.271 226.933 120.246 226.817 120.198 226.709C120.15 226.602 120.081 226.506 119.993 226.428C119.906 226.35 119.803 226.291 119.692 226.254C119.58 226.218 119.462 226.206 119.346 226.219C115.464 226.575 106.189 226.705 103.428 227.19C103.291 227.232 103.17 227.317 103.084 227.433C102.997 227.549 102.95 227.689 102.949 227.833C102.948 227.977 102.993 228.118 103.078 228.235C103.162 228.352 103.282 228.439 103.419 228.483Z" fill="#191919"/>
<path d="M124.292 217.902C123.691 219.848 123.233 221.835 122.922 223.847C122.201 228.291 123.735 228.861 127.955 229.105C129.899 229.219 131.842 229.105 133.854 229.105C134.951 229.105 135.243 227.479 133.921 227.479C121.473 227.479 124.019 228.238 125.71 218.249C125.733 218.155 125.736 218.059 125.721 217.964C125.706 217.87 125.673 217.779 125.623 217.697C125.573 217.616 125.507 217.545 125.429 217.488C125.352 217.432 125.264 217.392 125.171 217.369C125.078 217.347 124.981 217.343 124.887 217.358C124.792 217.373 124.701 217.407 124.62 217.457C124.538 217.507 124.467 217.572 124.411 217.65C124.354 217.728 124.314 217.815 124.292 217.909V217.902Z" fill="#191919"/>
<path d="M121.503 220.641C118.936 218.724 116.142 217.131 113.184 215.899C113.102 215.858 113.012 215.834 112.921 215.828C112.829 215.822 112.737 215.835 112.65 215.864C112.563 215.894 112.483 215.94 112.414 216.001C112.345 216.061 112.289 216.135 112.248 216.217C111.487 217.759 117.11 219.048 120.378 221.908C120.546 222.057 120.766 222.134 120.991 222.12C121.215 222.107 121.425 222.005 121.574 221.837C121.723 221.669 121.799 221.449 121.786 221.225C121.773 221 121.671 220.791 121.503 220.641Z" fill="#191919"/>
<path d="M134.874 184.97C130.646 171.365 123.592 155.478 117.966 155.024C116.123 161.959 108.4 177.234 106.121 179.693C111.649 186.262 119.264 204.482 123.252 216.618C127.155 216.669 131.056 216.39 134.912 215.782C135.039 205.055 135.039 195.017 134.874 184.97Z" fill="#191919"/>
<path d="M99.5613 110.148C102.199 110.572 109.094 111.184 110.182 110.858C110.834 110.661 110.376 109.694 109.832 109.603C106.185 108.995 102.515 108.943 100.193 108.632C104.46 95.392 109.911 82.7268 114.118 69.7635C122.484 69.4532 132.58 69.8312 141.56 69.9478C138.76 78.0778 135.388 89.2863 132.346 96.9814C132.062 97.6995 133.317 97.9529 133.589 97.331C135.154 94.289 140.856 77.5751 142.397 73.0385C143.096 70.9871 144.272 68.296 141.358 68.1795C135.732 67.9654 120.106 67.6253 114.277 68.1795C112.651 68.3353 112.729 68.3543 112.226 69.861C107.927 82.7213 103.47 95.621 98.6223 108.224C98.1792 109.393 98.1101 109.915 99.5613 110.148Z" fill="#191919"/>
<path d="M107.306 97.5154C106.655 97.7105 106.527 98.7064 107.218 98.8378C108.277 99.0384 117.412 100.353 118.073 100.101C118.734 99.8487 118.571 99.1251 118.169 98.7687C117.552 98.22 108.535 97.1468 107.306 97.5154Z" fill="#191919"/>
<path d="M109.716 91.7444C108.87 91.8203 108.744 93.2091 109.629 93.2796C115.615 93.7566 121.949 94.3799 127.921 94.7362C128.961 94.7986 129.341 93.2728 128.243 93.0845C125.655 92.6427 112.767 91.4625 109.716 91.7444Z" fill="#191919"/>
<path d="M121.065 76.4775C121.414 76.2324 121.681 75.8869 121.829 75.4868C121.977 75.0867 122 74.6509 121.895 74.2375C121.789 73.8241 121.56 73.4525 121.239 73.1723C120.917 72.892 120.518 72.7163 120.094 72.6686C117.609 72.4274 116.216 74.1428 116.842 75.7688C117.351 77.1075 119.228 77.7593 121.065 76.4775Z" fill="#0F5755"/>
<path d="M111.523 87.5331C117.566 88.0236 123.436 88.0981 129.545 88.7377C130.565 88.8447 130.856 87.2729 129.827 87.1551C127.339 86.8678 113.938 85.6347 111.422 86.2404C110.745 86.399 110.931 87.4789 111.523 87.5331Z" fill="#191919"/>
<path d="M125.167 82.0657C127.41 82.4641 129.692 82.6073 131.967 82.4925C133.068 82.4302 133.037 80.8014 131.783 80.7052C129.199 80.5074 127.382 80.5304 125.4 80.5115C125.222 80.5313 125.055 80.6094 124.926 80.7338C124.797 80.8581 124.712 81.0216 124.686 81.1989C124.659 81.3762 124.692 81.5574 124.779 81.7141C124.866 81.8709 125.002 81.9945 125.167 82.0657Z" fill="#191919"/>
<path d="M112.69 82.2987C115.757 82.5978 118.838 82.7407 121.92 82.7269C123.525 76.983 113.399 76.9546 112.69 82.2987Z" fill="#0F5755"/>
<path d="M127.674 98.0303C128.129 97.6305 127.897 96.701 127.197 96.8351C125.52 97.2632 123.95 98.0306 122.582 99.0899C121.542 100.445 122.474 105.065 123.427 106.601C124.38 108.136 125.025 106.914 124.865 106.407C124.504 105.263 123.598 100.836 124.019 100.174C124.26 99.7877 126.454 99.1034 127.674 98.0303Z" fill="#191919"/>
<path d="M134.184 77.1686C134.383 77.1162 134.56 77.0023 134.689 76.8434C134.819 76.6844 134.896 76.4884 134.907 76.2835C134.919 76.0785 134.866 75.8751 134.755 75.7024C134.644 75.5296 134.481 75.3964 134.29 75.3217C125.603 74.0493 125.321 76.4585 126.42 76.7214C127.519 76.9843 130.977 76.9152 134.184 77.1686Z" fill="#191919"/>
<path d="M136.603 91.9287C135.732 94.4205 136.747 96.4436 134.455 98.2254C132.527 99.5047 130.404 100.463 128.169 101.063C127.627 101.25 126.814 103.598 132.386 101.198C137.504 98.995 137.252 97.7999 137.77 92.0263C137.832 91.3271 136.81 91.3366 136.603 91.9287Z" fill="#191919"/>
<path d="M135.719 100.676C134.747 104.369 135.436 109.434 130.725 112.832C129.832 113.476 130.92 114.982 131.988 114.202C135.959 111.298 137.42 105.394 136.845 100.725C136.812 100.604 136.742 100.497 136.644 100.419C136.546 100.341 136.425 100.296 136.3 100.291C136.175 100.285 136.051 100.32 135.947 100.389C135.843 100.458 135.763 100.559 135.719 100.676Z" fill="#191919"/>
<path d="M229.294 132.313C231.996 132.127 236.786 132.371 240.771 132.313C241.51 127.522 244.159 106.388 244.949 101.419C245.739 96.4502 243.472 95.8323 239.43 95.7727C235.388 95.7131 232.064 95.7145 224.204 95.7727C230.529 109.516 229.79 126.482 229.294 132.313Z" fill="#16968C"/>
</svg>
