<svg width="72" height="72" viewBox="0 0 72 72" fill="none" xmlns="http://www.w3.org/2000/svg">
<g clip-path="url(#clip0_351_2963)">
<path d="M35.9473 -0.0434152C36.0894 -0.0431142 36.2316 -0.0428132 36.378 -0.0425032C38.4182 -0.0355667 40.4196 -0.000529382 42.4235 0.41917C42.5596 0.446915 42.6957 0.47466 42.836 0.503246C49.5925 1.91657 55.7354 4.97718 60.7174 9.77562C60.8555 9.90803 60.8555 9.90803 60.9964 10.0431C62.3215 11.3201 63.542 12.6185 64.6276 14.1047C64.7474 14.2655 64.8672 14.4262 64.9871 14.5869C65.8303 15.7308 66.5786 16.9198 67.2809 18.1545C67.3318 18.2428 67.3827 18.331 67.4351 18.4219C70.4524 23.6934 71.8163 29.6657 71.7933 35.6979C71.793 35.84 71.7927 35.9822 71.7924 36.1286C71.7854 38.1687 71.7504 40.1702 71.3307 42.1741C71.2891 42.3783 71.2891 42.3783 71.2466 42.5866C69.5066 50.9048 65.0532 58.7746 58.2038 63.9592C58.1285 64.0172 58.0533 64.0752 57.9757 64.1349C53.5252 67.5564 48.4206 69.8596 42.921 70.9853C42.8206 71.0058 42.7202 71.0264 42.6168 71.0476C40.4552 71.4585 38.317 71.5522 36.1218 71.5439C35.9831 71.5436 35.8443 71.5434 35.7014 71.5431C33.6773 71.5368 31.7067 71.4725 29.7155 71.0813C29.5904 71.0588 29.4653 71.0363 29.3365 71.0132C23.2469 69.9114 17.502 67.1618 12.818 63.1213C12.714 63.0327 12.6099 62.9442 12.5027 62.8529C10.6168 61.2035 8.84722 59.4229 7.37172 57.3957C7.25211 57.2351 7.13246 57.0746 7.01278 56.9141C6.16921 55.7701 5.42082 54.5809 4.7184 53.3459C4.6675 53.2577 4.6166 53.1695 4.56416 53.0786C2.47902 49.4355 1.15608 45.3392 0.528945 41.1965C0.504182 41.0403 0.479419 40.884 0.453905 40.723C0.219099 39.0861 0.199746 37.463 0.206008 35.8113C0.20646 35.5976 0.20646 35.5976 0.20692 35.3795C0.213852 33.3368 0.248364 31.3328 0.668594 29.3264C0.696339 29.1903 0.724084 29.0541 0.752669 28.9139C2.166 22.1574 5.2266 16.0145 10.025 11.0325C10.1133 10.9404 10.2016 10.8483 10.2925 10.7534C11.5695 9.42841 12.8679 8.20789 14.3541 7.1223C14.5149 7.00247 14.6756 6.88264 14.8364 6.76281C15.98 5.91967 17.1674 5.16797 18.4039 4.46898C18.5027 4.41281 18.6015 4.35665 18.7032 4.29878C21.934 2.4798 25.4492 1.25804 29.0783 0.515179C29.1787 0.494601 29.2791 0.474023 29.3825 0.452821C31.5675 0.0375264 33.7284 -0.0518644 35.9473 -0.0434152Z" fill="#FB8B24"/>
<path d="M35.9473 -0.0434152C36.0894 -0.0431142 36.2316 -0.0428132 36.378 -0.0425032C38.4182 -0.0355667 40.4196 -0.000529382 42.4235 0.41917C42.5596 0.446915 42.6957 0.47466 42.836 0.503246C49.5925 1.91657 55.7354 4.97718 60.7174 9.77562C60.8555 9.90803 60.8555 9.90803 60.9964 10.0431C62.3215 11.3201 63.542 12.6185 64.6276 14.1047C64.7474 14.2655 64.8672 14.4262 64.9871 14.5869C65.8303 15.7308 66.5786 16.9198 67.2809 18.1545C67.3318 18.2428 67.3827 18.331 67.4351 18.4219C70.4524 23.6934 71.8163 29.6657 71.7933 35.6979C71.793 35.84 71.7927 35.9822 71.7924 36.1286C71.7854 38.1687 71.7504 40.1702 71.3307 42.1741C71.2891 42.3783 71.2891 42.3783 71.2466 42.5866C69.5066 50.9048 65.0532 58.7746 58.2038 63.9592C58.1285 64.0172 58.0533 64.0752 57.9757 64.1349C53.5252 67.5564 48.4206 69.8596 42.921 70.9853C42.8206 71.0058 42.7202 71.0264 42.6168 71.0476C40.4552 71.4585 38.317 71.5522 36.1218 71.5439C35.9831 71.5436 35.8443 71.5434 35.7014 71.5431C33.6773 71.5368 31.7067 71.4725 29.7155 71.0813C29.5904 71.0588 29.4653 71.0363 29.3365 71.0132C23.2469 69.9114 17.502 67.1618 12.818 63.1213C12.714 63.0327 12.6099 62.9442 12.5027 62.8529C10.6168 61.2035 8.84722 59.4229 7.37172 57.3957C7.25211 57.2351 7.13246 57.0746 7.01278 56.9141C6.16921 55.7701 5.42082 54.5809 4.7184 53.3459C4.6675 53.2577 4.6166 53.1695 4.56416 53.0786C2.47902 49.4355 1.15608 45.3392 0.528945 41.1965C0.504182 41.0403 0.479419 40.884 0.453905 40.723C0.219099 39.0861 0.199746 37.463 0.206008 35.8113C0.20646 35.5976 0.20646 35.5976 0.20692 35.3795C0.213852 33.3368 0.248364 31.3328 0.668594 29.3264C0.696339 29.1903 0.724084 29.0541 0.752669 28.9139C2.166 22.1574 5.2266 16.0145 10.025 11.0325C10.1133 10.9404 10.2016 10.8483 10.2925 10.7534C11.5695 9.42841 12.8679 8.20789 14.3541 7.1223C14.5149 7.00247 14.6756 6.88264 14.8364 6.76281C15.98 5.91967 17.1674 5.16797 18.4039 4.46898C18.5027 4.41281 18.6015 4.35665 18.7032 4.29878C21.934 2.4798 25.4492 1.25804 29.0783 0.515179C29.1787 0.494601 29.2791 0.474023 29.3825 0.452821C31.5675 0.0375264 33.7284 -0.0518644 35.9473 -0.0434152ZM24.4088 11.1721C24.2991 11.2245 24.1894 11.2768 24.0763 11.3308C20.1245 13.2484 16.6652 16.1433 14.0748 19.6907C14.0169 19.7695 13.959 19.8484 13.8994 19.9297C12.1095 22.4028 10.8041 25.1658 9.88539 28.0696C9.8545 28.1652 9.8236 28.2609 9.79177 28.3595C7.71944 34.9599 8.92118 42.5691 12.0325 48.6066C13.8136 51.941 16.3722 54.9655 19.3815 57.2561C19.4614 57.3179 19.5413 57.3798 19.6236 57.4435C22.1003 59.3435 24.9215 60.7938 27.9 61.7248C28.0023 61.7579 28.1046 61.7909 28.21 61.8249C32.034 63.0364 36.6732 63.3598 40.608 62.5627C40.7149 62.5432 40.8218 62.5236 40.9319 62.5035C47.6932 61.254 53.8822 57.3727 57.9245 51.8098C57.9829 51.7296 58.0413 51.6494 58.1015 51.5668C60.4663 48.2775 62.1643 44.418 62.7598 40.4023C62.7767 40.2938 62.7936 40.1853 62.8111 40.0736C62.8606 39.75 62.9071 39.4261 62.9518 39.1018C62.9656 39.0027 62.9793 38.9037 62.9935 38.8016C63.8516 31.9768 61.8804 24.8547 57.7166 19.4024C56.0682 17.2914 54.2285 15.4017 52.0592 13.8254C51.979 13.767 51.8989 13.7085 51.8163 13.6483C43.9246 7.97477 33.1862 6.97644 24.4088 11.1721Z" fill="#FB8B24"/>
<path d="M41.0272 4.60846C41.1389 4.62876 41.2505 4.64905 41.3655 4.66997C46.6524 5.67061 51.6735 7.87815 55.8299 11.3116C55.9104 11.3778 55.9908 11.4441 56.0736 11.5123C57.6908 12.8528 59.1295 14.2721 60.4383 15.92C60.5733 16.0804 60.5733 16.0804 60.7111 16.244C65.9386 22.5127 67.9456 30.7301 67.3874 38.7423C67.3027 39.6154 67.1643 40.4745 67.0018 41.336C66.9824 41.4473 66.9629 41.5585 66.9429 41.6732C66.4463 44.5003 65.4621 47.1402 64.2088 49.7149C64.1581 49.8193 64.1073 49.9237 64.055 50.0313C63.3041 51.5547 62.4223 52.9563 61.4159 54.3233C61.3543 54.407 61.2928 54.4906 61.2294 54.5768C56.3675 61.1134 49.1277 65.4728 41.1145 66.8568C41.0218 66.8729 40.929 66.8891 40.8335 66.9057C39.1446 67.1755 37.4275 67.2044 35.7206 67.2059C35.6203 67.206 35.5201 67.2061 35.4168 67.2062C28.0278 67.1952 20.6774 64.2957 15.1922 59.3507C15.0795 59.2505 15.0795 59.2505 14.9645 59.1484C10.8447 55.485 7.90323 50.8788 6.11509 45.6651C6.08042 45.5657 6.04574 45.4662 6.01001 45.3638C3.45979 37.9747 4.13581 29.4254 7.46794 22.4049C8.60439 20.0756 9.88813 17.9019 11.5614 15.92C11.6298 15.8376 11.6982 15.7552 11.7687 15.6703C13.1092 14.0562 14.5234 12.6191 16.1698 11.3116C16.3302 11.1766 16.3302 11.1766 16.4938 11.0388C18.5065 9.36043 20.8112 8.13568 23.1522 6.98248C23.2452 6.93658 23.3382 6.89068 23.434 6.84338C25.7748 5.71052 28.4152 5.03597 30.9725 4.60846C31.0693 4.5921 31.166 4.57574 31.2657 4.55889C34.356 4.06884 37.9468 4.03822 41.0272 4.60846ZM24.409 11.1719C24.2993 11.2243 24.1896 11.2767 24.0766 11.3306C20.1247 13.2482 16.6654 16.1431 14.0751 19.6905C14.0172 19.7694 13.9593 19.8483 13.8996 19.9296C12.1097 22.4026 10.8043 25.1656 9.8856 28.0694C9.8547 28.1651 9.82381 28.2608 9.79198 28.3593C7.71965 34.9597 8.92139 42.569 12.0327 48.6064C13.8138 51.9409 16.3725 54.9654 19.3817 57.2559C19.4616 57.3178 19.5415 57.3796 19.6238 57.4433C22.1005 59.3433 24.9218 60.7937 27.9002 61.7247C28.0025 61.7577 28.1048 61.7907 28.2102 61.8248C32.0342 63.0362 36.6734 63.3597 40.6083 62.5626C40.7151 62.543 40.822 62.5235 40.9321 62.5033C47.6934 61.2538 53.8824 57.3725 57.9247 51.8096C57.9831 51.7295 58.0415 51.6493 58.1017 51.5667C60.4665 48.2774 62.1646 44.4179 62.76 40.4021C62.7769 40.2936 62.7938 40.1852 62.8113 40.0734C62.8608 39.7498 62.9073 39.426 62.952 39.1016C62.9658 39.0026 62.9795 38.9035 62.9937 38.8015C63.8519 31.9766 61.8806 24.8545 57.7168 19.4023C56.0684 17.2912 54.2287 15.4015 52.0594 13.8253C51.9793 13.7668 51.8991 13.7084 51.8165 13.6482C43.9248 7.97461 33.1864 6.97628 24.409 11.1719Z" fill="#FDFEFE"/>
<path d="M41.0273 9.2168C41.9793 9.28183 42.849 9.43892 43.7592 9.72302C43.8799 9.76024 44.0006 9.79746 44.1249 9.8358C49.6459 11.5794 54.5119 15.001 57.9248 19.6904C57.9825 19.7691 58.0402 19.8478 58.0996 19.9289C59.8898 22.4021 61.1955 25.1652 62.1143 28.0693C62.1452 28.165 62.176 28.2607 62.2079 28.3593C63.4341 32.2647 63.4221 36.7859 62.6729 40.7773C62.6557 40.8714 62.6386 40.9654 62.6209 41.0623C61.3914 47.6822 57.4938 53.726 52.0596 57.6748C51.9393 57.7625 51.9393 57.7625 51.8166 57.8519C48.9627 59.9036 44.79 62.3811 41.167 62.2832C41.5022 61.948 41.8375 61.854 42.2794 61.703C45.3914 60.6392 48.0115 58.9678 50.3838 56.6973C50.4931 56.5968 50.6023 56.4964 50.7149 56.3929C52.6025 54.599 54.0203 52.4018 55.2715 50.1338C55.35 49.9916 55.35 49.9916 55.43 49.8464C56.709 47.4686 57.7386 44.5566 58.1229 41.8807C58.1782 41.5098 58.2383 41.1449 58.3087 40.7771C58.5938 39.2612 58.6859 37.8052 58.6667 36.265C58.6659 36.1527 58.6651 36.0404 58.6643 35.9248C58.6078 27.8286 55.9272 20.2713 50.1299 14.4974C48.5923 13.0147 46.8342 11.8612 44.9375 10.8926C44.8476 10.8467 44.7578 10.8008 44.6652 10.7535C43.4858 10.1599 42.3032 9.70285 41.0273 9.35645C41.0273 9.31036 41.0273 9.26428 41.0273 9.2168Z" fill="#FB8B24"/>
<path d="M38.5324 17.7903C39.8135 18.5067 40.6973 19.5669 41.1754 20.9565C41.3484 21.5816 41.3549 22.1903 41.3506 22.8356C41.35 22.9635 41.3494 23.0913 41.3488 23.223C41.3255 24.6992 41.1161 26.1412 40.8944 27.5985C40.8514 27.8908 40.8086 28.1832 40.7659 28.4755C40.6769 29.0823 40.5866 29.6889 40.4951 30.2953C40.3785 31.0683 40.2645 31.8416 40.1514 32.615C40.0633 33.2165 39.9744 33.8178 39.885 34.419C39.8427 34.7041 39.8006 34.9892 39.7586 35.2743C39.1069 39.6857 39.1069 39.6857 38.0954 40.6376C37.349 41.1882 36.5005 41.3714 35.5818 41.3358C34.5368 41.1457 33.8258 40.6913 33.2054 39.8257C32.7803 39.0547 32.7139 38.1827 32.5902 37.3231C32.5612 37.1316 32.5321 36.9401 32.5027 36.7487C32.4254 36.2403 32.3504 35.7315 32.2759 35.2227C32.2008 34.7126 32.1233 34.2029 32.0461 33.6931C31.891 32.6666 31.7392 31.6397 31.5885 30.6126C31.5113 30.0857 31.4333 29.5589 31.3552 29.0322C31.2938 28.6174 31.2328 28.2026 31.1719 27.7878C31.1433 27.5934 31.1146 27.399 31.0858 27.2046C30.2233 21.3895 30.2233 21.3895 31.7196 19.2806C33.3698 17.2218 36.1726 16.7386 38.5324 17.7903Z" fill="white"/>
<path d="M36.2803 17.3164C37.891 17.4203 39.0977 17.9137 40.1904 19.1318C41.0558 20.3159 41.3604 21.3899 41.3509 22.8358C41.3503 22.9636 41.3497 23.0914 41.3491 23.2231C41.3257 24.6993 41.1164 26.1413 40.8947 27.5986C40.8517 27.8909 40.8089 28.1833 40.7662 28.4757C40.6772 29.0825 40.5868 29.689 40.4953 30.2954C40.3787 31.0684 40.2648 31.8417 40.1517 32.6152C40.0636 33.2166 39.9746 33.8179 39.8853 34.4191C39.843 34.7042 39.8009 34.9893 39.7589 35.2744C39.1072 39.6858 39.1072 39.6858 38.0957 40.6377C37.3278 41.2041 36.5159 41.2977 35.582 41.3359C35.6708 41.2962 35.7595 41.2564 35.851 41.2154C36.1652 41.0772 36.1652 41.0772 36.3065 40.7512C36.5383 39.9487 36.5813 39.1386 36.5939 38.3079C36.5984 38.0908 36.6029 37.8737 36.6073 37.6567C36.6106 37.4838 36.6106 37.4838 36.6139 37.3075C36.6584 34.9422 36.7368 32.579 36.8283 30.2151C36.962 26.728 36.962 26.728 37.0202 23.2391C37.0215 23.0321 37.0234 22.8252 37.0261 22.6183C37.0473 20.8331 36.8938 19.0055 36.2803 17.3164Z" fill="#F2F2F2"/>
<path d="M37.9031 45.9706C38.1108 46.0951 38.315 46.2256 38.5141 46.3634C38.5953 46.417 38.6765 46.4707 38.7601 46.526C39.5501 47.111 40.1275 48.0616 40.3295 49.0167C40.4857 50.4311 40.172 51.6998 39.3083 52.8483C38.2528 53.8548 37.1894 54.2444 35.7447 54.2449C34.8611 54.222 34.2186 53.9874 33.4868 53.4855C33.337 53.3904 33.1872 53.2954 33.0329 53.1974C32.3058 52.5532 31.726 51.289 31.638 50.3292C31.6136 49.3341 31.7172 48.6171 32.2299 47.7599C32.2875 47.6621 32.3451 47.5644 32.4045 47.4637C33.5605 45.7264 36.0122 45.0497 37.9031 45.9706Z" fill="#FDFDFE"/>
<path d="M43.4548 61.5696C43.5666 61.6463 43.5666 61.6463 43.6807 61.7245C43.6807 61.7706 43.6807 61.8167 43.6807 61.8642C43.3929 61.9349 43.1048 62.0045 42.8166 62.0736C42.576 62.132 42.576 62.132 42.3305 62.1915C41.9255 62.2712 41.5774 62.3017 41.167 62.2831C41.5113 61.9388 41.8077 61.849 42.2667 61.6896C42.4865 61.6108 42.4865 61.6108 42.7108 61.5303C43.1221 61.4452 43.1221 61.4452 43.4548 61.5696Z" fill="#FB8B24"/>
</g>
<defs>
<clipPath id="clip0_351_2963">
<rect width="71.5" height="71.5" fill="white" transform="translate(0.25)"/>
</clipPath>
</defs>
</svg>
